<?xml version="1.0" standalone="no"?>
<!DOCTYPE svg PUBLIC "-//W3C//DTD SVG 1.1//EN" "http://www.w3.org/Graphics/SVG/1.1/DTD/svg11.dtd" >
<svg xmlns="http://www.w3.org/2000/svg" xmlns:xlink="http://www.w3.org/1999/xlink" version="1.1">
<metadata>
Created by FontForge 20170731 at Wed Apr 11 11:11:45 2018
 By Aleksey,,,
Copyright (c) 2018 by Creativetacos. All rights reserved.
</metadata>
<defs>
<font id="Banny-Round" horiz-adv-x="550" >
  <font-face 
    font-family="Banny Round"
    font-weight="400"
    font-stretch="normal"
    units-per-em="1024"
    panose-1="0 0 0 0 0 0 0 0 0 0"
    ascent="819"
    descent="-205"
    x-height="520"
    cap-height="750"
    bbox="-10.9231 -250 1146 999"
    underline-thickness="50"
    underline-position="-200"
    unicode-range="U+000D-F078"
  />
<missing-glyph horiz-adv-x="100" 
 />
    <glyph glyph-name=".notdef" horiz-adv-x="100" 
 />
    <glyph glyph-name=".null" horiz-adv-x="0" 
 />
    <glyph glyph-name=".null" horiz-adv-x="0" 
 />
    <glyph glyph-name="nonmarkingreturn" unicode="&#xd;" horiz-adv-x="256" 
 />
    <glyph glyph-name="space" unicode=" " horiz-adv-x="250" 
 />
    <glyph glyph-name="exclam" unicode="!" horiz-adv-x="197" 
d="M99 0q-21 0 -35.5 14.5t-14.5 35.5q0 20 14.5 34.5t35.5 14.5h1q20 0 34.5 -14.5t14.5 -34.5q0 -21 -14.5 -35.5t-34.5 -14.5h-1zM45 697q0 22 15.5 37.5t38.5 15.5q22 0 37.5 -15.5t15.5 -37.5v-252l-0.5 -5l-0.5 -5l-37 -220q-2 -13 -15 -13q-14 0 -16 13l-37 220
l-0.5 5l-0.5 5v252z" />
    <glyph glyph-name="quotedbl" unicode="&#x22;" horiz-adv-x="387" 
d="M228 705q0 18 13.5 31.5t32.5 13.5q18 0 31.5 -13.5t13.5 -31.5v-40q0 -1 -1 -8.5t-1 -8.5l-16 -56q-2 -9 -10.5 -15t-16.5 -6q-9 0 -17.5 6t-10.5 15l-16 56q0 1 -1 8.5t-1 8.5v40zM79 705q0 18 13.5 31.5t32.5 13.5q18 0 31.5 -13.5t13.5 -31.5v-40q0 -1 -1 -8.5
t-1 -8.5l-16 -56q-2 -9 -10.5 -15t-16.5 -6q-9 0 -17.5 6t-10.5 15l-16 56q0 1 -1 8.5t-1 8.5v40z" />
    <glyph glyph-name="numbersign" unicode="#" horiz-adv-x="668" 
d="M481 743q1 7 8 7t6 -7l-15 -117q-4 -28 14 -48.5t47 -20.5h70q15 0 24.5 -11t7.5 -26t-14.5 -26t-27.5 -11h-86q-22 0 -40 -15.5t-21 -38.5l-12 -93q-4 -28 14 -48.5t47 -20.5h62q15 0 24.5 -11t7.5 -26t-14.5 -26t-27.5 -11h-78q-22 0 -40 -15.5t-21 -38.5l-17 -132
q-1 -7 -8 -7t-6 7l15 117q4 28 -14 48.5t-47 20.5h-66q-22 0 -40 -15.5t-21 -38.5l-17 -132q-1 -7 -8 -7t-6 7l15 117q4 28 -14 48.5t-47 20.5h-81q-15 0 -24.5 11t-7.5 26t14.5 26t27.5 11h97q22 0 40 15.5t21 38.5l12 93q4 28 -14 48.5t-47 20.5h-73q-15 0 -24.5 11
t-7.5 26t14.5 26t27.5 11h89q22 0 40 15.5t21 38.5l17 132q1 7 8 7t6 -7l-15 -117q-4 -28 14 -48.5t47 -20.5h66q22 0 40 15.5t21 38.5zM311 483q-22 0 -40 -15.5t-21 -38.5l-12 -93q-4 -28 14 -48.5t47 -20.5h66q22 0 40 15.5t21 38.5l12 93q4 28 -14 48.5t-47 20.5h-66z
" />
    <glyph glyph-name="dollar" unicode="$" horiz-adv-x="598" 
d="M323 797q0 12 8 20t20 8t20 -8t8 -20v-48q0 -9 6.5 -21.5t13.5 -16.5q58 -37 115 -97q3 -4 -2 -8q-3 -2 -6.5 -1t-5.5 3q-50 52 -101 86q-8 5 -13.5 1t-5.5 -13v-217q0 -15 14 -34.5t28 -25.5q139 -61 139 -196q0 -79 -37 -133.5t-110 -75.5q-12 -3 -23 -16t-11 -26v-5
q0 -12 -8.5 -20.5t-20.5 -8.5q-13 0 -21.5 8.5t-8.5 20.5v26q0 11 -11 12q-23 1 -43 6q-4 1 -7.5 -1.5t-3.5 -6.5v-36q0 -12 -8.5 -20.5t-20.5 -8.5q-13 0 -21.5 8.5t-8.5 20.5v40q0 5 -3 12t-7.5 15t-9.5 14t-9 9q-32 23 -58.5 55t-46.5 75q-3 5 1 8l3 2l3 2q3 2 5 -3
q38 -77 96 -123q9 -6 17.5 -2.5t8.5 14.5v244q0 6 -4.5 15.5t-10.5 18.5t-13.5 16.5t-14.5 10.5q-111 57 -111 170q0 69 32 119t88 75q11 4 22.5 20t11.5 28v8q0 12 8.5 20.5t21.5 8.5q12 0 20.5 -8.5t8.5 -20.5v-25q0 -12 11 -12q22 -1 44 -7q12 -3 12 10v35zM308 437
q12 -2 12 10l1 274q0 12 -12 16q-22 6 -43 7q-11 0 -11 -11v-273q0 -10 10 -13q19 -5 43 -10zM180 487q6 -5 11 -2.5t5 10.5v198q0 7 -4.5 9.5t-8.5 -3.5q-36 -52 -36 -143q0 -41 33 -69zM266 336q-11 3 -11 -8v-303q0 -11 11 -14q21 -6 43 -8q11 -1 11 10v302q0 10 -11 13
q-10 2 -21 4zM405 292q-10 7 -17.5 2t-7.5 -17v-234q0 -13 6 -18.5t16 3.5q29 24 43.5 69.5t14.5 106.5q0 54 -55 88z" />
    <glyph glyph-name="percent" unicode="%" horiz-adv-x="764" 
d="M584 -2q35 0 53 39t18 104t-18 104t-53 39q-36 0 -54 -39t-18 -104t18 -104t54 -39zM584 -9q-61 0 -92 41t-31 109t31 109t92 41t92 -41t31 -109t-31 -109t-92 -41zM180 466q36 0 54 39t18 104t-18 104t-54 39q-35 0 -53 -39t-18 -104t18 -104t53 -39zM180 459
q-61 0 -92 41t-31 109t31 109t92 41t92 -41t31 -109t-31 -109t-92 -41zM176 0q-6 0 -8.5 4.5t0.5 9.5l396 722q3 5 10.5 9.5t13.5 4.5t8.5 -4.5t-0.5 -9.5l-396 -722q-3 -5 -10.5 -9.5t-13.5 -4.5z" />
    <glyph glyph-name="ampersand" unicode="&#x26;" horiz-adv-x="683" 
d="M622 8q1 -6 -4 -8q-42 -16 -79.5 -6.5t-68.5 32.5q-7 5 -22 4.5t-23 -5.5q-56 -43 -130 -43q-57 0 -104 14.5t-80.5 40.5t-52 63t-18.5 82q0 41 39.5 86t106.5 82q8 4 9 13t-4 17q-24 29 -37.5 68.5t-13.5 80.5q0 75 46.5 121t124.5 46q73 0 117 -40t44 -106
q0 -26 -47.5 -65t-127.5 -79q-8 -4 -1 -13q10 -14 29.5 -40.5t44 -60t52 -71t52.5 -72.5q8 -11 17 -10t14 13q16 41 24 89.5t7 104.5q0 7 6 6q6 -2 6 -9q1 -115 -34 -201q-4 -10 -2 -29.5t8 -28.5q25 -35 38 -56t12 -24l2 -3l-1 4l2 -2q21 1 42 9q6 2 7 -4zM265 429
q16 -19 36 -7q42 24 66.5 58t24.5 67q0 63 -22.5 101t-59.5 38q-39 0 -62.5 -40.5t-23.5 -107.5q0 -28 11 -57t30 -52zM222 345q-8 11 -19 4q-30 -20 -48.5 -61t-18.5 -92q0 -45 11.5 -81.5t32.5 -62.5t50.5 -40.5t65.5 -14.5q74 0 130 47q6 5 5 12t-6 13q-15 17 -30.5 37
t-31.5 42q-52 71 -88.5 122.5t-52.5 74.5z" />
    <glyph glyph-name="quotesingle" unicode="'" horiz-adv-x="219" 
d="M79 705q0 18 13.5 31.5t32.5 13.5q18 0 31.5 -13.5t13.5 -31.5v-40q0 -1 -1 -8.5t-1 -8.5l-16 -56q-2 -9 -10.5 -15t-16.5 -6q-9 0 -17.5 6t-10.5 15l-16 56q0 1 -1 8.5t-1 8.5v40z" />
    <glyph glyph-name="parenleft" unicode="(" horiz-adv-x="356" 
d="M285 778q7 7 17.5 7t17.5 -7q6 -7 6 -16.5t-7 -16.5q-77 -71 -116 -174t-39 -236q0 -258 155 -400q7 -7 7 -16.5t-6 -16.5q-7 -7 -17.5 -7t-17.5 7q-181 166 -181 433q0 277 181 443z" />
    <glyph glyph-name="parenright" unicode=")" horiz-adv-x="324" 
d="M71 -98q-7 -7 -17.5 -7t-17.5 7q-6 7 -6 16.5t7 16.5q77 71 116 174t39 236q0 258 -155 400q-7 7 -7 16.5t6 16.5q7 7 17.5 7t17.5 -7q181 -166 181 -433q0 -277 -181 -443z" />
    <glyph glyph-name="asterisk" unicode="*" horiz-adv-x="386" 
d="M301 667q13 8 27 2.5t19 -20.5q5 -14 -3 -26t-23 -14l-40 -3q-12 -2 -20 -8.5t-11 -15.5t-0.5 -18.5t11.5 -17.5l31 -28q11 -10 10.5 -24t-12.5 -23q-13 -10 -26.5 -6t-19.5 18l-17 37q-5 11 -13.5 16.5t-18.5 5.5t-18.5 -5.5t-13.5 -16.5l-17 -37q-6 -14 -19.5 -18
t-25.5 6q-13 9 -13.5 23t10.5 24l30 27q9 8 11.5 18t-0.5 19t-11 15.5t-20 7.5l-41 4q-15 1 -23 13t-3 27q5 14 18 19.5t27 -2.5l35 -21q10 -6 20.5 -5.5t18 6t11.5 15t1 21.5l-9 40q-3 15 6 26t24 11t24 -11t6 -26l-9 -39q-3 -12 1 -21.5t11.5 -15t17.5 -6t21 5.5z" />
    <glyph glyph-name="plus" unicode="+" horiz-adv-x="590" 
d="M265 171q0 25 -18 43t-43 18h-151q-12 0 -20 8t-8 20t8 20t20 8h151q25 0 43 18t18 43v141q0 12 9 21t21 9t21 -9t9 -21v-141q0 -25 18 -43t43 -18h151q12 0 20 -8t8 -20t-8 -20t-20 -8h-151q-25 0 -43 -18t-18 -43v-141q0 -12 -9 -21t-21 -9t-21 9t-9 21v141z" />
    <glyph glyph-name="comma" unicode="," horiz-adv-x="199" 
d="M50 50q0 20 14.5 34.5t35.5 14.5q20 0 34.5 -14.5t14.5 -34.5v-50q0 -52 -17 -76.5t-57 -30.5q-12 -1 -18.5 5.5t-6.5 17.5v10q0 4 4.5 9t8.5 7q21 5 25 38q2 20 -18 20q-9 0 -14.5 5.5t-5.5 14.5v30z" />
    <glyph glyph-name="hyphen" unicode="-" horiz-adv-x="365" 
d="M88 225q-16 0 -27 11t-11 27t11 27t27 11h189q16 0 27 -11t11 -27t-11 -27t-27 -11h-189z" />
    <glyph glyph-name="period" unicode="." horiz-adv-x="199" 
d="M100 0q-21 0 -35.5 14.5t-14.5 35.5q0 20 14.5 34.5t35.5 14.5q20 0 34.5 -14.5t14.5 -34.5q0 -21 -14.5 -35.5t-34.5 -14.5z" />
    <glyph glyph-name="slash" unicode="/" horiz-adv-x="300" 
d="M20 0q-8 0 -12 5.5t-1 13.5l246 712q3 8 11 13.5t16 5.5t12 -5.5t1 -13.5l-246 -712q-3 -8 -11 -13.5t-16 -5.5z" />
    <glyph glyph-name="zero" unicode="0" horiz-adv-x="700" 
d="M164 375q0 -186 47 -279t141 -93t141 93t47 279q0 88 -13 157t-37 117t-59 73t-79 25t-79 -25t-59 -73t-37 -117t-13 -157zM59 375q0 91 20 162t57.5 120.5t92 75.5t123.5 26t123.5 -26t92 -75.5t57.5 -120.5t20 -162q0 -191 -73.5 -287.5t-219.5 -96.5t-219.5 96.5
t-73.5 287.5z" />
    <glyph glyph-name="one" unicode="1" horiz-adv-x="410" 
d="M310 50q0 -21 -14.5 -35.5t-35.5 -15.5q-21 0 -35.5 14.5t-14.5 35.5v536q0 17 -8.5 28t-20.5 16t-26 1.5t-24 -15.5l-74 -84q-1 -2 -3.5 -1t-2.5 4q0 2 2.5 8t3.5 8l156 179q5 7 21 14t25 7h12q16 0 27.5 -11.5t11.5 -27.5v-661z" />
    <glyph glyph-name="two" unicode="2" horiz-adv-x="589" 
d="M136 0q-27 0 -44 18.5t-14 46.5q4 52 18 89t38 64t59 47.5t82 39.5q39 16 70.5 37t54 45t35 50t12.5 52q0 45 -12 82.5t-34.5 63.5t-54 40.5t-70.5 14.5q-70 0 -112.5 -42.5t-42.5 -112.5q0 -34 10 -68t27 -57q4 -5 -2 -8q-7 -4 -11 1q-18 25 -28.5 61t-10.5 71
q0 50 15.5 91.5t44 71t68.5 45.5t89 16t88.5 -16t68 -46t44 -71.5t15.5 -92.5q0 -30 -17.5 -61.5t-50 -61.5t-77.5 -58t-101 -50q-72 -29 -116 -62t-65 -89q-10 -25 3 -39t39 -14h351q20 0 34.5 -14.5t14.5 -34.5t-14.5 -34.5t-34.5 -14.5h-369z" />
    <glyph glyph-name="three" unicode="3" horiz-adv-x="599" 
d="M58 190q-5 26 8.5 40.5t39.5 14.5q19 0 36 -16t19 -36q9 -86 47 -137t96 -51q32 0 58 15t44.5 42t28.5 65.5t10 85.5q0 67 -45.5 108t-120.5 41h-30q-12 0 -21 9t-9 21v9q0 16 11.5 27.5t27.5 11.5h41q60 0 96 32t36 85q0 86 -34.5 138t-91.5 52q-45 0 -75 -41.5
t-39 -112.5q-2 -18 -18.5 -35.5t-34.5 -17.5q-25 0 -38 11.5t-9 35.5q14 79 71.5 125.5t143.5 46.5q49 0 89.5 -14t69 -39.5t44 -61t15.5 -79.5q0 -45 -23 -81.5t-64 -59.5q-7 -4 -9 -15t6 -15q56 -28 88 -76.5t32 -108.5q0 -49 -18 -89.5t-51 -69t-79 -44t-102 -15.5
q-100 0 -165 54t-81 145z" />
    <glyph glyph-name="four" unicode="4" horiz-adv-x="595" 
d="M25 211q0 1 1.5 5.5t1.5 5.5l338 501q6 9 22.5 18t28.5 9h7q16 0 27.5 -11.5t11.5 -27.5v-436q0 -23 16.5 -39.5t39.5 -16.5h49q7 0 7 -7t-7 -7h-49q-23 0 -39.5 -16.5t-16.5 -39.5v-98q0 -21 -15 -36t-36 -15t-36 15t-15 36v93q0 25 -18 43t-43 18h-269q-6 0 -6 6z
M105 315q-12 -17 -12.5 -34t6.5 -30.5t22 -22.5t34 -9h145q25 0 43 18t18 43v269v4v4l10 82q1 8 -3 14t-10.5 8t-13.5 0.5t-11 -8.5z" />
    <glyph glyph-name="five" unicode="5" horiz-adv-x="595" 
d="M116 342q-8 2 -7 10l46 345q3 22 21 37.5t40 15.5h263q20 0 33.5 -14.5t12.5 -34.5q-2 -20 -17.5 -34.5t-35.5 -14.5h-246q-21 0 -39 -15t-21 -37l-24 -147q-1 -5 4 -8.5t9 -0.5q28 18 67.5 28.5t82.5 10.5q56 0 102 -18t79 -50.5t51 -78t18 -101.5q0 -55 -18 -100
t-51 -77t-79 -49.5t-102 -17.5q-100 0 -165 54t-81 145q-5 26 8.5 40.5t39.5 14.5q19 0 36 -16t19 -36q9 -86 47 -137t96 -51q32 0 58 16.5t44.5 46.5t28.5 72.5t10 94.5q0 75 -44 120t-116 45q-47 0 -90 -15t-68 -40q-5 -5 -12 -3z" />
    <glyph glyph-name="six" unicode="6" horiz-adv-x="591" 
d="M168 418q0 -5 5.5 -9t8.5 0q24 31 66.5 49t93.5 17q53 0 97 -16.5t75.5 -46.5t48.5 -72.5t17 -94.5q0 -57 -18 -104t-51 -80t-79 -51.5t-103 -18.5q-133 0 -199.5 95t-66.5 284q0 87 16.5 159t49.5 123t82.5 79t114.5 28q76 0 134 -36t79 -96q2 -6 -3 -10q-6 -4 -8 2
q-20 58 -75.5 93t-126.5 35q-37 0 -66 -23.5t-48.5 -66.5t-30.5 -104t-13 -135zM339 465q-60 0 -105.5 -23.5t-62.5 -63.5q-1 -3 -2 -14t-1 -13q4 -173 44.5 -260t116.5 -87q32 0 58 17.5t45 49t29 76.5t10 99q0 49 -9.5 89.5t-27 69t-41.5 44t-54 15.5v1z" />
    <glyph glyph-name="seven" unicode="7" horiz-adv-x="490" 
d="M30 701q0 20 14.5 34.5t34.5 14.5h352q20 0 34.5 -14.5t14.5 -34.5v-23q0 -4 -3 -11t-6.5 -15t-7.5 -14.5t-7 -9.5q-52 -55 -89.5 -115t-62 -130t-37 -153.5t-15.5 -183.5q0 -23 -16.5 -34.5t-39.5 -11.5q-25 0 -41 14t-14 39q4 66 18 127t40.5 119.5t65 117t91.5 119.5
q14 16 17 36t-3 38t-20 30t-35 12h-236q-20 0 -34.5 14.5t-14.5 34.5z" />
    <glyph glyph-name="eight" unicode="8" horiz-adv-x="629" 
d="M186 556q0 -67 32 -108t101 -41q60 0 96.5 35.5t36.5 113.5q0 87 -33.5 139t-99.5 52q-60 0 -96.5 -48t-36.5 -143zM93 563q0 97 62 145.5t164 48.5q112 0 169 -53.5t57 -141.5q0 -62 -32.5 -100t-90.5 -54q-4 -1 -6 -9t2 -9q81 -19 118.5 -68t37.5 -120q0 -55 -18.5 -95
t-52 -66t-80.5 -38.5t-104 -12.5q-66 0 -114 15.5t-79.5 43t-46.5 66.5t-15 87q0 75 38 120.5t106 65.5q4 1 6 11t-3 11q-61 19 -89.5 59t-28.5 95v-1zM173 209q0 -94 35 -151t111 -57q66 0 106 50t40 159q0 82 -35 131.5t-111 49.5q-66 0 -106 -43.5t-40 -138.5z" />
    <glyph glyph-name="nine" unicode="9" horiz-adv-x="591" 
d="M290 275q-54 0 -98 16.5t-75.5 46.5t-48.5 72.5t-17 94.5q0 57 18 104t51 80t79 51.5t103 18.5q133 0 199.5 -95t66.5 -284q0 -87 -16.5 -159t-49.5 -123t-82.5 -79t-114.5 -28q-76 0 -134 36t-79 96q-2 6 4 10q5 4 7 -2q20 -58 75.5 -93t126.5 -35q37 0 66 23.5
t48.5 66.5t30.5 104t13 135q0 5 -5.5 9t-8.5 0q-24 -31 -66.5 -48.5t-93.5 -17.5h1zM292 287q60 0 105.5 23t62.5 63q1 3 2 14t1 13q-4 173 -44.5 260t-116.5 87q-32 0 -58 -17.5t-45 -49t-29 -76.5t-10 -99q0 -49 9.5 -89.5t27 -69t41.5 -44t54 -15.5z" />
    <glyph glyph-name="colon" unicode=":" horiz-adv-x="199" 
d="M100 421q-21 0 -35.5 14.5t-14.5 35.5q0 20 14.5 34.5t35.5 14.5q20 0 34.5 -14.5t14.5 -34.5q0 -21 -14.5 -35.5t-34.5 -14.5zM100 0q-21 0 -35.5 14.5t-14.5 35.5q0 20 14.5 34.5t35.5 14.5q20 0 34.5 -14.5t14.5 -34.5q0 -21 -14.5 -35.5t-34.5 -14.5z" />
    <glyph glyph-name="semicolon" unicode=";" horiz-adv-x="199" 
d="M100 421q-21 0 -35.5 14.5t-14.5 35.5q0 20 14.5 34.5t35.5 14.5q20 0 34.5 -14.5t14.5 -34.5q0 -21 -14.5 -35.5t-34.5 -14.5zM50 50q0 20 14.5 34.5t35.5 14.5q20 0 34.5 -14.5t14.5 -34.5v-50q0 -52 -17 -76.5t-57 -30.5q-12 -1 -18.5 5.5t-6.5 17.5v10q0 4 4.5 9
t8.5 7q21 5 25 38q2 20 -18 20q-9 0 -14.5 5.5t-5.5 14.5v30z" />
    <glyph glyph-name="less" unicode="&#x3c;" horiz-adv-x="555" 
d="M460 474q13 6 24 -1t11 -22t-11 -31t-24 -22l-197 -81q-20 -9 -30 -24.5t-10 -32.5t10 -32.5t30 -24.5l197 -81q13 -6 24 -22t11 -31t-11 -22t-24 -1l-384 166q-12 6 -21.5 20.5t-9.5 27.5t9.5 27.5t21.5 20.5z" />
    <glyph glyph-name="equal" unicode="=" horiz-adv-x="604" 
d="M39 165q0 12 8 20t20 8h459q12 0 20 -8t8 -20t-8 -20t-20 -8h-459q-12 0 -20 8t-8 20zM39 365q0 12 8 20t20 8h459q12 0 20 -8t8 -20t-8 -20t-20 -8h-459q-12 0 -20 8t-8 20z" />
    <glyph glyph-name="greater" unicode="&#x3e;" horiz-adv-x="555" 
d="M292 203q20 9 30 24.5t10 32.5t-10 32.5t-30 24.5l-197 81q-13 6 -24 22t-11 31t11 22t24 1l384 -166q12 -6 21.5 -20.5t9.5 -27.5t-9.5 -27.5t-21.5 -20.5l-384 -166q-13 -6 -24 1t-11 22t11 31t24 22z" />
    <glyph glyph-name="question" unicode="?" horiz-adv-x="565" 
d="M274 0q-21 0 -35.5 14.5t-14.5 35.5q0 20 14.5 34.5t35.5 14.5h1q20 0 34.5 -14.5t14.5 -34.5q0 -21 -14.5 -35.5t-34.5 -14.5h-1zM65 551q-22 4 -32 16.5t-4 34.5q22 72 88.5 114.5t162.5 42.5q53 0 96.5 -14.5t74 -41.5t47.5 -64.5t17 -83.5q0 -66 -26 -108.5
t-88 -74.5q-23 -12 -38 -23t-24.5 -25.5t-14 -33t-6.5 -45.5q-1 -17 -14 -30t-30 -13q-19 0 -31.5 11t-11.5 29q1 42 6.5 71t17.5 50t32 37t51 32q45 23 63.5 51.5t18.5 71.5q0 60 -38.5 96.5t-101.5 36.5q-59 0 -101.5 -27.5t-59.5 -74.5q-5 -13 -22 -25.5t-31 -9.5h-1z
" />
    <glyph glyph-name="at" unicode="@" horiz-adv-x="1202" 
d="M1018 -132q1 1 4.5 2t4.5 -1q1 -1 2 -1.5t0 -1.5q-37 -26 -85 -47t-101 -36t-109.5 -23.5t-111.5 -8.5q-127 0 -231 37t-178.5 105t-115 163.5t-40.5 212.5t40.5 212.5t114 163.5t177 105t229.5 37q119 0 216.5 -31t166.5 -87.5t107 -135.5t38 -176q0 -81 -17.5 -147
t-49.5 -113t-76.5 -73t-99.5 -26q-67 0 -111 33.5t-57 91.5q-2 5 -11.5 4.5t-11.5 -5.5q-25 -49 -67.5 -77t-97.5 -28q-56 0 -100 18t-72.5 51t-41 79.5t-5.5 103.5q6 54 29 98.5t59 76t83.5 49t102.5 17.5q50 0 84.5 -28.5t48.5 -92.5q1 -3 5 -3.5t4 2.5q5 44 10.5 77.5
t12.5 33.5h73l2 -1l1 -3l2 -1q-3 -7 -6 -23t-6 -37.5t-5.5 -46.5t-4.5 -50q-4 -59 -8 -129q-6 -45 -2 -82.5t16.5 -64t32.5 -41t47 -14.5q38 0 69.5 25t54 71t34.5 111t12 144q0 95 -33 172.5t-93.5 133t-145 85.5t-188.5 30q-111 0 -202 -36.5t-155.5 -103.5t-100 -161
t-35.5 -208t36 -208t101 -161t156.5 -103.5t203.5 -36.5q53 0 107.5 7.5t106 22t98 34.5t83.5 44zM737 301l0.5 2t0.5 3q-2 102 -39 147t-99 45q-34 0 -64 -16.5t-53.5 -46.5t-40 -72.5t-22.5 -93.5q-6 -54 0 -98t22.5 -75.5t43.5 -49t62 -17.5q36 0 67.5 13t55.5 36.5
t39.5 56.5t20.5 73l1.5 27t4.5 66z" />
    <glyph glyph-name="A" unicode="A" horiz-adv-x="748" 
d="M314 700l9 25l5 13q2 4 7.5 8t10.5 4h56q16 0 33.5 -12t23.5 -27l259 -660q8 -20 -2.5 -35.5t-31.5 -15.5h-42q-5 0 -10.5 4t-7.5 9l-5 12l-6 17l-66 167q-6 15 -23.5 27t-33.5 12h-295q-16 0 -33.5 -12t-23.5 -27l-66 -167l-6 -17l-7 -18q-3 -7 -11 -7t-5 7l270 693h1z
M191 344q-13 -33 4.5 -58.5t52.5 -25.5h190q35 0 52.5 25.5t4.5 58.5l-95 245q-8 20 -24 30.5t-33 10.5t-33 -10.5t-24 -30.5z" />
    <glyph glyph-name="B" unicode="B" horiz-adv-x="693" 
d="M483 425q-3 -1 -2.5 -8.5t3.5 -8.5q81 -16 127.5 -66t46.5 -124q0 -59 -15 -100.5t-48 -67.5t-85.5 -38t-126.5 -12h-228q-25 0 -43 18t-18 43v628q0 25 18 43t43 18h190q74 0 126.5 -11t85.5 -34.5t48 -61t15 -91.5q0 -45 -36.5 -78t-100.5 -49zM195 480q0 -26 18 -44
t44 -18l103 1q70 0 112.5 34t42.5 91q0 105 -38.5 149.5t-130.5 44.5h-90q-25 0 -43 -18t-18 -43v-197zM195 73q0 -25 18 -43t43 -18h123q92 0 130.5 50t38.5 167q0 81 -39.5 129.5t-105.5 48.5h-147q-25 0 -43 -18t-18 -43v-273z" />
    <glyph glyph-name="C" unicode="C" horiz-adv-x="701" 
d="M666 172q2 3 4.5 4t5.5 0q2 -2 2.5 -6t-1.5 -7q-18 -39 -46 -70.5t-61.5 -54t-72 -35t-78.5 -12.5q-81 0 -147.5 31t-113.5 83.5t-73 122t-26 147.5t26 147.5t73 122t113.5 83.5t147.5 31q35 0 70.5 -12.5t69.5 -35t64 -54t53 -70.5q2 -3 2 -7t-2 -5q-3 -2 -6 -1t-5 4
q-23 38 -52 69t-61.5 53.5t-66 34.5t-66.5 12q-57 0 -103 -30t-79 -81t-51 -118.5t-18 -142.5t18 -142.5t51 -118.5t79 -81t103 -30q38 0 74.5 12t69 34.5t59 53.5t44.5 69z" />
    <glyph glyph-name="D" unicode="D" horiz-adv-x="765" 
d="M350 0h-195q-25 0 -43 18t-18 43v628q0 25 18 43t43 18h165q194 0 292 -94t98 -281q0 -192 -88 -283.5t-272 -91.5zM195 73q0 -25 18 -43t43 -18h93q129 0 190.5 88.5t61.5 274.5q0 181 -70 272t-210 91h-65q-25 0 -43 -18t-18 -43v-604z" />
    <glyph glyph-name="E" unicode="E" horiz-adv-x="620" 
d="M564 12q6 0 6 -6t-6 -6h-409q-25 0 -43 18t-18 43v628q0 25 18 43t43 18h394q6 0 6 -6t-6 -6h-293q-25 0 -43 -18t-18 -43v-223q0 -25 18 -43t43 -18h273q6 0 6 -6t-6 -6h-273q-25 0 -43 -18t-18 -43v-247q0 -25 18 -43t43 -18h308z" />
    <glyph glyph-name="F" unicode="F" horiz-adv-x="585" 
d="M519 393q6 0 6 -6t-6 -6h-263q-25 0 -43 -18t-18 -43v-269q0 -22 -14.5 -36.5t-35.5 -14.5q-22 0 -36.5 14.5t-14.5 36.5v638q0 25 18 43t43 18h394q6 0 6 -6t-6 -6h-293q-25 0 -43 -18t-18 -43v-223q0 -25 18 -43t43 -18h263z" />
    <glyph glyph-name="G" unicode="G" horiz-adv-x="752" 
d="M468 398q-6 0 -6 6q-1 6 5 6h178q25 0 43 -18t18 -43v-216q0 -11 -8.5 -27t-16.5 -22q-57 -43 -118.5 -68t-119.5 -25q-87 0 -158 27.5t-121.5 78t-78 121.5t-27.5 157t27.5 157t78 121.5t121.5 78t158 27.5q49 0 91 -26.5t73 -58.5q37 -38 67 -86l3 -4q3 -5 -1 -8l-1 -1
q-3 -2 -6 -1t-5 4q-22 38 -49.5 69t-56 53.5t-58 34.5t-56.5 12q-62 0 -113 -27t-87 -75.5t-56 -117t-20 -152.5t20 -152.5t56 -117t87 -75.5t113 -27q53 0 111.5 24.5t112.5 65.5q8 6 16 22t8 26v196q0 25 -18 43t-43 18h-163z" />
    <glyph glyph-name="H" unicode="H" horiz-adv-x="751" 
d="M666 50q0 -21 -14.5 -35.5t-35.5 -14.5q-22 0 -36.5 14.5t-14.5 36.5v277q0 25 -18 43t-43 18h-248q-25 0 -43 -18t-18 -43v-277q0 -22 -14.5 -36.5t-35.5 -14.5q-22 0 -36.5 14.5t-14.5 36.5v649q0 21 14.5 35.5t36.5 14.5q21 0 35.5 -14.5t14.5 -35.5v-238
q0 -25 18 -43t43 -18h248q25 0 43 18t18 43v238q0 21 14.5 35.5t36.5 14.5q21 0 35.5 -14.5t14.5 -35.5v-650z" />
    <glyph glyph-name="I" unicode="I" horiz-adv-x="274" 
d="M189 51q0 -21 -15 -36t-36 -15t-36 15t-15 36v648q0 21 15 36t36 15t36 -15t15 -36v-648z" />
    <glyph glyph-name="J" unicode="J" horiz-adv-x="538" 
d="M56 250q0 12 9 23t22 13l45 8q10 2 17.5 -4.5t7.5 -16.5v-26q0 -126 23.5 -184t74.5 -58q48 0 72.5 59t24.5 156v480q0 21 14.5 35.5t36.5 14.5q21 0 35.5 -14.5t14.5 -35.5v-480q0 -51 -12.5 -93.5t-37.5 -72.5t-62 -46.5t-86 -16.5q-103 0 -151 54.5t-48 172.5v32z" />
    <glyph glyph-name="K" unicode="K" horiz-adv-x="655" 
d="M640 8q2 -3 0.5 -5.5t-5.5 -2.5h-77q-13 0 -30 9.5t-23 19.5l-188 310q-14 22 -38 24.5t-41 -17.5l-29 -34q-4 -4 -9.5 -19t-5.5 -21v-221q0 -22 -14.5 -36.5t-35.5 -14.5q-22 0 -36.5 14.5t-14.5 36.5v649q0 21 14.5 35.5t36.5 14.5q21 0 35.5 -14.5t14.5 -35.5v-220
q0 -22 11.5 -37.5t28 -21.5t35 -2t33.5 21l226 262q1 1 7.5 8.5t13.5 16t13 15.5t7 8q2 2 4.5 1t5.5 -1q2 0 3.5 -2.5t-0.5 -4.5l-30 -34l-2 -3l-2 -3l-2 -3l-2 -3l-161 -184q-11 -14 -13 -35.5t7 -36.5l237 -391q7 -10 13.5 -20.5t12.5 -21.5z" />
    <glyph glyph-name="L" unicode="L" horiz-adv-x="544" 
d="M508 12q6 0 6 -6t-6 -6h-360q-25 0 -43 18t-18 43v638q0 21 15 36t36 15t36 -15t15 -36v-626q0 -25 18 -43t43 -18h258z" />
    <glyph glyph-name="M" unicode="M" horiz-adv-x="816" 
d="M130 8q0 -8 -7 -8q-8 0 -8 8v690q0 22 15 37t37 15h5q19 0 36.5 -13.5t22.5 -31.5l129 -467q7 -23 23.5 -34.5t35.5 -11.5t36 11.5t24 33.5l131 468q5 18 23 31.5t37 13.5h7q22 0 38 -16t16 -38v-646q0 -21 -14.5 -35.5t-34.5 -14.5q-21 0 -35.5 14.5t-14.5 35.5v316
q0 21 -13.5 33t-30.5 14t-33.5 -6t-21.5 -27l-95 -337q-5 -17 -22 -30t-35 -13t-35 13t-22 30l-95 335q-5 20 -21.5 28t-33.5 5.5t-30.5 -14.5t-13.5 -32v-357z" />
    <glyph glyph-name="N" unicode="N" horiz-adv-x="663" 
d="M130 8q0 -8 -7 -8q-8 0 -8 8v686q0 23 16.5 39.5t40.5 16.5h16q15 0 32.5 -11t23.5 -25l202 -442q10 -22 29.5 -29.5t39 -3.5t34 19.5t14.5 39.5v445q0 7 8 7q7 0 7 -7v-682q0 -26 -17.5 -43.5t-42.5 -17.5h-21q-15 0 -32.5 11t-23.5 25l-194 424q-10 22 -29.5 30
t-39 3.5t-34 -19.5t-14.5 -40v-426z" />
    <glyph glyph-name="O" unicode="O" horiz-adv-x="814" 
d="M173 375q0 -84 17 -152.5t48.5 -117t75.5 -75.5t98 -27t97.5 27t75 75.5t48.5 117t17 152.5q0 80 -18 148t-50 117.5t-75.5 78t-94.5 28.5t-94.5 -28.5t-76 -78t-50.5 -117.5t-18 -148zM64 375q0 82 26.5 152.5t73 122t110.5 80.5t138 29t137.5 -29t110 -80.5t73 -122
t26.5 -152.5q0 -86 -25 -157t-70.5 -121.5t-109.5 -78t-142 -27.5t-142.5 27.5t-110 78t-70.5 121.5t-25 157z" />
    <glyph glyph-name="P" unicode="P" horiz-adv-x="624" 
d="M195 51q0 -22 -14.5 -36.5t-35.5 -14.5q-22 0 -36.5 14.5t-14.5 36.5v638q0 25 18 43t43 18h198q236 0 236 -225q0 -202 -236 -202h-97q-25 0 -43 -18t-18 -43v-211zM195 396q0 -25 18 -43t43 -18h98q134 0 134 190q0 213 -136 213h-96q-25 0 -43 -18t-18 -43v-281z" />
    <glyph glyph-name="Q" unicode="Q" horiz-adv-x="814" 
d="M173 375q0 -84 17 -152.5t48.5 -117t75.5 -75.5t98 -27q40 0 77 16q6 2 7 7.5t-4 10.5l-52 47q-4 4 0 9q4 4 9 -1q25 -22 61 -42q7 -4 14.5 -4.5t12.5 4.5q53 46 83 129.5t30 195.5q0 80 -18 148t-50 117.5t-75.5 78t-94.5 28.5t-94.5 -28.5t-76 -78t-50.5 -117.5
t-18 -148zM64 375q0 82 26 152.5t73 122t110.5 80.5t137.5 29t137.5 -29t110 -80.5t73 -122t26.5 -152.5q0 -114 -42.5 -199.5t-117.5 -133.5q-10 -6 -9.5 -18t11.5 -17q41 -17 70.5 -26t31.5 -10q6 -2 4.5 -4.5t-6 -5.5t-11.5 -7t-11 -9l-12 -12l-21 -23q-13 10 -29 22
q-15 12 -33.5 27.5t-42.5 35.5q-4 3 -16 6t-18 2q-45 -12 -94 -12q-78 0 -142.5 27.5t-110 78t-70.5 121.5t-25 157z" />
    <glyph glyph-name="R" unicode="R" horiz-adv-x="624" 
d="M532 0q-14 0 -31 10.5t-23 22.5l-137 255q-10 19 0 35.5t32 16.5h21q14 0 31 -10.5t23 -22.5l142 -265q1 -3 4.5 -9.5t7.5 -13.5t7 -12.5t3 -6.5q3 -6 -4.5 -3t-15.5 3h-60zM195 51q0 -22 -14.5 -36.5t-35.5 -14.5q-22 0 -36.5 14.5t-14.5 36.5v638q0 25 18 43t43 18h198
q236 0 236 -225q0 -182 -236 -182h-97q-25 0 -43 -18t-18 -43v-231zM195 416q0 -25 18 -43t43 -18h97q135 0 135 170q0 213 -136 213h-96q-25 0 -43 -18t-18 -43v-261z" />
    <glyph glyph-name="S" unicode="S" horiz-adv-x="598" 
d="M512 617q2 -2 3 -6t-1 -5q-3 -2 -6.5 -1t-5.5 3q-64 68 -126 102.5t-113 34.5t-82.5 -51.5t-31.5 -136.5q0 -91 165 -120q124 -22 186.5 -79t62.5 -148q0 -49 -14.5 -89.5t-44 -69t-72.5 -44.5t-100 -16q-81 0 -151.5 45t-115.5 133q0 2 -1 6t1 6l3 2l3 2q1 1 1.5 2
t1.5 0q42 -91 111 -137t147 -46q65 0 97.5 55.5t32.5 146.5q0 99 -176 129q-242 42 -242 211q0 48 16 87.5t44.5 67t69 43t89.5 15.5q54 0 119 -35.5t130 -106.5z" />
    <glyph glyph-name="T" unicode="T" horiz-adv-x="595" 
d="M579 750q6 0 6 -6t-6 -6h-170q-25 0 -43 -18t-18 -43v-626q0 -22 -14.5 -36.5t-35.5 -14.5q-22 0 -36.5 14.5t-14.5 36.5v626q0 25 -18 43t-43 18h-170q-6 0 -6 6t6 6h563z" />
    <glyph glyph-name="U" unicode="U" horiz-adv-x="683" 
d="M588 743q0 7 8 7q7 0 7 -7v-449q0 -151 -65 -227t-193 -76t-193 75.5t-65 224.5v409q0 21 14.5 35.5t36.5 14.5q21 0 35.5 -14.5t14.5 -35.5v-392q0 -151 39.5 -227t117.5 -76q121 0 182 73t61 219v446z" />
    <glyph glyph-name="V" unicode="V" horiz-adv-x="615" 
d="M555 750l7 1q7 0 5 -7l-12 -41l-200 -658q-5 -18 -22.5 -31t-36.5 -13h-4q-18 0 -35.5 13t-22.5 30l-201 659l-7 23q-3 9 2 16.5t15 7.5l76 1q8 0 11 -8l2 -8l146 -510q6 -23 22.5 -34t35.5 -11.5t36 11t23 33.5l144 476l2 4q1 4 3 11t4.5 14.5l4.5 13.5t2 7z" />
    <glyph glyph-name="W" unicode="W" horiz-adv-x="815" 
d="M775 700q-31 -163 -60.5 -324t-59.5 -324q-4 -19 -21.5 -35.5t-37.5 -16.5t-37 14t-21 34l-65 345q-4 24 -22 36t-38.5 12t-38 -12t-22.5 -36l-65 -345q-4 -20 -21 -34t-37 -14t-37 14t-21 34l-120 654l-4 24q-2 10 4 17t16 7h32q21 0 39 -15t22 -36l54 -322
q4 -24 21.5 -36.5t38 -12.5t38.5 11.5t23 36.5l62 326q4 20 21 34t37 14t37 -14t21 -34l64 -338q4 -24 22 -36t38.5 -12t38 12t21.5 36l62 338l3 23l3 17q2 8 10 8t7 -8l-8 -40z" />
    <glyph glyph-name="X" unicode="X" horiz-adv-x="671" 
d="M104 50q-8 -10 -15 -19q-6 -8 -11.5 -15.5t-9.5 -12.5q-2 -3 -6 -3h-4q-3 0 -4.5 2.5t0.5 4.5l237 314q9 12 9 35t-8 37q-44 77 -87.5 153.5t-88.5 153.5q-10 17 -2.5 33.5t26.5 16.5h52q1 -2 5.5 -9.5t10.5 -16.5q6 -11 13 -24l108 -187q8 -16 21.5 -24t27.5 -9t28 5.5
t25 20.5l146 194l4.5 5.5t10 13.5t11.5 15.5l10 12.5q2 3 6 3h5q2 0 3.5 -2.5t-0.5 -4.5l-220 -291q-10 -13 -12.5 -32t5.5 -32q51 -88 100 -174t100 -172q9 -17 -0.5 -29.5t-28.5 -12.5h-24q-11 0 -24.5 8t-18.5 17l-15 25l-121 210q-8 15 -21.5 23t-27.5 9t-28 -5.5
t-25 -20.5l-163 -216h1z" />
    <glyph glyph-name="Y" unicode="Y" horiz-adv-x="632" 
d="M580 743q4 7 12 7l2 -1h6q-2 -3 -4 -7q-2 -3 -4.5 -7.5t-5.5 -10.5q-49 -86 -98 -171.5t-98 -171.5q-1 -1 -3 -6t-3.5 -10.5l-3 -11t-1.5 -6.5v-297q0 -21 -15 -36t-36 -15t-36 15t-15 36v263q0 3 -2 13.5t-4 13.5q-54 92 -106.5 183.5t-105.5 184.5q-10 16 -1 29t28 13
h22q11 0 24.5 -8t19.5 -17l14 -25l185 -324q3 -6 10 -6t10 6z" />
    <glyph glyph-name="Z" unicode="Z" horiz-adv-x="655" 
d="M604 12q6 0 6 -6t-6 -6h-553q-6 0 -6 6q0 1 1 5.5t2 5.5l391 627q10 17 10.5 33.5t-7 30t-22 22t-34.5 8.5h-320q-6 0 -6 6t6 6h538q6 0 6 -6q0 -1 -1 -5.5t-2 -5.5l-391 -627q-10 -17 -10.5 -33.5t7 -30t22 -22t34.5 -8.5h335z" />
    <glyph glyph-name="bracketleft" unicode="[" horiz-adv-x="349" 
d="M250 698q-25 0 -43 -18t-18 -43v-639q0 -25 18 -43t43 -18h43q11 0 18.5 -7.5t7.5 -18.5t-7.5 -18.5t-18.5 -7.5h-103q-25 0 -43 18t-18 43v743q0 25 18 43t43 18h103q11 0 18.5 -7.5t7.5 -18.5t-7.5 -18.5t-18.5 -7.5h-43z" />
    <glyph glyph-name="backslash" unicode="\" horiz-adv-x="330" 
d="M310 0q-8 0 -16 5.5t-11 13.5l-276 712q-3 8 1 13.5t12 5.5t16 -5.5t11 -13.5l276 -712q3 -8 -1 -13.5t-12 -5.5z" />
    <glyph glyph-name="bracketright" unicode="]" horiz-adv-x="345" 
d="M160 637q0 25 -18 43t-43 18h-43q-11 0 -18.5 7.5t-7.5 18.5t7.5 18.5t18.5 7.5h103q25 0 43 -18t18 -43v-743q0 -25 -18 -43t-43 -18h-103q-11 0 -18.5 7.5t-7.5 18.5t7.5 18.5t18.5 7.5h43q25 0 43 18t18 43v639z" />
    <glyph glyph-name="asciicircum" unicode="^" horiz-adv-x="340" 
d="M181 676q-8 4 -11 2t-10 -8l-59 -54q-5 -5 -20 -10.5t-22 -5.5h-17q-14 0 -19 11t3 21l80 96q5 7 21.5 14.5t25.5 7.5h34q9 0 25.5 -7.5t21.5 -14.5l80 -96q8 -10 3 -21t-18 -11h-12h-30q-14 17 -27 32q-12 14 -25 26t-24 18z" />
    <glyph glyph-name="underscore" unicode="_" horiz-adv-x="680" 
d="M78 -128q-12 0 -20 8t-8 20t8 20t20 8h524q12 0 20 -8t8 -20t-8 -20t-20 -8h-524z" />
    <glyph glyph-name="grave" unicode="`" horiz-adv-x="340" 
d="M162 600q-12 0 -29 9.5t-23 19.5l-43 70q-12 18 -2.5 34.5t30.5 16.5h18q16 0 33.5 -12t23.5 -28l27 -71q6 -15 -2.5 -27t-24.5 -12h-8z" />
    <glyph glyph-name="a" unicode="a" 
d="M84 381q-6 2 -4 9q23 63 76.5 101t120.5 38q45 0 81.5 -10t62.5 -32.5t40 -57.5t14 -85v-257q0 -11 3.5 -15t20.5 -5q8 0 14.5 -6.5t6.5 -14.5v-12q0 -15 -11 -24.5t-25 -9.5q-36 1 -56 4t-30 12t-12 26t-2 45v20q0 1 -2 -0.5t-3 -2.5q-16 -65 -56.5 -89t-97.5 -24
q-97 0 -138 28.5t-41 74.5q0 67 48.5 107.5t129.5 40.5q36 0 65.5 6.5t50.5 22.5t32.5 43.5t11.5 68.5q0 73 -29.5 104t-77.5 31q-63 0 -113 -36.5t-72 -96.5q-2 -6 -8 -4zM384 287q0 3 -5.5 5t-7.5 -2q-20 -32 -55.5 -44.5t-83.5 -12.5q-43 0 -69 -37t-26 -99
q0 -44 21 -70.5t72 -26.5q32 0 59 7.5t47 26.5t32.5 50t15.5 78v125z" />
    <glyph glyph-name="b" unicode="b" horiz-adv-x="599" 
d="M167 46q0 -19 -13.5 -32.5t-31.5 -13.5q-19 0 -32.5 13.5t-13.5 32.5v659q0 18 13.5 31.5t32.5 13.5q18 0 31.5 -13.5t13.5 -31.5v-297q0 -4 7 -6t8 2q23 64 68 94.5t105 30.5q44 0 79.5 -19.5t61 -54.5t39.5 -85t14 -110t-14 -110t-39.5 -85t-61 -54.5t-79.5 -19.5
q-60 0 -105 30.5t-68 94.5q-1 4 -8 2t-7 -6v-66zM167 260q0 -127 49 -186t129 -59q24 0 43 17.5t33 50t21.5 77.5t7.5 100q0 58 -7 105.5t-20.5 81.5t-31.5 52.5t-41 18.5q-82 0 -132.5 -62t-50.5 -196z" />
    <glyph glyph-name="c" unicode="c" horiz-adv-x="537" 
d="M493 134q2 6 8 3q6 -4 4 -10q-25 -62 -74 -99t-106 -37q-60 0 -110 16t-85 49t-54.5 83.5t-19.5 120.5t19.5 120.5t54.5 83.5t85 49t110 16q56 0 100.5 -43t78.5 -110q3 -7 -3 -9q-6 -3 -9 4q-34 66 -75.5 106.5t-91.5 40.5q-76 0 -123 -62t-47 -196q0 -133 47 -195.5
t123 -62.5q53 0 98.5 36t69.5 96z" />
    <glyph glyph-name="d" unicode="d" horiz-adv-x="616" 
d="M155 260q0 -58 7.5 -105.5t22 -81.5t34.5 -52.5t44 -18.5q43 0 78.5 18.5t60.5 52.5t39 81.5t14 105.5t-14 105.5t-39 81.5t-60.5 52.5t-78.5 18.5q-24 0 -44 -18.5t-34.5 -52.5t-22 -81.5t-7.5 -105.5zM56 260q0 60 14.5 110t41 85t64 54.5t82.5 19.5q64 0 111 -37.5
t70 -104.5q1 -3 8 -2.5t7 4.5v316q0 18 13.5 31.5t32.5 13.5q18 0 31.5 -13.5t13.5 -31.5v-659q0 -19 -13.5 -32.5t-31.5 -13.5q-19 0 -32.5 13.5t-13.5 32.5v85q0 4 -7 4.5t-8 -2.5q-23 -67 -70 -104.5t-111 -37.5q-45 0 -82.5 19.5t-64 54.5t-41 85t-14.5 110z" />
    <glyph glyph-name="e" unicode="e" horiz-adv-x="543" 
d="M498 133q2 6 9 4q6 -3 4 -9q-9 -31 -30 -56.5t-50.5 -43t-66.5 -27.5t-79 -10q-51 0 -93.5 16t-72.5 49t-46.5 83.5t-16.5 120.5t17 120.5t47.5 83.5t74 49t96.5 16q55 0 96.5 -15.5t69.5 -44t44 -69t22 -90.5q3 -28 -13.5 -44t-44.5 -16h-248q-28 0 -45 -16t-14 -44
q9 -97 42.5 -142.5t84.5 -45.5q79 0 137 36t76 95zM373 260q28 0 44.5 19t13.5 47q-8 89 -41.5 140.5t-98.5 51.5q-54 0 -89.5 -47t-44.5 -149q-2 -27 15 -44.5t44 -17.5h157z" />
    <glyph glyph-name="f" unicode="f" horiz-adv-x="392" 
d="M317 750q5 0 5 -5q0 -6 -5 -6h-86q-13 0 -18.5 -25t-5.5 -85v-54q0 -23 16 -39t39 -16h55q5 0 5 -5q0 -6 -5 -6h-52q-24 0 -41 -17t-17 -40v-406q0 -19 -13.5 -32.5t-31.5 -13.5q-19 0 -32.5 13.5t-13.5 32.5v420q0 18 -12.5 30.5t-30.5 12.5h-37q-6 0 -6 6q0 5 6 5h37
q18 0 30.5 12.5t12.5 30.5v66q0 66 25.5 93.5t85.5 27.5h90z" />
    <glyph glyph-name="g" unicode="g" horiz-adv-x="606" 
d="M78 -97q-2 8 7 8q6 0 8 -6q6 -29 62.5 -41.5t147.5 -12.5q77 0 109.5 41t32.5 108v135q0 4 -6.5 4.5t-8.5 -2.5q-23 -64 -68.5 -100.5t-108.5 -36.5q-44 0 -80.5 14.5t-62.5 45.5t-40 80.5t-14 119.5q0 73 14 124t40 83.5t62.5 47t80.5 14.5q63 0 108.5 -37.5
t68.5 -104.5q2 -3 8.5 -2.5t6.5 4.5v86q0 18 13.5 31.5t32.5 13.5q18 0 31.5 -13.5t13.5 -31.5v-436q0 -45 -12.5 -82t-40.5 -63t-72 -40.5t-106 -14.5q-98 0 -159.5 14.5t-67.5 49.5zM155 260q0 -134 28.5 -191.5t74.5 -57.5q42 0 76.5 18t59 50.5t38 78.5t13.5 102
q0 58 -13.5 105.5t-38 81.5t-59 52.5t-76.5 18.5q-23 0 -42 -14t-32.5 -45t-21 -80t-7.5 -119z" />
    <glyph glyph-name="h" unicode="h" horiz-adv-x="549" 
d="M479 46q0 -19 -13.5 -32.5t-32.5 -14.5q-19 0 -32.5 13.5t-13.5 32.5v269q0 98 -15.5 147.5t-41.5 49.5q-37 0 -67 -13t-51.5 -37t-33.5 -57.5t-12 -74.5v-284q0 -19 -13.5 -32.5t-31.5 -13.5q-19 0 -32.5 13.5t-13.5 32.5v659q0 18 13.5 31.5t32.5 13.5q18 0 31.5 -13.5
t13.5 -31.5v-278q0 -4 6 -4.5t8 2.5q20 47 60.5 74t95.5 27q65 0 104 -52.5t39 -157.5v-269z" />
    <glyph glyph-name="i" unicode="i" horiz-adv-x="243" 
d="M127 600q-21 0 -35.5 14.5t-14.5 35.5q0 20 14.5 34.5t35.5 14.5q20 0 34.5 -14.5t14.5 -34.5q0 -21 -14.5 -35.5t-34.5 -14.5zM173 46q0 -19 -13.5 -32.5t-32.5 -13.5t-32.5 13.5t-13.5 32.5v428q0 19 13.5 32.5t32.5 13.5t32.5 -13.5t13.5 -32.5v-428z" />
    <glyph glyph-name="j" unicode="j" horiz-adv-x="243" 
d="M127 600q-21 0 -35.5 14.5t-14.5 35.5q0 20 14.5 34.5t35.5 14.5q20 0 34.5 -14.5t14.5 -34.5q0 -21 -14.5 -35.5t-34.5 -14.5zM-4 -81q0 6 6 6h29q14 0 23.5 11t15.5 25t8.5 26t2.5 13v2v2v470q0 19 13.5 32.5t32.5 13.5t32.5 -13.5t13.5 -32.5v-464v-10
q-10 -24 -28 -43q-17 -18 -43 -30.5t-67 -12.5h-33q-6 0 -6 5z" />
    <glyph glyph-name="k" unicode="k" horiz-adv-x="518" 
d="M439 514q2 2 6.5 4t7.5 2l1 -1h7q-3 -3 -6 -7q-4 -3 -8 -7.5t-10 -10.5l-110 -113q-14 -14 -16.5 -36t7.5 -39l161 -261l14 -20l8 -12q2 -5 0 -9t-8 -4h-60q-12 0 -29 9.5t-23 19.5l-135 213q-9 14 -24 15.5t-26 -10.5l-11 -11q-6 -5 -12 -20.5t-6 -22.5v-147
q0 -19 -13.5 -32.5t-31.5 -13.5q-19 0 -32.5 13.5t-13.5 32.5v659q0 18 13.5 31.5t32.5 13.5q18 0 31.5 -13.5t13.5 -31.5v-319q0 -22 11 -37t26.5 -21.5t34 -3t33.5 18.5l124 127q2 3 5.5 6t6.5 6z" />
    <glyph glyph-name="l" unicode="l" horiz-adv-x="243" 
d="M173 46q0 -19 -13.5 -32.5t-32.5 -13.5t-32.5 13.5t-13.5 32.5v658q0 19 13.5 32.5t32.5 13.5t32.5 -13.5t13.5 -32.5v-658z" />
    <glyph glyph-name="m" unicode="m" horiz-adv-x="821" 
d="M756 45q0 -18 -13.5 -31.5t-31.5 -13.5q-19 0 -32.5 13.5t-13.5 32.5v269q0 98 -13 147.5t-34 49.5q-69 0 -110 -50t-41 -132v-15v-269q0 -19 -13.5 -32.5t-32.5 -13.5t-32.5 13.5t-13.5 32.5v269q0 98 -14 147.5t-37 49.5q-35 0 -64 -13t-49.5 -37t-32 -57.5
t-11.5 -74.5v-284q0 -19 -13.5 -32.5t-31.5 -13.5q-19 0 -32.5 13.5t-13.5 32.5v429q0 18 13.5 31.5t32.5 13.5q18 0 31.5 -13.5t13.5 -31.5v-48q0 -3 6 -4t7 3q20 46 58.5 72.5t91.5 26.5q44 0 76.5 -27t47.5 -82q1 -4 10 -5.5t11 3.5q17 52 56 81.5t93 29.5q60 0 96 -52.5
t36 -157.5v-270z" />
    <glyph glyph-name="n" unicode="n" horiz-adv-x="544" 
d="M479 46q0 -19 -13.5 -32.5t-32.5 -14.5q-19 0 -32.5 13.5t-13.5 32.5v269q0 98 -15.5 147.5t-41.5 49.5q-37 0 -67 -13t-51.5 -37t-33.5 -57.5t-12 -74.5v-284q0 -19 -13.5 -32.5t-31.5 -13.5q-19 0 -32.5 13.5t-13.5 32.5v429q0 18 13.5 31.5t32.5 13.5q18 0 31.5 -13.5
t13.5 -31.5v-48q0 -4 6 -4.5t8 2.5q20 47 60.5 74t95.5 27q65 0 104 -52.5t39 -157.5v-269z" />
    <glyph glyph-name="o" unicode="o" horiz-adv-x="590" 
d="M155 260q0 -58 8.5 -106t26 -82t44.5 -52.5t64 -18.5q65 0 104 62.5t39 196.5q0 58 -8.5 106t-26 82t-44.5 52.5t-64 18.5q-64 0 -103.5 -62.5t-39.5 -196.5zM56 260q0 70 17.5 120.5t49 83.5t76.5 49t99 16q63 0 108.5 -19.5t75 -54.5t44 -85t14.5 -110
q0 -70 -17.5 -120.5t-49 -83.5t-76.5 -49t-99 -16q-63 0 -108.5 19.5t-75 54.5t-44 85t-14.5 110z" />
    <glyph glyph-name="p" unicode="p" horiz-adv-x="599" 
d="M167 -110q0 -18 -13.5 -31.5t-31.5 -13.5q-19 0 -32.5 13.5t-13.5 31.5v585q0 18 13.5 31.5t32.5 13.5q18 0 31.5 -13.5t13.5 -31.5v-67q0 -4 7 -6t8 2q23 64 68 94.5t105 30.5q44 0 79.5 -19.5t61 -54.5t39.5 -85t14 -110t-14 -110t-39.5 -85t-61 -54.5t-79.5 -19.5
q-60 0 -105 30.5t-68 94.5q-1 4 -8 2t-7 -6v-222zM167 260q0 -133 50.5 -195.5t132.5 -62.5q23 0 41 18.5t31.5 52.5t20.5 81.5t7 105.5t-7 105.5t-20.5 81.5t-31.5 52.5t-41 18.5q-82 0 -132.5 -62t-50.5 -196z" />
    <glyph glyph-name="q" unicode="q" horiz-adv-x="616" 
d="M155 260q0 -58 7.5 -105.5t22 -81.5t34.5 -52.5t44 -18.5q43 0 78.5 18.5t60.5 52.5t39 81.5t14 105.5t-14 105.5t-39 81.5t-60.5 52.5t-78.5 18.5q-24 0 -44 -18.5t-34.5 -52.5t-22 -81.5t-7.5 -105.5zM56 260q0 60 14.5 110t41 85t64 54.5t82.5 19.5q64 0 111 -37.5
t70 -104.5q1 -3 8 -2.5t7 4.5v86q0 18 13.5 31.5t32.5 13.5q18 0 31.5 -13.5t13.5 -31.5v-585q0 -18 -13.5 -31.5t-31.5 -13.5q-19 0 -32.5 13.5t-13.5 31.5v241q0 4 -7 4.5t-8 -2.5q-23 -67 -70 -104.5t-111 -37.5q-45 0 -82.5 19.5t-64 54.5t-41 85t-14.5 110z" />
    <glyph glyph-name="r" unicode="r" horiz-adv-x="370" 
d="M350 511q0 -6 -5 -6h-6q-46 0 -79 -19t-53.5 -54t-30 -83.5t-9.5 -108.5v-194q0 -19 -13.5 -32.5t-31.5 -13.5q-19 0 -32.5 13.5t-13.5 32.5v429q0 18 13.5 31.5t32.5 13.5q18 0 31.5 -13.5t13.5 -31.5v-90q0 -3 5.5 -3.5t5.5 2.5q18 64 57.5 100t104.5 36h5q5 0 5 -5v-4
z" />
    <glyph glyph-name="s" unicode="s" horiz-adv-x="519" 
d="M54 128q0 2 -2.5 5.5t-3.5 5.5l3 2l3 1l3 1l3 1q12 -31 33.5 -56.5t50 -43.5t62 -28t70.5 -10q54 0 87 35t33 93q0 32 -34.5 55t-103.5 30q-97 10 -146.5 53t-49.5 106q0 33 14 60t40 46.5t62.5 30t81.5 10.5q57 0 109.5 -37t83.5 -99l3 -6q3 -5 -2 -7q-6 -3 -9 3
q-29 62 -79 98.5t-104 36.5q-51 0 -81 -35t-30 -93q0 -32 32.5 -55t97.5 -30q103 -11 155.5 -53.5t52.5 -105.5q0 -33 -15 -60t-43 -46t-66.5 -29.5t-86.5 -10.5q-75 0 -135 35.5t-88 95.5z" />
    <glyph glyph-name="t" unicode="t" horiz-adv-x="345" 
d="M310 520q5 0 5 -5q0 -6 -5 -6h-56q-25 0 -43 -18t-18 -43v-306q0 -73 3 -102t18 -29h96q5 0 5 -5q0 -6 -5 -6h-101q-39 0 -60.5 7.5t-32 24t-12.5 43.5t-2 67v321q0 19 -13.5 32.5t-32.5 13.5h-40q-6 0 -6 6q0 5 6 5h40q19 0 32.5 13.5t13.5 32.5v61q0 9 7.5 25t14.5 21
l24 21q14 12 29.5 4.5t15.5 -26.5v-91q0 -25 18 -43t43 -18h56z" />
    <glyph glyph-name="u" unicode="u" horiz-adv-x="538" 
d="M468 45q0 -19 -13 -32t-32 -13t-32 13t-13 32v26q0 3 -5 3.5t-6 -2.5q-18 -38 -51.5 -59.5t-79.5 -21.5q-48 0 -80 12.5t-51 37.5t-26.5 62.5t-7.5 86.5v285q0 18 13.5 31.5t32.5 13.5q18 0 31.5 -13.5t13.5 -31.5v-285q0 -93 16 -140t63 -47q62 0 99 39.5t37 105.5v327
q0 18 13.5 31.5t32.5 13.5q18 0 31.5 -13.5t13.5 -31.5v-430z" />
    <glyph glyph-name="v" unicode="v" horiz-adv-x="487" 
d="M124 520q7 0 8 -4q3 -10 8 -24.5t7 -21.5l82 -271q6 -23 22.5 -34t35 -11.5t35 10.5t24.5 33l92 274l14 41q2 8 10 8t5 -8l-10 -30l-2 -6l-3 -6l-150 -431q-5 -16 -21.5 -27.5t-32.5 -11.5t-32.5 11.5t-21.5 27.5l-150 431l-3 6l-2 6l-6 18q-3 8 1.5 14t13.5 6h76z" />
    <glyph glyph-name="w" unicode="w" horiz-adv-x="742" 
d="M579 37q-4 -15 -18.5 -26t-29.5 -11q-15 1 -29.5 12t-18.5 26l-60 231q-6 23 -23 34.5t-36 11.5t-36 -11.5t-23 -34.5l-61 -232q-3 -14 -17 -25t-29 -11q-16 0 -30 11t-17 25l-114 435l-6 24q-3 10 2.5 17.5t16.5 7.5h48q9 0 17.5 -6.5t10.5 -15.5l5 -23l1 -6l49 -226
q4 -21 19 -32t32.5 -11.5t33.5 9.5t21 31l62 241q4 15 19 26.5t31 11.5q15 0 30 -11.5t18 -26.5l59 -239q5 -22 21.5 -33t35 -11t35 11t22.5 33l57 227l2 9l9 34q2 7 10 7q7 0 5 -7l-11 -42z" />
    <glyph glyph-name="x" unicode="x" horiz-adv-x="511" 
d="M60 6q-4 -6 -11 -7h-8q8 11 15 20q6 9 11 16t7 9l122 166q10 14 10.5 36t-9.5 36l-133 188l-3 4l-16 22q-5 8 -1.5 15.5t12.5 7.5l79 1q5 0 8 -4q6 -9 16 -23t14 -20l56 -79q19 -28 49.5 -28t50.5 27l56 77l4 6l28 38q5 7 14 7h8q-8 -11 -15 -20q-6 -9 -11 -16t-7 -9
l-94 -127q-10 -14 -10.5 -36t10.5 -36l159 -226l3 -4l16 -22q5 -8 1.5 -15.5t-12.5 -7.5l-79 -1q-5 0 -8 4q-6 9 -16 23t-14 20l-84 118q-19 28 -49.5 28t-49.5 -27l-86 -116q1 0 -4 -6z" />
    <glyph glyph-name="y" unicode="y" horiz-adv-x="467" 
d="M245 -57q-15 -42 -29.5 -69.5t-31.5 -44t-37.5 -23.5t-47.5 -7h-44q-6 0 -6 6t6 6h44q25 0 44 6.5t34 22t28.5 41.5t28.5 66l2 6q1 2 0.5 6t-0.5 6l-203 506q-7 19 3 33.5t30 14.5h24q10 0 21.5 -7.5t15.5 -17.5l10 -25l90 -225q8 -20 24 -30t34 -10t33.5 11t23.5 31
l81 226l7 22l7 19q3 8 11 8t5 -8l-4 -12l-10 -31l-143 -394l-49 -134z" />
    <glyph glyph-name="z" unicode="z" horiz-adv-x="460" 
d="M390 129q0 3 3 3h44q3 0 3 -3t-3 -3h-44q-3 0 -3 3zM51 509q-6 0 -6 6q0 5 6 5h369q4 0 4 -4q0 -2 -2.5 -3t-4.5 -1q-66 -2 -134.5 -2.5t-137.5 -0.5h-94zM30 4q0 4 2 7l266 466q6 10 22.5 20t27.5 11l22 1q18 1 27 -13.5t0 -30.5l-249 -428q-3 -7 -14.5 -14.5
t-18.5 -8.5q-2 -1 0 -2t3 -1q78 1 156 0.5t157 -0.5q3 0 6 -1.5t3 -3.5q0 -6 -5 -6h-401q-4 0 -4 4z" />
    <glyph glyph-name="braceleft" unicode="{" horiz-adv-x="334" 
d="M278 750q11 0 18.5 -7.5t7.5 -18.5q0 -12 -7.5 -19.5t-18.5 -7.5h-44q-20 0 -32.5 -16.5t-12.5 -44.5v-95v-73t-0.5 -46t-0.5 -15q0 -60 -34 -83q-3 -2 -3 -7t3 -7q34 -23 34 -83q0 -27 1 -62v-73v-94q0 -28 12.5 -44.5t32.5 -16.5h44q11 0 18.5 -7.5t7.5 -18.5
t-7.5 -18.5t-18.5 -7.5h-44q-48 0 -76.5 31t-28.5 82v241q0 24 -14 37.5t-38 17.5q-8 2 -15 9t-7 15q0 7 7 14t15 9q24 4 38 17.5t14 37.5v241q0 51 28.5 82t76.5 31h44z" />
    <glyph glyph-name="bar" unicode="|" horiz-adv-x="150" 
d="M45 770q0 12 9 21t21 9t21 -9t9 -21v-990q0 -12 -9 -21t-21 -9t-21 9t-9 21v990z" />
    <glyph glyph-name="braceright" unicode="}" horiz-adv-x="334" 
d="M30 724q0 11 7.5 18.5t18.5 7.5l44 1q48 0 76.5 -31t28.5 -82v-241q0 -24 14 -37.5t38 -17.5q8 -2 15 -9t7 -14q0 -8 -7 -15t-15 -9q-24 -4 -38 -17.5t-14 -37.5v-241q0 -51 -28.5 -82t-76.5 -31h-44q-11 0 -18.5 7.5t-7.5 18.5t7.5 18.5t18.5 7.5h44q20 0 32.5 16.5
t12.5 44.5v95t1 72v62q0 60 34 83q3 2 3 7t-3 7q-34 23 -34 83q0 -1 -0.5 15t-0.5 46v73v95q0 28 -12.5 44.5t-32.5 16.5h-44q-11 0 -18.5 7.5t-7.5 18.5z" />
    <glyph glyph-name="asciitilde" unicode="~" horiz-adv-x="340" 
d="M91 281q-1 -8 -7 -14.5t-14 -6.5h-13q-16 0 -25 10t-7 25q5 41 21.5 67t41.5 33q18 6 20 -15v-9l1 -1q-1 12 -1.5 20t-1.5 8q15 0 35 -11.5t38.5 -25t32 -26t15.5 -13.5q4 -4 3 -2.5t3 4.5q13 8 16 44q1 8 7 14.5t14 6.5h14q15 0 24 -10t7 -25q-5 -38 -19.5 -63.5
t-36.5 -34.5q-14 -6 -20 -0.5t-7 20.5l-2 11l-3 35q1 -20 3 -35q1 -15 2 -25.5t2 -10.5q-15 0 -31 12t-32 26t-31 26t-27 12q-9 0 -14.5 -12.5t-7.5 -33.5z" />
    <glyph glyph-name="nonbreakingspace" unicode="&#xa0;" horiz-adv-x="220" 
 />
    <glyph glyph-name="exclamdown" unicode="&#xa1;" horiz-adv-x="197" 
d="M49 701q0 20 14.5 34.5t35.5 14.5h1q20 0 34.5 -14.5t14.5 -34.5q0 -21 -14.5 -35.5t-34.5 -14.5h-1q-21 0 -35.5 14.5t-14.5 35.5zM99 0q-23 0 -38.5 15.5t-15.5 38.5v251l0.5 5l0.5 5l37 220q2 13 16 13q13 0 15 -13l37 -220l0.5 -5l0.5 -5v-251q0 -23 -15.5 -38.5
t-37.5 -15.5z" />
    <glyph glyph-name="cent" unicode="&#xa2;" horiz-adv-x="537" 
d="M295 564q0 13 9 22.5t22 9.5q12 0 21 -8.5t9 -21.5v-8q0 -9 9 -23t18 -18q36 -18 66 -55t55 -86q3 -6 -3 -8q-6 -3 -9 3q-24 48 -52 82.5t-61 51.5q-12 6 -18 0t-6 -20v-449q0 -15 9 -21t22 0q34 16 62 46.5t45 73.5q2 5 8 2q6 -4 4 -10q-17 -44 -47.5 -76t-68.5 -47
q-10 -4 -22 -18.5t-12 -25.5v-5q0 -12 -9 -21t-21 -9t-21 9t-9 21v3q0 13 -9.5 24.5t-22.5 13.5q-94 14 -150.5 78.5t-56.5 185.5t56.5 185.5t150.5 78.5q13 2 22.5 13.5t9.5 24.5v2zM254 20q20 -10 31 -1.5t11 30.5v426q0 22 -11 30.5t-31 -1.5q-46 -24 -72 -83t-26 -159
t26 -159t72 -83z" />
    <glyph glyph-name="guillemotleft" unicode="&#xab;" horiz-adv-x="535" 
d="M373 443q6 9 22.5 18t28.5 9h7q13 0 19 -10.5t-2 -22.5l-95 -143q-9 -13 -9 -34t9 -34l95 -143q8 -12 2 -22.5t-19 -10.5h-7q-12 0 -28.5 9t-22.5 18l-99 149q-9 13 -9 34t9 34zM197 443q6 9 22.5 18t28.5 9h7q14 0 20 -11t-2 -22l-95 -143q-9 -13 -9 -34t9 -34l95 -143
q8 -11 2 -22t-20 -11h-7q-12 0 -28.5 9t-22.5 18l-99 149q-9 13 -9 34t9 34z" />
    <glyph glyph-name="logicalnot" unicode="&#xac;" horiz-adv-x="414" 
d="M364 114q0 -7 -7 -7t-7 7v82q0 25 -18 43t-43 18h-233q-6 0 -6 6t6 6h247q25 0 43 -18t18 -43v-94z" />
    <glyph glyph-name="acute" unicode="&#xb4;" horiz-adv-x="340" 
d="M170 600q-16 0 -24.5 12t-2.5 27l27 71q6 16 23.5 28t33.5 12h18q21 0 30.5 -16.5t-2.5 -34.5l-43 -70q-6 -10 -23 -19.5t-29 -9.5h-8z" />
    <glyph glyph-name="periodcentered" unicode="&#xb7;" horiz-adv-x="199" 
d="M100 210q-21 0 -35.5 14.5t-14.5 35.5v1q0 20 14.5 34.5t35.5 14.5q20 0 34.5 -14.5t14.5 -34.5v-1q0 -21 -14.5 -35.5t-34.5 -14.5z" />
    <glyph glyph-name="guillemotright" unicode="&#xbb;" horiz-adv-x="517" 
d="M265 437q-8 11 -2 22t20 11h7q12 0 28.5 -9t22.5 -18l99 -149q9 -13 9 -34t-9 -34l-99 -149q-6 -9 -22.5 -18t-28.5 -9h-7q-14 0 -20 11t2 22l95 143q9 13 9 34t-9 34zM89 437q-8 11 -2 22t20 11h7q12 0 28.5 -9t22.5 -18l99 -149q9 -13 9 -34t-9 -34l-99 -149
q-6 -9 -22.5 -18t-28.5 -9h-7q-14 0 -20 11t2 22l95 143q9 13 9 34t-9 34z" />
    <glyph glyph-name="questiondown" unicode="&#xbf;" 
d="M242 750q20 0 34.5 -14.5t14.5 -34.5q0 -21 -14.5 -35.5t-34.5 -14.5h-1q-21 0 -35.5 14.5t-14.5 35.5q0 20 14.5 34.5t35.5 14.5h1zM450 199q22 -4 32 -16.5t4 -34.5q-22 -72 -88.5 -114.5t-162.5 -42.5q-53 0 -96.5 14.5t-74 41.5t-47.5 64.5t-17 83.5q0 66 26 108.5
t88 74.5q23 12 38 23t24.5 25.5t14 33t6.5 45.5q1 17 14 30t31 13t30.5 -11t11.5 -29q-1 -42 -6.5 -71t-17.5 -50t-32 -37t-51 -32q-45 -23 -63.5 -51.5t-18.5 -71.5q0 -60 38.5 -96.5t101.5 -36.5q59 0 101.5 27.5t59.5 74.5q5 13 22 25.5t31 9.5h1z" />
    <glyph glyph-name="Agrave" unicode="&#xc0;" horiz-adv-x="748" 
d="M383 830q-12 0 -29 9.5t-23 19.5l-43 70q-12 18 -2.5 34.5t30.5 16.5h18q16 0 33.5 -12t23.5 -28l27 -71q6 -15 -2.5 -27t-24.5 -12h-8zM314 700l9 25l5 13q2 4 7.5 8t10.5 4h56q16 0 33.5 -12t23.5 -27l259 -660q8 -20 -2.5 -35.5t-31.5 -15.5h-42q-5 0 -10.5 4t-7.5 9
l-5 12l-6 17l-66 167q-6 15 -23.5 27t-33.5 12h-295q-16 0 -33.5 -12t-23.5 -27l-66 -167l-6 -17l-7 -18q-3 -7 -11 -7t-5 7l270 693h1zM191 344q-13 -33 4.5 -58.5t52.5 -25.5h190q35 0 52.5 25.5t4.5 58.5l-95 245q-8 20 -24 30.5t-33 10.5t-33 -10.5t-24 -30.5z" />
    <glyph glyph-name="Aacute" unicode="&#xc1;" horiz-adv-x="748" 
d="M391 830q-16 0 -24.5 12t-2.5 27l27 71q6 16 23.5 28t33.5 12h18q21 0 30.5 -16.5t-2.5 -34.5l-43 -70q-6 -10 -23 -19.5t-29 -9.5h-8zM314 700l9 25l5 13q2 4 7.5 8t10.5 4h56q16 0 33.5 -12t23.5 -27l259 -660q8 -20 -2.5 -35.5t-31.5 -15.5h-42q-5 0 -10.5 4t-7.5 9
l-5 12l-6 17l-66 167q-6 15 -23.5 27t-33.5 12h-295q-16 0 -33.5 -12t-23.5 -27l-66 -167l-6 -17l-7 -18q-3 -7 -11 -7t-5 7l270 693h1zM191 344q-13 -33 4.5 -58.5t52.5 -25.5h190q35 0 52.5 25.5t4.5 58.5l-95 245q-8 20 -24 30.5t-33 10.5t-33 -10.5t-24 -30.5z" />
    <glyph glyph-name="Acircumflex" unicode="&#xc2;" horiz-adv-x="748" 
d="M402 906q-8 4 -11 2t-10 -8l-59 -54q-5 -5 -20 -10.5t-22 -5.5h-17q-14 0 -19 11t3 21l80 96q5 7 21.5 14.5t25.5 7.5h34q9 0 25.5 -7.5t21.5 -14.5l80 -96q8 -10 3 -21t-18 -11h-12h-30q-14 17 -27 32q-12 14 -25 26t-24 18zM314 700l9 25l5 13q2 4 7.5 8t10.5 4h56
q16 0 33.5 -12t23.5 -27l259 -660q8 -20 -2.5 -35.5t-31.5 -15.5h-42q-5 0 -10.5 4t-7.5 9l-5 12l-6 17l-66 167q-6 15 -23.5 27t-33.5 12h-295q-16 0 -33.5 -12t-23.5 -27l-66 -167l-6 -17l-7 -18q-3 -7 -11 -7t-5 7l270 693h1zM191 344q-13 -33 4.5 -58.5t52.5 -25.5h190
q35 0 52.5 25.5t4.5 58.5l-95 245q-8 20 -24 30.5t-33 10.5t-33 -10.5t-24 -30.5z" />
    <glyph glyph-name="Atilde" unicode="&#xc3;" horiz-adv-x="748" 
d="M312 851q-1 -8 -7 -14.5t-14 -6.5h-13q-16 0 -25 10t-7 25q5 41 21.5 67t41.5 33q18 6 20 -15v-9l1 -1q-1 12 -1.5 20t-1.5 8q15 0 35 -11.5t38.5 -25t32 -26t15.5 -13.5q4 -4 3 -2.5t3 4.5q13 8 16 44q1 8 7 14.5t14 6.5h14q15 0 24 -10t7 -25q-5 -38 -19.5 -63.5
t-36.5 -34.5q-14 -6 -20 -0.5t-7 20.5l-2 11l-3 35q1 -20 3 -35q1 -15 2 -25.5t2 -10.5q-15 0 -31 12t-32 26t-31 26t-27 12q-9 0 -14.5 -12.5t-7.5 -33.5zM314 700l9 25l5 13q2 4 7.5 8t10.5 4h56q16 0 33.5 -12t23.5 -27l259 -660q8 -20 -2.5 -35.5t-31.5 -15.5h-42
q-5 0 -10.5 4t-7.5 9l-5 12l-6 17l-66 167q-6 15 -23.5 27t-33.5 12h-295q-16 0 -33.5 -12t-23.5 -27l-66 -167l-6 -17l-7 -18q-3 -7 -11 -7t-5 7l270 693h1zM191 344q-13 -33 4.5 -58.5t52.5 -25.5h190q35 0 52.5 25.5t4.5 58.5l-95 245q-8 20 -24 30.5t-33 10.5t-33 -10.5
t-24 -30.5z" />
    <glyph glyph-name="Adieresis" unicode="&#xc4;" horiz-adv-x="748" 
d="M467 830q-21 0 -35.5 14.5t-14.5 35.5q0 20 14.5 34.5t35.5 14.5h1q20 0 34.5 -14.5t14.5 -34.5q0 -21 -14.5 -35.5t-34.5 -14.5h-1zM315 830q-21 0 -35.5 14.5t-14.5 35.5q0 20 14.5 34.5t35.5 14.5h1q20 0 34.5 -14.5t14.5 -34.5q0 -21 -14.5 -35.5t-34.5 -14.5h-1z
M314 700l9 25l5 13q2 4 7.5 8t10.5 4h56q16 0 33.5 -12t23.5 -27l259 -660q8 -20 -2.5 -35.5t-31.5 -15.5h-42q-5 0 -10.5 4t-7.5 9l-5 12l-6 17l-66 167q-6 15 -23.5 27t-33.5 12h-295q-16 0 -33.5 -12t-23.5 -27l-66 -167l-6 -17l-7 -18q-3 -7 -11 -7t-5 7l270 693h1z
M191 344q-13 -33 4.5 -58.5t52.5 -25.5h190q35 0 52.5 25.5t4.5 58.5l-95 245q-8 20 -24 30.5t-33 10.5t-33 -10.5t-24 -30.5z" />
    <glyph glyph-name="Aring" unicode="&#xc5;" horiz-adv-x="748" 
d="M353 915q0 -43 38 -43t38 43q0 20 -10 31t-28 11t-28 -11t-10 -31zM307 915q0 40 22 62t62 22t62 -22t22 -62q0 -85 -84 -85t-84 85zM314 700l9 25l5 13q2 4 7.5 8t10.5 4h56q16 0 33.5 -12t23.5 -27l259 -660q8 -20 -2.5 -35.5t-31.5 -15.5h-42q-5 0 -10.5 4t-7.5 9
l-5 12l-6 17l-66 167q-6 15 -23.5 27t-33.5 12h-295q-16 0 -33.5 -12t-23.5 -27l-66 -167l-6 -17l-7 -18q-3 -7 -11 -7t-5 7l270 693h1zM191 344q-13 -33 4.5 -58.5t52.5 -25.5h190q35 0 52.5 25.5t4.5 58.5l-95 245q-8 20 -24 30.5t-33 10.5t-33 -10.5t-24 -30.5z" />
    <glyph glyph-name="Ccedilla" unicode="&#xc7;" horiz-adv-x="701" 
d="M666 172q2 3 4.5 4t5.5 0q2 -2 2.5 -6t-1.5 -7q-18 -39 -46 -70.5t-61.5 -54t-72 -35t-78.5 -12.5q-19 0 -39 2q-3 0 -7 -2t-5 -4l-41 -93q-1 -2 -2 -0.5t-2 2.5l1 3l21 46q8 17 -3 36t-29 25q-59 18 -106 53.5t-79.5 84.5t-50.5 108t-18 123q0 78 26 147.5t73 122
t113.5 83.5t147.5 31q35 0 70.5 -12.5t69.5 -35t64 -54t53 -70.5q2 -3 2 -7t-2 -5q-3 -2 -6 -1t-5 4q-23 38 -52 69t-61.5 53.5t-66 34.5t-66.5 12q-57 0 -103 -30t-79 -81t-51 -118.5t-18 -142.5t18 -142.5t51 -118.5t79 -81t103 -30q38 0 74.5 12t69 34.5t59 53.5t44.5 69
zM331 -102q-1 -2 -1 -1q11 18 37 18q40 0 64.5 -16.5t24.5 -42.5q0 -44 -24.5 -70t-65.5 -26q-26 0 -38 17.5t-8 47.5q1 3 4 5t3 -2q-1 -11 9.5 -17.5t27.5 -6.5q18 0 29 14.5t11 37.5t-10.5 37.5t-27.5 14.5q-24 0 -35 -10z" />
    <glyph glyph-name="Egrave" unicode="&#xc8;" horiz-adv-x="620" 
d="M317 830q-12 0 -29 9.5t-23 19.5l-44 70q-11 18 -2 34.5t31 16.5h17q16 0 33.5 -12t23.5 -28l27 -71q6 -15 -2 -27t-24 -12h-8zM564 12q6 0 6 -6t-6 -6h-409q-25 0 -43 18t-18 43v628q0 25 18 43t43 18h394q6 0 6 -6t-6 -6h-293q-25 0 -43 -18t-18 -43v-223q0 -25 18 -43
t43 -18h273q6 0 6 -6t-6 -6h-273q-25 0 -43 -18t-18 -43v-247q0 -25 18 -43t43 -18h308z" />
    <glyph glyph-name="Eacute" unicode="&#xc9;" horiz-adv-x="620" 
d="M325 830q-17 0 -25 12t-2 27l27 71q6 16 23.5 28t33.5 12h18q21 0 30 -16.5t-2 -34.5l-44 -70q-6 -10 -23 -19.5t-29 -9.5h-7zM564 12q6 0 6 -6t-6 -6h-409q-25 0 -43 18t-18 43v628q0 25 18 43t43 18h394q6 0 6 -6t-6 -6h-293q-25 0 -43 -18t-18 -43v-223q0 -25 18 -43
t43 -18h273q6 0 6 -6t-6 -6h-273q-25 0 -43 -18t-18 -43v-247q0 -25 18 -43t43 -18h308z" />
    <glyph glyph-name="Ecircumflex" unicode="&#xca;" horiz-adv-x="620" 
d="M336 906q-8 4 -11 2t-10 -8l-59 -54q-5 -5 -20 -10.5t-22 -5.5h-17q-14 0 -19 11t3 21l79 96q6 7 22 14.5t25 7.5h35q9 0 25.5 -7.5t21.5 -14.5l79 -96q9 -10 3.5 -21t-18.5 -11h-12h-30q-13 17 -27 32q-12 14 -24.5 26t-23.5 18zM564 12q6 0 6 -6t-6 -6h-409
q-25 0 -43 18t-18 43v628q0 25 18 43t43 18h394q6 0 6 -6t-6 -6h-293q-25 0 -43 -18t-18 -43v-223q0 -25 18 -43t43 -18h273q6 0 6 -6t-6 -6h-273q-25 0 -43 -18t-18 -43v-247q0 -25 18 -43t43 -18h308z" />
    <glyph glyph-name="Edieresis" unicode="&#xcb;" horiz-adv-x="620" 
d="M401 830q-21 0 -35.5 14.5t-14.5 35.5q0 20 14.5 34.5t35.5 14.5q20 0 34.5 -14.5t14.5 -34.5q0 -21 -14.5 -35.5t-34.5 -14.5zM249 830q-21 0 -35.5 14.5t-14.5 35.5q0 20 14.5 34.5t35.5 14.5q20 0 34.5 -14.5t14.5 -34.5q0 -21 -14.5 -35.5t-34.5 -14.5zM564 12
q6 0 6 -6t-6 -6h-409q-25 0 -43 18t-18 43v628q0 25 18 43t43 18h394q6 0 6 -6t-6 -6h-293q-25 0 -43 -18t-18 -43v-223q0 -25 18 -43t43 -18h273q6 0 6 -6t-6 -6h-273q-25 0 -43 -18t-18 -43v-247q0 -25 18 -43t43 -18h308z" />
    <glyph glyph-name="Igrave" unicode="&#xcc;" horiz-adv-x="274" 
d="M130 830q-12 0 -29 9.5t-23 19.5l-43 70q-12 18 -2.5 34.5t30.5 16.5h18q16 0 33.5 -12t23.5 -28l27 -71q6 -15 -2.5 -27t-24.5 -12h-8zM189 51q0 -21 -15 -36t-36 -15t-36 15t-15 36v648q0 21 15 36t36 15t36 -15t15 -36v-648z" />
    <glyph glyph-name="Iacute" unicode="&#xcd;" horiz-adv-x="274" 
d="M138 830q-16 0 -24.5 12t-2.5 27l27 71q6 16 23.5 28t33.5 12h18q21 0 30.5 -16.5t-2.5 -34.5l-43 -70q-6 -10 -23 -19.5t-29 -9.5h-8zM189 51q0 -21 -15 -36t-36 -15t-36 15t-15 36v648q0 21 15 36t36 15t36 -15t15 -36v-648z" />
    <glyph glyph-name="Icircumflex" unicode="&#xce;" horiz-adv-x="274" 
d="M149 906q-8 4 -11 2t-10 -8l-59 -54q-5 -5 -20 -10.5t-22 -5.5h-17q-14 0 -19 11t3 21l80 96q5 7 21.5 14.5t25.5 7.5h34q9 0 25.5 -7.5t21.5 -14.5l80 -96q8 -10 3 -21t-18 -11h-12h-30q-14 17 -27 32q-12 14 -25 26t-24 18zM189 51q0 -21 -15 -36t-36 -15t-36 15
t-15 36v648q0 21 15 36t36 15t36 -15t15 -36v-648z" />
    <glyph glyph-name="Idieresis" unicode="&#xcf;" horiz-adv-x="274" 
d="M214 830q-21 0 -35.5 14.5t-14.5 35.5q0 20 14.5 34.5t35.5 14.5h1q20 0 34.5 -14.5t14.5 -34.5q0 -21 -14.5 -35.5t-34.5 -14.5h-1zM62 830q-21 0 -35.5 14.5t-14.5 35.5q0 20 14.5 34.5t35.5 14.5h1q20 0 34.5 -14.5t14.5 -34.5q0 -21 -14.5 -35.5t-34.5 -14.5h-1z
M189 51q0 -21 -15 -36t-36 -15t-36 15t-15 36v648q0 21 15 36t36 15t36 -15t15 -36v-648z" />
    <glyph glyph-name="Ntilde" unicode="&#xd1;" horiz-adv-x="663" 
d="M268 851q-1 -8 -7 -14.5t-14 -6.5h-14q-16 0 -25 9.5t-7 25.5q6 41 22.5 67t41.5 33q18 6 20 -15v-9l1 -1q-1 12 -1.5 20t-1.5 8q15 0 35 -11.5t38.5 -25t32 -26t15.5 -13.5q4 -4 3 -2.5t3 4.5q13 8 16 44q1 8 7 14.5t14 6.5h14q15 0 24 -10t7 -25q-5 -38 -19.5 -63.5
t-36.5 -34.5q-14 -6 -20 -0.5t-7 20.5l-2 11l-3 35q1 -20 3 -35q1 -15 2 -25.5t2 -10.5q-15 0 -31.5 12t-32.5 26t-31 26t-27 12q-8 0 -13.5 -12.5t-7.5 -33.5zM130 8q0 -8 -7 -8q-8 0 -8 8v686q0 23 16.5 39.5t40.5 16.5h16q15 0 32.5 -11t23.5 -25l202 -442
q10 -22 29.5 -29.5t39 -3.5t34 19.5t14.5 39.5v445q0 7 8 7q7 0 7 -7v-682q0 -26 -17.5 -43.5t-42.5 -17.5h-21q-15 0 -32.5 11t-23.5 25l-194 424q-10 22 -29.5 30t-39 3.5t-34 -19.5t-14.5 -40v-426z" />
    <glyph glyph-name="Ograve" unicode="&#xd2;" horiz-adv-x="814" 
d="M404 830q-12 0 -29 9.5t-23 19.5l-43 70q-12 18 -2.5 34.5t30.5 16.5h18q16 0 33.5 -12t23.5 -28l27 -71q6 -15 -2.5 -27t-24.5 -12h-8zM173 375q0 -84 17 -152.5t48.5 -117t75.5 -75.5t98 -27t97.5 27t75 75.5t48.5 117t17 152.5q0 80 -18 148t-50 117.5t-75.5 78
t-94.5 28.5t-94.5 -28.5t-76 -78t-50.5 -117.5t-18 -148zM64 375q0 82 26.5 152.5t73 122t110.5 80.5t138 29t137.5 -29t110 -80.5t73 -122t26.5 -152.5q0 -86 -25 -157t-70.5 -121.5t-109.5 -78t-142 -27.5t-142.5 27.5t-110 78t-70.5 121.5t-25 157z" />
    <glyph glyph-name="Oacute" unicode="&#xd3;" horiz-adv-x="814" 
d="M412 830q-16 0 -24.5 12t-2.5 27l27 71q6 16 23.5 28t33.5 12h18q21 0 30.5 -16.5t-2.5 -34.5l-43 -70q-6 -10 -23 -19.5t-29 -9.5h-8zM173 375q0 -84 17 -152.5t48.5 -117t75.5 -75.5t98 -27t97.5 27t75 75.5t48.5 117t17 152.5q0 80 -18 148t-50 117.5t-75.5 78
t-94.5 28.5t-94.5 -28.5t-76 -78t-50.5 -117.5t-18 -148zM64 375q0 82 26.5 152.5t73 122t110.5 80.5t138 29t137.5 -29t110 -80.5t73 -122t26.5 -152.5q0 -86 -25 -157t-70.5 -121.5t-109.5 -78t-142 -27.5t-142.5 27.5t-110 78t-70.5 121.5t-25 157z" />
    <glyph glyph-name="Ocircumflex" unicode="&#xd4;" horiz-adv-x="814" 
d="M423 906q-8 4 -11 2t-10 -8l-59 -54q-5 -5 -20 -10.5t-22 -5.5h-17q-14 0 -19 11t3 21l80 96q5 7 21.5 14.5t25.5 7.5h34q9 0 25.5 -7.5t21.5 -14.5l80 -96q8 -10 3 -21t-18 -11h-12h-30q-14 17 -27 32q-12 14 -25 26t-24 18zM173 375q0 -84 17 -152.5t48.5 -117
t75.5 -75.5t98 -27t97.5 27t75 75.5t48.5 117t17 152.5q0 80 -18 148t-50 117.5t-75.5 78t-94.5 28.5t-94.5 -28.5t-76 -78t-50.5 -117.5t-18 -148zM64 375q0 82 26.5 152.5t73 122t110.5 80.5t138 29t137.5 -29t110 -80.5t73 -122t26.5 -152.5q0 -86 -25 -157t-70.5 -121.5
t-109.5 -78t-142 -27.5t-142.5 27.5t-110 78t-70.5 121.5t-25 157z" />
    <glyph glyph-name="Otilde" unicode="&#xd5;" horiz-adv-x="814" 
d="M333 851q-1 -8 -7 -14.5t-14 -6.5h-13q-16 0 -25 10t-7 25q5 41 21.5 67t41.5 33q18 6 20 -15v-9l1 -1q-1 12 -1.5 20t-1.5 8q15 0 35 -11.5t38.5 -25t32 -26t15.5 -13.5q4 -4 3 -2.5t3 4.5q13 8 16 44q1 8 7 14.5t14 6.5h14q15 0 24 -10t7 -25q-5 -38 -19.5 -63.5
t-36.5 -34.5q-14 -6 -20 -0.5t-7 20.5l-2 11l-3 35q1 -20 3 -35q1 -15 2 -25.5t2 -10.5q-15 0 -31 12t-32 26t-31 26t-27 12q-9 0 -14.5 -12.5t-7.5 -33.5zM173 375q0 -84 17 -152.5t48.5 -117t75.5 -75.5t98 -27t97.5 27t75 75.5t48.5 117t17 152.5q0 80 -18 148t-50 117.5
t-75.5 78t-94.5 28.5t-94.5 -28.5t-76 -78t-50.5 -117.5t-18 -148zM64 375q0 82 26.5 152.5t73 122t110.5 80.5t138 29t137.5 -29t110 -80.5t73 -122t26.5 -152.5q0 -86 -25 -157t-70.5 -121.5t-109.5 -78t-142 -27.5t-142.5 27.5t-110 78t-70.5 121.5t-25 157z" />
    <glyph glyph-name="Odieresis" unicode="&#xd6;" horiz-adv-x="814" 
d="M488 830q-21 0 -35.5 14.5t-14.5 35.5q0 20 14.5 34.5t35.5 14.5h1q20 0 34.5 -14.5t14.5 -34.5q0 -21 -14.5 -35.5t-34.5 -14.5h-1zM336 830q-21 0 -35.5 14.5t-14.5 35.5q0 20 14.5 34.5t35.5 14.5h1q20 0 34.5 -14.5t14.5 -34.5q0 -21 -14.5 -35.5t-34.5 -14.5h-1z
M173 375q0 -84 17 -152.5t48.5 -117t75.5 -75.5t98 -27t97.5 27t75 75.5t48.5 117t17 152.5q0 80 -18 148t-50 117.5t-75.5 78t-94.5 28.5t-94.5 -28.5t-76 -78t-50.5 -117.5t-18 -148zM64 375q0 82 26.5 152.5t73 122t110.5 80.5t138 29t137.5 -29t110 -80.5t73 -122
t26.5 -152.5q0 -86 -25 -157t-70.5 -121.5t-109.5 -78t-142 -27.5t-142.5 27.5t-110 78t-70.5 121.5t-25 157z" />
    <glyph glyph-name="Oslash" unicode="&#xd8;" horiz-adv-x="814" 
d="M64 376q0 82 26 152.5t73 122t110.5 81t137.5 29.5q53 0 100 -15t88 -43q11 -9 29.5 -8t27.5 12l26 31q6 7 21.5 14.5t25.5 7.5q9 0 12.5 -7.5t-2.5 -14.5l-48 -58q-10 -12 -9.5 -36t9.5 -37q32 -48 49.5 -106t17.5 -125q0 -86 -25 -157t-70.5 -121.5t-109.5 -78
t-142 -27.5q-111 0 -193 54q-11 8 -29.5 7t-27.5 -12l-23 -27q-6 -7 -21.5 -14.5t-24.5 -7.5q-10 0 -13.5 7.5t2.5 14.5l46 54q4 6 6.5 15.5t2.5 20t-2.5 20t-6.5 16.5q-31 47 -47 106t-16 129v1zM563 594q13 16 14 35t-11 35q-31 40 -70.5 62.5t-84.5 22.5
q-51 0 -94.5 -28.5t-76 -78t-50.5 -117.5t-18 -148q0 -50 6.5 -94.5t18.5 -83.5q3 -12 13 -14.5t18 6.5zM623 553q-4 12 -14 14.5t-18 -6.5l-335 -405q-13 -15 -14 -34t11 -34q31 -40 70.5 -61t87.5 -21q54 0 97.5 27t75 75.5t48.5 117t17 152.5q0 49 -7 93t-19 82z" />
    <glyph glyph-name="Ugrave" unicode="&#xd9;" horiz-adv-x="683" 
d="M337 821q-12 0 -29 9.5t-23 19.5l-43 70q-12 18 -2.5 34.5t30.5 16.5h18q16 0 33.5 -12t23.5 -28l27 -71q6 -15 -2.5 -27t-24.5 -12h-8zM588 743q0 7 8 7q7 0 7 -7v-449q0 -151 -65 -227t-193 -76t-193 75.5t-65 224.5v409q0 21 14.5 35.5t36.5 14.5q21 0 35.5 -14.5
t14.5 -35.5v-392q0 -151 39.5 -227t117.5 -76q121 0 182 73t61 219v446z" />
    <glyph glyph-name="Uacute" unicode="&#xda;" horiz-adv-x="683" 
d="M345 821q-16 0 -24.5 12t-2.5 27l27 71q6 16 23.5 28t33.5 12h18q21 0 30.5 -16.5t-2.5 -34.5l-43 -70q-6 -10 -23 -19.5t-29 -9.5h-8zM588 743q0 7 8 7q7 0 7 -7v-449q0 -151 -65 -227t-193 -76t-193 75.5t-65 224.5v409q0 21 14.5 35.5t36.5 14.5q21 0 35.5 -14.5
t14.5 -35.5v-392q0 -151 39.5 -227t117.5 -76q121 0 182 73t61 219v446z" />
    <glyph glyph-name="Ucircumflex" unicode="&#xdb;" horiz-adv-x="683" 
d="M356 897q-8 4 -11 2t-10 -8l-59 -54q-5 -5 -20 -10.5t-22 -5.5h-17q-14 0 -19 11t3 21l80 96q5 7 21.5 14.5t25.5 7.5h34q9 0 25.5 -7.5t21.5 -14.5l80 -96q8 -10 3 -21t-18 -11h-12h-30q-14 17 -27 32q-12 14 -25 26t-24 18zM588 743q0 7 8 7q7 0 7 -7v-449
q0 -151 -65 -227t-193 -76t-193 75.5t-65 224.5v409q0 21 14.5 35.5t36.5 14.5q21 0 35.5 -14.5t14.5 -35.5v-392q0 -151 39.5 -227t117.5 -76q121 0 182 73t61 219v446z" />
    <glyph glyph-name="Udieresis" unicode="&#xdc;" horiz-adv-x="683" 
d="M421 821q-21 0 -35.5 14.5t-14.5 35.5q0 20 14.5 34.5t35.5 14.5h1q20 0 34.5 -14.5t14.5 -34.5q0 -21 -14.5 -35.5t-34.5 -14.5h-1zM269 821q-21 0 -35.5 14.5t-14.5 35.5q0 20 14.5 34.5t35.5 14.5h1q20 0 34.5 -14.5t14.5 -34.5q0 -21 -14.5 -35.5t-34.5 -14.5h-1z
M588 743q0 7 8 7q7 0 7 -7v-449q0 -151 -65 -227t-193 -76t-193 75.5t-65 224.5v409q0 21 14.5 35.5t36.5 14.5q21 0 35.5 -14.5t14.5 -35.5v-392q0 -151 39.5 -227t117.5 -76q121 0 182 73t61 219v446z" />
    <glyph glyph-name="Yacute" unicode="&#xdd;" horiz-adv-x="599" 
d="M306 830q-16 0 -24.5 12t-2.5 27l27 71q6 16 23.5 28t33.5 12h18q21 0 30.5 -16.5t-2.5 -34.5l-43 -70q-6 -10 -23 -19.5t-29 -9.5h-8zM569 743q4 7 12 7l2 -1h6q-2 -3 -4 -7q-2 -3 -4.5 -7.5t-5.5 -10.5q-49 -86 -98 -171.5t-98 -171.5q-1 -1 -3 -6t-3.5 -10.5l-3 -11
t-1.5 -6.5v-297q0 -21 -15 -36t-36 -15t-36 15t-15 36v263q0 3 -2 13.5t-4 13.5q-54 92 -106.5 183.5t-105.5 184.5q-10 16 -1 29t28 13h22q11 0 24.5 -8t19.5 -17l14 -25l185 -324q3 -6 10 -6t10 6z" />
    <glyph glyph-name="Thorn" unicode="&#xde;" horiz-adv-x="624" 
d="M195 51q0 -22 -14.5 -36.5t-35.5 -14.5q-22 0 -36.5 14.5t-14.5 36.5v649q0 21 14.5 35.5t36.5 14.5q21 0 35.5 -14.5t14.5 -35.5v-39q0 -25 18 -43t43 -18h97q236 0 236 -225q0 -112 -59 -168.5t-177 -56.5h-97q-25 0 -43 -18t-18 -43v-38zM195 223q0 -25 18 -43t43 -18
h98q134 0 134 213t-136 213h-96q-25 0 -43 -18t-18 -43v-304z" />
    <glyph glyph-name="agrave" unicode="&#xe0;" 
d="M269 600q-12 0 -29 9.5t-23 19.5l-43 70q-12 18 -2.5 34.5t30.5 16.5h18q16 0 33.5 -12t23.5 -28l27 -71q6 -15 -2.5 -27t-24.5 -12h-8zM84 381q-6 2 -4 9q23 63 76.5 101t120.5 38q45 0 81.5 -10t62.5 -32.5t40 -57.5t14 -85v-257q0 -11 3.5 -15t20.5 -5q8 0 14.5 -6.5
t6.5 -14.5v-12q0 -15 -11 -24.5t-25 -9.5q-36 1 -56 4t-30 12t-12 26t-2 45v20q0 1 -2 -0.5t-3 -2.5q-16 -65 -56.5 -89t-97.5 -24q-97 0 -138 28.5t-41 74.5q0 67 48.5 107.5t129.5 40.5q36 0 65.5 6.5t50.5 22.5t32.5 43.5t11.5 68.5q0 73 -29.5 104t-77.5 31
q-63 0 -113 -36.5t-72 -96.5q-2 -6 -8 -4zM384 287q0 3 -5.5 5t-7.5 -2q-20 -32 -55.5 -44.5t-83.5 -12.5q-43 0 -69 -37t-26 -99q0 -44 21 -70.5t72 -26.5q32 0 59 7.5t47 26.5t32.5 50t15.5 78v125z" />
    <glyph glyph-name="aacute" unicode="&#xe1;" 
d="M277 600q-16 0 -24.5 12t-2.5 27l27 71q6 16 23.5 28t33.5 12h18q21 0 30.5 -16.5t-2.5 -34.5l-43 -70q-6 -10 -23 -19.5t-29 -9.5h-8zM84 381q-6 2 -4 9q23 63 76.5 101t120.5 38q45 0 81.5 -10t62.5 -32.5t40 -57.5t14 -85v-257q0 -11 3.5 -15t20.5 -5q8 0 14.5 -6.5
t6.5 -14.5v-12q0 -15 -11 -24.5t-25 -9.5q-36 1 -56 4t-30 12t-12 26t-2 45v20q0 1 -2 -0.5t-3 -2.5q-16 -65 -56.5 -89t-97.5 -24q-97 0 -138 28.5t-41 74.5q0 67 48.5 107.5t129.5 40.5q36 0 65.5 6.5t50.5 22.5t32.5 43.5t11.5 68.5q0 73 -29.5 104t-77.5 31
q-63 0 -113 -36.5t-72 -96.5q-2 -6 -8 -4zM384 287q0 3 -5.5 5t-7.5 -2q-20 -32 -55.5 -44.5t-83.5 -12.5q-43 0 -69 -37t-26 -99q0 -44 21 -70.5t72 -26.5q32 0 59 7.5t47 26.5t32.5 50t15.5 78v125z" />
    <glyph glyph-name="acircumflex" unicode="&#xe2;" 
d="M288 676q-8 4 -11 2t-10 -8l-59 -54q-5 -5 -20 -10.5t-22 -5.5h-17q-14 0 -19 11t3 21l80 96q5 7 21.5 14.5t25.5 7.5h34q9 0 25.5 -7.5t21.5 -14.5l80 -96q8 -10 3 -21t-18 -11h-12h-30q-14 17 -27 32q-12 14 -25 26t-24 18zM84 381q-6 2 -4 9q23 63 76.5 101t120.5 38
q45 0 81.5 -10t62.5 -32.5t40 -57.5t14 -85v-257q0 -11 3.5 -15t20.5 -5q8 0 14.5 -6.5t6.5 -14.5v-12q0 -15 -11 -24.5t-25 -9.5q-36 1 -56 4t-30 12t-12 26t-2 45v20q0 1 -2 -0.5t-3 -2.5q-16 -65 -56.5 -89t-97.5 -24q-97 0 -138 28.5t-41 74.5q0 67 48.5 107.5
t129.5 40.5q36 0 65.5 6.5t50.5 22.5t32.5 43.5t11.5 68.5q0 73 -29.5 104t-77.5 31q-63 0 -113 -36.5t-72 -96.5q-2 -6 -8 -4zM384 287q0 3 -5.5 5t-7.5 -2q-20 -32 -55.5 -44.5t-83.5 -12.5q-43 0 -69 -37t-26 -99q0 -44 21 -70.5t72 -26.5q32 0 59 7.5t47 26.5t32.5 50
t15.5 78v125z" />
    <glyph glyph-name="atilde" unicode="&#xe3;" 
d="M198 621q-1 -8 -7 -14.5t-14 -6.5h-13q-16 0 -25 10t-7 25q5 41 21.5 67t41.5 33q18 6 20 -15v-9l1 -1q-1 12 -1.5 20t-1.5 8q15 0 35 -11.5t38.5 -25t32 -26t15.5 -13.5q4 -4 3 -2.5t3 4.5q13 8 16 44q1 8 7 14.5t14 6.5h14q15 0 24 -10t7 -25q-5 -38 -19.5 -63.5
t-36.5 -34.5q-14 -6 -20 -0.5t-7 20.5l-2 11l-3 35q1 -20 3 -35q1 -15 2 -25.5t2 -10.5q-15 0 -31 12t-32 26t-31 26t-27 12q-9 0 -14.5 -12.5t-7.5 -33.5zM84 381q-6 2 -4 9q23 63 76.5 101t120.5 38q45 0 81.5 -10t62.5 -32.5t40 -57.5t14 -85v-257q0 -11 3.5 -15t20.5 -5
q8 0 14.5 -6.5t6.5 -14.5v-12q0 -15 -11 -24.5t-25 -9.5q-36 1 -56 4t-30 12t-12 26t-2 45v20q0 1 -2 -0.5t-3 -2.5q-16 -65 -56.5 -89t-97.5 -24q-97 0 -138 28.5t-41 74.5q0 67 48.5 107.5t129.5 40.5q36 0 65.5 6.5t50.5 22.5t32.5 43.5t11.5 68.5q0 73 -29.5 104
t-77.5 31q-63 0 -113 -36.5t-72 -96.5q-2 -6 -8 -4zM384 287q0 3 -5.5 5t-7.5 -2q-20 -32 -55.5 -44.5t-83.5 -12.5q-43 0 -69 -37t-26 -99q0 -44 21 -70.5t72 -26.5q32 0 59 7.5t47 26.5t32.5 50t15.5 78v125z" />
    <glyph glyph-name="adieresis" unicode="&#xe4;" 
d="M375 600q-21 0 -35.5 14.5t-14.5 35.5q0 20 14.5 34.5t35.5 14.5q20 0 34.5 -14.5t14.5 -34.5q0 -21 -14.5 -35.5t-34.5 -14.5zM180 600q-21 0 -35.5 14.5t-14.5 35.5q0 20 14.5 34.5t35.5 14.5h1q20 0 34.5 -14.5t14.5 -34.5q0 -21 -14.5 -35.5t-34.5 -14.5h-1zM84 381
q-6 2 -4 9q23 63 76.5 101t120.5 38q45 0 81.5 -10t62.5 -32.5t40 -57.5t14 -85v-257q0 -11 3.5 -15t20.5 -5q8 0 14.5 -6.5t6.5 -14.5v-12q0 -15 -11 -24.5t-25 -9.5q-36 1 -56 4t-30 12t-12 26t-2 45v20q0 1 -2 -0.5t-3 -2.5q-16 -65 -56.5 -89t-97.5 -24q-97 0 -138 28.5
t-41 74.5q0 67 48.5 107.5t129.5 40.5q36 0 65.5 6.5t50.5 22.5t32.5 43.5t11.5 68.5q0 73 -29.5 104t-77.5 31q-63 0 -113 -36.5t-72 -96.5q-2 -6 -8 -4zM384 287q0 3 -5.5 5t-7.5 -2q-20 -32 -55.5 -44.5t-83.5 -12.5q-43 0 -69 -37t-26 -99q0 -44 21 -70.5t72 -26.5
q32 0 59 7.5t47 26.5t32.5 50t15.5 78v125z" />
    <glyph glyph-name="aring" unicode="&#xe5;" 
d="M239 685q0 -43 38 -43t38 43q0 20 -10 31t-28 11t-28 -11t-10 -31zM193 685q0 40 22 62t62 22t62 -22t22 -62q0 -85 -84 -85t-84 85zM84 381q-6 2 -4 9q23 63 76.5 101t120.5 38q45 0 81.5 -10t62.5 -32.5t40 -57.5t14 -85v-257q0 -11 3.5 -15t20.5 -5q8 0 14.5 -6.5
t6.5 -14.5v-12q0 -15 -11 -24.5t-25 -9.5q-36 1 -56 4t-30 12t-12 26t-2 45v20q0 1 -2 -0.5t-3 -2.5q-16 -65 -56.5 -89t-97.5 -24q-97 0 -138 28.5t-41 74.5q0 67 48.5 107.5t129.5 40.5q36 0 65.5 6.5t50.5 22.5t32.5 43.5t11.5 68.5q0 73 -29.5 104t-77.5 31
q-63 0 -113 -36.5t-72 -96.5q-2 -6 -8 -4zM384 287q0 3 -5.5 5t-7.5 -2q-20 -32 -55.5 -44.5t-83.5 -12.5q-43 0 -69 -37t-26 -99q0 -44 21 -70.5t72 -26.5q32 0 59 7.5t47 26.5t32.5 50t15.5 78v125z" />
    <glyph glyph-name="ccedilla" unicode="&#xe7;" horiz-adv-x="537" 
d="M493 134q2 6 8 3q6 -4 4 -10q-25 -62 -74 -99t-106 -37q-9 0 -17.5 0.5t-17.5 1.5q-7 0 -10 -6l-41 -93q-1 -2 -2 -0.5t-2 2.5l1 3l21 46q7 17 -1 35t-26 23q-81 21 -127.5 84t-46.5 173q0 70 19.5 120.5t54.5 83.5t85 49t110 16q56 0 100.5 -43t78.5 -110q3 -7 -3 -9
q-6 -3 -9 4q-34 66 -75.5 106.5t-91.5 40.5q-76 0 -123 -62t-47 -196q0 -133 47 -195.5t123 -62.5q53 0 98.5 36t69.5 96zM243 -102q-1 -2 -1 -1q11 18 37 18q40 0 64.5 -16.5t24.5 -42.5q0 -44 -24.5 -70t-65.5 -26q-26 0 -38 17.5t-8 47.5q1 3 4 5t3 -2q-1 -11 9.5 -17.5
t27.5 -6.5q18 0 29 14.5t11 37.5t-10.5 37.5t-27.5 14.5q-24 0 -35 -10z" />
    <glyph glyph-name="egrave" unicode="&#xe8;" horiz-adv-x="543" 
d="M283 600q-12 0 -29 9.5t-23 19.5l-43 70q-12 18 -2.5 34.5t30.5 16.5h18q16 0 33.5 -12t23.5 -28l27 -71q6 -15 -2.5 -27t-24.5 -12h-8zM498 133q2 6 9 4q6 -3 4 -9q-9 -31 -30 -56.5t-50.5 -43t-66.5 -27.5t-79 -10q-51 0 -93.5 16t-72.5 49t-46.5 83.5t-16.5 120.5
t17 120.5t47.5 83.5t74 49t96.5 16q55 0 96.5 -15.5t69.5 -44t44 -69t22 -90.5q3 -28 -13.5 -44t-44.5 -16h-248q-28 0 -45 -16t-14 -44q9 -97 42.5 -142.5t84.5 -45.5q79 0 137 36t76 95zM373 260q28 0 44.5 19t13.5 47q-8 89 -41.5 140.5t-98.5 51.5q-54 0 -89.5 -47
t-44.5 -149q-2 -27 15 -44.5t44 -17.5h157z" />
    <glyph glyph-name="eacute" unicode="&#xe9;" horiz-adv-x="543" 
d="M291 600q-16 0 -24.5 12t-2.5 27l27 71q6 16 23.5 28t33.5 12h18q21 0 30.5 -16.5t-2.5 -34.5l-43 -70q-6 -10 -23 -19.5t-29 -9.5h-8zM498 133q2 6 9 4q6 -3 4 -9q-9 -31 -30 -56.5t-50.5 -43t-66.5 -27.5t-79 -10q-51 0 -93.5 16t-72.5 49t-46.5 83.5t-16.5 120.5
t17 120.5t47.5 83.5t74 49t96.5 16q55 0 96.5 -15.5t69.5 -44t44 -69t22 -90.5q3 -28 -13.5 -44t-44.5 -16h-248q-28 0 -45 -16t-14 -44q9 -97 42.5 -142.5t84.5 -45.5q79 0 137 36t76 95zM373 260q28 0 44.5 19t13.5 47q-8 89 -41.5 140.5t-98.5 51.5q-54 0 -89.5 -47
t-44.5 -149q-2 -27 15 -44.5t44 -17.5h157z" />
    <glyph glyph-name="ecircumflex" unicode="&#xea;" horiz-adv-x="543" 
d="M302 676q-8 4 -11 2t-10 -8l-59 -54q-5 -5 -20 -10.5t-22 -5.5h-17q-14 0 -19 11t3 21l80 96q5 7 21.5 14.5t25.5 7.5h34q9 0 25.5 -7.5t21.5 -14.5l80 -96q8 -10 3 -21t-18 -11h-12h-30q-14 17 -27 32q-12 14 -25 26t-24 18zM498 133q2 6 9 4q6 -3 4 -9
q-9 -31 -30 -56.5t-50.5 -43t-66.5 -27.5t-79 -10q-51 0 -93.5 16t-72.5 49t-46.5 83.5t-16.5 120.5t17 120.5t47.5 83.5t74 49t96.5 16q55 0 96.5 -15.5t69.5 -44t44 -69t22 -90.5q3 -28 -13.5 -44t-44.5 -16h-248q-28 0 -45 -16t-14 -44q9 -97 42.5 -142.5t84.5 -45.5
q79 0 137 36t76 95zM373 260q28 0 44.5 19t13.5 47q-8 89 -41.5 140.5t-98.5 51.5q-54 0 -89.5 -47t-44.5 -149q-2 -27 15 -44.5t44 -17.5h157z" />
    <glyph glyph-name="edieresis" unicode="&#xeb;" horiz-adv-x="543" 
d="M367 600q-21 0 -35.5 14.5t-14.5 35.5q0 20 14.5 34.5t35.5 14.5h1q20 0 34.5 -14.5t14.5 -34.5q0 -21 -14.5 -35.5t-34.5 -14.5h-1zM215 600q-21 0 -35.5 14.5t-14.5 35.5q0 20 14.5 34.5t35.5 14.5h1q20 0 34.5 -14.5t14.5 -34.5q0 -21 -14.5 -35.5t-34.5 -14.5h-1z
M498 133q2 6 9 4q6 -3 4 -9q-9 -31 -30 -56.5t-50.5 -43t-66.5 -27.5t-79 -10q-51 0 -93.5 16t-72.5 49t-46.5 83.5t-16.5 120.5t17 120.5t47.5 83.5t74 49t96.5 16q55 0 96.5 -15.5t69.5 -44t44 -69t22 -90.5q3 -28 -13.5 -44t-44.5 -16h-248q-28 0 -45 -16t-14 -44
q9 -97 42.5 -142.5t84.5 -45.5q79 0 137 36t76 95zM373 260q28 0 44.5 19t13.5 47q-8 89 -41.5 140.5t-98.5 51.5q-54 0 -89.5 -47t-44.5 -149q-2 -27 15 -44.5t44 -17.5h157z" />
    <glyph glyph-name="igrave" unicode="&#xec;" horiz-adv-x="283" 
d="M159 600q-12 0 -29 9.5t-23 19.5l-43 70q-12 18 -2.5 34.5t30.5 16.5h18q16 0 33.5 -12t23.5 -28l27 -71q6 -15 -2.5 -27t-24.5 -12h-8zM167 0q-19 0 -32.5 13.5t-13.5 32.5v428q0 19 13.5 32.5t32.5 13.5t32.5 -13.5t13.5 -32.5v-428q0 -19 -13.5 -32.5t-32.5 -13.5z
" />
    <glyph glyph-name="iacute" unicode="&#xed;" horiz-adv-x="283" 
d="M167 600q-16 0 -24.5 12t-2.5 27l27 71q6 16 23.5 28t33.5 12h18q21 0 30.5 -16.5t-2.5 -34.5l-43 -70q-6 -10 -23 -19.5t-29 -9.5h-8zM167 0q-19 0 -32.5 13.5t-13.5 32.5v428q0 19 13.5 32.5t32.5 13.5t32.5 -13.5t13.5 -32.5v-428q0 -19 -13.5 -32.5t-32.5 -13.5z" />
    <glyph glyph-name="icircumflex" unicode="&#xee;" horiz-adv-x="283" 
d="M178 676q-8 4 -11 2t-10 -8l-59 -54q-5 -5 -20 -10.5t-22 -5.5h-17q-14 0 -19 11t3 21l80 96q5 7 21.5 14.5t25.5 7.5h34q9 0 25.5 -7.5t21.5 -14.5l80 -96q8 -10 3 -21t-18 -11h-12h-30q-14 17 -27 32q-12 14 -25 26t-24 18zM167 0q-19 0 -32.5 13.5t-13.5 32.5v428
q0 19 13.5 32.5t32.5 13.5t32.5 -13.5t13.5 -32.5v-428q0 -19 -13.5 -32.5t-32.5 -13.5z" />
    <glyph glyph-name="idieresis" unicode="&#xef;" horiz-adv-x="283" 
d="M265 600q-21 0 -35.5 14.5t-14.5 35.5q0 20 14.5 34.5t35.5 14.5q20 0 34.5 -14.5t14.5 -34.5q0 -21 -14.5 -35.5t-34.5 -14.5zM70 600q-21 0 -35.5 14.5t-14.5 35.5q0 20 14.5 34.5t35.5 14.5h1q20 0 34.5 -14.5t14.5 -34.5q0 -21 -14.5 -35.5t-34.5 -14.5h-1zM167 0
q-19 0 -32.5 13.5t-13.5 32.5v428q0 19 13.5 32.5t32.5 13.5t32.5 -13.5t13.5 -32.5v-428q0 -19 -13.5 -32.5t-32.5 -13.5z" />
    <glyph glyph-name="ntilde" unicode="&#xf1;" horiz-adv-x="544" 
d="M199 621q-1 -8 -7 -14.5t-14 -6.5h-14q-16 0 -25 9.5t-7 25.5q6 41 22.5 67t41.5 33q18 6 20 -15v-9l1 -1q-1 12 -1.5 20t-1.5 8q15 0 35 -11.5t38.5 -25t32 -26t15.5 -13.5q4 -4 3 -2.5t3 4.5q13 8 16 44q1 8 7 14.5t14 6.5h14q15 0 24 -10t7 -25q-5 -38 -19.5 -63.5
t-36.5 -34.5q-14 -6 -20 -0.5t-7 20.5l-2 11l-3 35q1 -20 3 -35q1 -15 2 -25.5t2 -10.5q-15 0 -31.5 12t-32.5 26t-31 26t-27 12q-8 0 -13.5 -12.5t-7.5 -33.5zM479 46q0 -19 -13.5 -32.5t-32.5 -14.5q-19 0 -32.5 13.5t-13.5 32.5v269q0 98 -15.5 147.5t-41.5 49.5
q-37 0 -67 -13t-51.5 -37t-33.5 -57.5t-12 -74.5v-284q0 -19 -13.5 -32.5t-31.5 -13.5q-19 0 -32.5 13.5t-13.5 32.5v429q0 18 13.5 31.5t32.5 13.5q18 0 31.5 -13.5t13.5 -31.5v-48q0 -4 6 -4.5t8 2.5q20 47 60.5 74t95.5 27q65 0 104 -52.5t39 -157.5v-269z" />
    <glyph glyph-name="ograve" unicode="&#xf2;" horiz-adv-x="590" 
d="M290 600q-12 0 -29 9.5t-23 19.5l-43 70q-12 18 -2.5 34.5t30.5 16.5h18q16 0 33.5 -12t23.5 -28l27 -71q6 -15 -2.5 -27t-24.5 -12h-8zM155 260q0 -58 8.5 -106t26 -82t44.5 -52.5t64 -18.5q65 0 104 62.5t39 196.5q0 58 -8.5 106t-26 82t-44.5 52.5t-64 18.5
q-64 0 -103.5 -62.5t-39.5 -196.5zM56 260q0 70 17.5 120.5t49 83.5t76.5 49t99 16q63 0 108.5 -19.5t75 -54.5t44 -85t14.5 -110q0 -70 -17.5 -120.5t-49 -83.5t-76.5 -49t-99 -16q-63 0 -108.5 19.5t-75 54.5t-44 85t-14.5 110z" />
    <glyph glyph-name="oacute" unicode="&#xf3;" horiz-adv-x="590" 
d="M298 600q-16 0 -24.5 12t-2.5 27l27 71q6 16 23.5 28t33.5 12h18q21 0 30.5 -16.5t-2.5 -34.5l-43 -70q-6 -10 -23 -19.5t-29 -9.5h-8zM155 260q0 -58 8.5 -106t26 -82t44.5 -52.5t64 -18.5q65 0 104 62.5t39 196.5q0 58 -8.5 106t-26 82t-44.5 52.5t-64 18.5
q-64 0 -103.5 -62.5t-39.5 -196.5zM56 260q0 70 17.5 120.5t49 83.5t76.5 49t99 16q63 0 108.5 -19.5t75 -54.5t44 -85t14.5 -110q0 -70 -17.5 -120.5t-49 -83.5t-76.5 -49t-99 -16q-63 0 -108.5 19.5t-75 54.5t-44 85t-14.5 110z" />
    <glyph glyph-name="ocircumflex" unicode="&#xf4;" horiz-adv-x="590" 
d="M309 676q-8 4 -11 2t-10 -8l-59 -54q-5 -5 -20 -10.5t-22 -5.5h-17q-14 0 -19 11t3 21l80 96q5 7 21.5 14.5t25.5 7.5h34q9 0 25.5 -7.5t21.5 -14.5l80 -96q8 -10 3 -21t-18 -11h-12h-30q-14 17 -27 32q-12 14 -25 26t-24 18zM155 260q0 -58 8.5 -106t26 -82t44.5 -52.5
t64 -18.5q65 0 104 62.5t39 196.5q0 58 -8.5 106t-26 82t-44.5 52.5t-64 18.5q-64 0 -103.5 -62.5t-39.5 -196.5zM56 260q0 70 17.5 120.5t49 83.5t76.5 49t99 16q63 0 108.5 -19.5t75 -54.5t44 -85t14.5 -110q0 -70 -17.5 -120.5t-49 -83.5t-76.5 -49t-99 -16
q-63 0 -108.5 19.5t-75 54.5t-44 85t-14.5 110z" />
    <glyph glyph-name="otilde" unicode="&#xf5;" horiz-adv-x="590" 
d="M219 621q-1 -8 -7 -14.5t-14 -6.5h-13q-16 0 -25 10t-7 25q5 41 21.5 67t41.5 33q18 6 20 -15v-9l1 -1q-1 12 -1.5 20t-1.5 8q15 0 35 -11.5t38.5 -25t32 -26t15.5 -13.5q4 -4 3 -2.5t3 4.5q13 8 16 44q1 8 7 14.5t14 6.5h14q15 0 24 -10t7 -25q-5 -38 -19.5 -63.5
t-36.5 -34.5q-14 -6 -20 -0.5t-7 20.5l-2 11l-3 35q1 -20 3 -35q1 -15 2 -25.5t2 -10.5q-15 0 -31 12t-32 26t-31 26t-27 12q-9 0 -14.5 -12.5t-7.5 -33.5zM155 260q0 -58 8.5 -106t26 -82t44.5 -52.5t64 -18.5q65 0 104 62.5t39 196.5q0 58 -8.5 106t-26 82t-44.5 52.5
t-64 18.5q-64 0 -103.5 -62.5t-39.5 -196.5zM56 260q0 70 17.5 120.5t49 83.5t76.5 49t99 16q63 0 108.5 -19.5t75 -54.5t44 -85t14.5 -110q0 -70 -17.5 -120.5t-49 -83.5t-76.5 -49t-99 -16q-63 0 -108.5 19.5t-75 54.5t-44 85t-14.5 110z" />
    <glyph glyph-name="odieresis" unicode="&#xf6;" horiz-adv-x="590" 
d="M374 600q-21 0 -35.5 14.5t-14.5 35.5q0 20 14.5 34.5t35.5 14.5h1q20 0 34.5 -14.5t14.5 -34.5q0 -21 -14.5 -35.5t-34.5 -14.5h-1zM222 600q-21 0 -35.5 14.5t-14.5 35.5q0 20 14.5 34.5t35.5 14.5h1q20 0 34.5 -14.5t14.5 -34.5q0 -21 -14.5 -35.5t-34.5 -14.5h-1z
M155 260q0 -58 8.5 -106t26 -82t44.5 -52.5t64 -18.5q65 0 104 62.5t39 196.5q0 58 -8.5 106t-26 82t-44.5 52.5t-64 18.5q-64 0 -103.5 -62.5t-39.5 -196.5zM56 260q0 70 17.5 120.5t49 83.5t76.5 49t99 16q63 0 108.5 -19.5t75 -54.5t44 -85t14.5 -110q0 -70 -17.5 -120.5
t-49 -83.5t-76.5 -49t-99 -16q-63 0 -108.5 19.5t-75 54.5t-44 85t-14.5 110z" />
    <glyph glyph-name="oslash" unicode="&#xf8;" horiz-adv-x="590" 
d="M56 260q0 70 17.5 120.5t49 83.5t76.5 49t99 16q83 0 138 -35q8 -5 20 -4t18 8l13 16q4 5 15.5 10t17.5 5t8.5 -5t-1.5 -10l-27 -33q-7 -8 -6.5 -25t6.5 -26q20 -33 30 -76t10 -93q0 -70 -17.5 -120.5t-49 -83.5t-76.5 -49t-99 -16q-83 0 -138 35q-8 5 -20 4t-18 -8
l-13 -16q-4 -5 -15.5 -10t-17.5 -5t-8.5 5t1.5 10l27 33q7 8 6.5 25t-6.5 26q-20 33 -30 76t-10 93zM396 403q9 11 11.5 25.5t-4.5 27.5q-18 31 -44 47.5t-61 16.5q-64 0 -103.5 -62.5t-39.5 -196.5q0 -61 10 -112q1 -7 6.5 -9t9.5 3zM432 372q-1 7 -6.5 9t-9.5 -3
l-216 -261q-9 -11 -11.5 -25.5t5.5 -26.5q17 -31 43.5 -47.5t61.5 -16.5q65 0 104 62.5t39 196.5q0 61 -10 112z" />
    <glyph glyph-name="ugrave" unicode="&#xf9;" horiz-adv-x="538" 
d="M262 600q-12 0 -29 9.5t-23 19.5l-44 70q-11 18 -2 34.5t31 16.5h17q16 0 33.5 -12t23.5 -28l27 -71q6 -15 -2 -27t-24 -12h-8zM468 45q0 -19 -13 -32t-32 -13t-32 13t-13 32v26q0 3 -5 3.5t-6 -2.5q-18 -38 -51.5 -59.5t-79.5 -21.5q-48 0 -80 12.5t-51 37.5t-26.5 62.5
t-7.5 86.5v285q0 18 13.5 31.5t32.5 13.5q18 0 31.5 -13.5t13.5 -31.5v-285q0 -93 16 -140t63 -47q62 0 99 39.5t37 105.5v327q0 18 13.5 31.5t32.5 13.5q18 0 31.5 -13.5t13.5 -31.5v-430z" />
    <glyph glyph-name="uacute" unicode="&#xfa;" horiz-adv-x="538" 
d="M270 600q-17 0 -25 12t-2 27l27 71q6 16 23.5 28t33.5 12h18q21 0 30 -16.5t-2 -34.5l-44 -70q-6 -10 -23 -19.5t-29 -9.5h-7zM468 45q0 -19 -13 -32t-32 -13t-32 13t-13 32v26q0 3 -5 3.5t-6 -2.5q-18 -38 -51.5 -59.5t-79.5 -21.5q-48 0 -80 12.5t-51 37.5t-26.5 62.5
t-7.5 86.5v285q0 18 13.5 31.5t32.5 13.5q18 0 31.5 -13.5t13.5 -31.5v-285q0 -93 16 -140t63 -47q62 0 99 39.5t37 105.5v327q0 18 13.5 31.5t32.5 13.5q18 0 31.5 -13.5t13.5 -31.5v-430z" />
    <glyph glyph-name="ucircumflex" unicode="&#xfb;" horiz-adv-x="538" 
d="M281 676q-8 4 -11 2t-10 -8l-59 -54q-5 -5 -20 -10.5t-22 -5.5h-17q-14 0 -19 11t3 21l79 96q6 7 22 14.5t25 7.5h35q9 0 25.5 -7.5t21.5 -14.5l79 -96q9 -10 3.5 -21t-18.5 -11h-12h-30q-13 17 -27 32q-12 14 -24.5 26t-23.5 18zM468 45q0 -19 -13 -32t-32 -13t-32 13
t-13 32v26q0 3 -5 3.5t-6 -2.5q-18 -38 -51.5 -59.5t-79.5 -21.5q-48 0 -80 12.5t-51 37.5t-26.5 62.5t-7.5 86.5v285q0 18 13.5 31.5t32.5 13.5q18 0 31.5 -13.5t13.5 -31.5v-285q0 -93 16 -140t63 -47q62 0 99 39.5t37 105.5v327q0 18 13.5 31.5t32.5 13.5
q18 0 31.5 -13.5t13.5 -31.5v-430z" />
    <glyph glyph-name="udieresis" unicode="&#xfc;" horiz-adv-x="538" 
d="M346 600q-21 0 -35.5 14.5t-14.5 35.5q0 20 14.5 34.5t35.5 14.5q20 0 34.5 -14.5t14.5 -34.5q0 -21 -14.5 -35.5t-34.5 -14.5zM194 600q-21 0 -35.5 14.5t-14.5 35.5q0 20 14.5 34.5t35.5 14.5q20 0 34.5 -14.5t14.5 -34.5q0 -21 -14.5 -35.5t-34.5 -14.5zM468 45
q0 -19 -13 -32t-32 -13t-32 13t-13 32v26q0 3 -5 3.5t-6 -2.5q-18 -38 -51.5 -59.5t-79.5 -21.5q-48 0 -80 12.5t-51 37.5t-26.5 62.5t-7.5 86.5v285q0 18 13.5 31.5t32.5 13.5q18 0 31.5 -13.5t13.5 -31.5v-285q0 -93 16 -140t63 -47q62 0 99 39.5t37 105.5v327
q0 18 13.5 31.5t32.5 13.5q18 0 31.5 -13.5t13.5 -31.5v-430z" />
    <glyph glyph-name="yacute" unicode="&#xfd;" horiz-adv-x="467" 
d="M237 600q-17 0 -25 12t-2 27l27 71q6 16 23.5 28t33.5 12h18q21 0 30 -16.5t-2 -34.5l-44 -70q-6 -10 -23 -19.5t-29 -9.5h-7zM245 -57q-15 -42 -29.5 -69.5t-31.5 -44t-37.5 -23.5t-47.5 -7h-44q-6 0 -6 6t6 6h44q25 0 44 6.5t34 22t28.5 41.5t28.5 66l2 6q1 2 0.5 6
t-0.5 6l-203 506q-7 19 3 33.5t30 14.5h24q10 0 21.5 -7.5t15.5 -17.5l10 -25l90 -225q8 -20 24 -30t34 -10t33.5 11t23.5 31l81 226l7 22l7 19q3 8 11 8t5 -8l-4 -12l-10 -31l-143 -394l-49 -134z" />
    <glyph glyph-name="thorn" unicode="&#xfe;" horiz-adv-x="599" 
d="M122 750h23q9 0 15.5 -6.5t6.5 -15.5v-320q0 -4 7 -6t8 2q23 64 68 94.5t105 30.5q44 0 79.5 -19.5t61 -54.5t39.5 -85t14 -110t-14 -110t-39.5 -85t-61 -54.5t-79.5 -19.5q-60 0 -105 30.5t-68 94.5q-1 4 -8 2t-7 -6v-317q0 -18 -13.5 -31.5t-31.5 -13.5
q-19 0 -32.5 13.5t-13.5 31.5v932q0 10 6.5 16.5t16.5 6.5h23zM167 260q0 -127 49 -186t129 -59q24 0 43 17.5t33 50t21.5 77.5t7.5 100q0 58 -7 105.5t-20.5 81.5t-31.5 52.5t-41 18.5q-82 0 -132.5 -62t-50.5 -196z" />
    <glyph glyph-name="ydieresis" unicode="&#xff;" horiz-adv-x="467" 
d="M313 600q-21 0 -35.5 14.5t-14.5 35.5q0 20 14.5 34.5t35.5 14.5q20 0 34.5 -14.5t14.5 -34.5q0 -21 -14.5 -35.5t-34.5 -14.5zM161 600q-21 0 -35.5 14.5t-14.5 35.5q0 20 14.5 34.5t35.5 14.5q20 0 34.5 -14.5t14.5 -34.5q0 -21 -14.5 -35.5t-34.5 -14.5zM245 -57
q-15 -42 -29.5 -69.5t-31.5 -44t-37.5 -23.5t-47.5 -7h-44q-6 0 -6 6t6 6h44q25 0 44 6.5t34 22t28.5 41.5t28.5 66l2 6q1 2 0.5 6t-0.5 6l-203 506q-7 19 3 33.5t30 14.5h24q10 0 21.5 -7.5t15.5 -17.5l10 -25l90 -225q8 -20 24 -30t34 -10t33.5 11t23.5 31l81 226l7 22
l7 19q3 8 11 8t5 -8l-4 -12l-10 -31l-143 -394l-49 -134z" />
    <glyph glyph-name="Amacron" unicode="&#x100;" horiz-adv-x="748" 
d="M283 830q-13 0 -22.5 9.5t-9.5 22.5t9.5 22.5t22.5 9.5h216q13 0 22.5 -9.5t9.5 -22.5t-9.5 -22.5t-22.5 -9.5h-216zM314 700l9 25l5 13q2 4 7.5 8t10.5 4h56q16 0 33.5 -12t23.5 -27l259 -660q8 -20 -2.5 -35.5t-31.5 -15.5h-42q-5 0 -10.5 4t-7.5 9l-5 12l-6 17
l-66 167q-6 15 -23.5 27t-33.5 12h-295q-16 0 -33.5 -12t-23.5 -27l-66 -167l-6 -17l-7 -18q-3 -7 -11 -7t-5 7l270 693h1zM191 344q-13 -33 4.5 -58.5t52.5 -25.5h190q35 0 52.5 25.5t4.5 58.5l-95 245q-8 20 -24 30.5t-33 10.5t-33 -10.5t-24 -30.5z" />
    <glyph glyph-name="amacron" unicode="&#x101;" 
d="M169 600q-13 0 -22.5 9.5t-9.5 22.5t9.5 22.5t22.5 9.5h216q13 0 22.5 -9.5t9.5 -22.5t-9.5 -22.5t-22.5 -9.5h-216zM84 381q-6 2 -4 9q23 63 76.5 101t120.5 38q45 0 81.5 -10t62.5 -32.5t40 -57.5t14 -85v-257q0 -11 3.5 -15t20.5 -5q8 0 14.5 -6.5t6.5 -14.5v-12
q0 -15 -11 -24.5t-25 -9.5q-36 1 -56 4t-30 12t-12 26t-2 45v20q0 1 -2 -0.5t-3 -2.5q-16 -65 -56.5 -89t-97.5 -24q-97 0 -138 28.5t-41 74.5q0 67 48.5 107.5t129.5 40.5q36 0 65.5 6.5t50.5 22.5t32.5 43.5t11.5 68.5q0 73 -29.5 104t-77.5 31q-63 0 -113 -36.5
t-72 -96.5q-2 -6 -8 -4zM384 287q0 3 -5.5 5t-7.5 -2q-20 -32 -55.5 -44.5t-83.5 -12.5q-43 0 -69 -37t-26 -99q0 -44 21 -70.5t72 -26.5q32 0 59 7.5t47 26.5t32.5 50t15.5 78v125z" />
    <glyph glyph-name="Abreve" unicode="&#x102;" horiz-adv-x="748" 
d="M248 923q-4 17 4.5 26t25.5 9h12q7 0 15 -7.5t10 -14.5q6 -24 26.5 -37.5t49.5 -13.5t49.5 13.5t26.5 37.5q2 7 10 14.5t15 7.5h12q17 0 25 -9t4 -26q-11 -47 -48.5 -74.5t-93.5 -27.5t-94 27.5t-49 74.5zM314 700l9 25l5 13q2 4 7.5 8t10.5 4h56q16 0 33.5 -12t23.5 -27
l259 -660q8 -20 -2.5 -35.5t-31.5 -15.5h-42q-5 0 -10.5 4t-7.5 9l-5 12l-6 17l-66 167q-6 15 -23.5 27t-33.5 12h-295q-16 0 -33.5 -12t-23.5 -27l-66 -167l-6 -17l-7 -18q-3 -7 -11 -7t-5 7l270 693h1zM191 344q-13 -33 4.5 -58.5t52.5 -25.5h190q35 0 52.5 25.5t4.5 58.5
l-95 245q-8 20 -24 30.5t-33 10.5t-33 -10.5t-24 -30.5z" />
    <glyph glyph-name="abreve" unicode="&#x103;" 
d="M134 693q-4 17 4.5 26t25.5 9h12q7 0 15 -7.5t10 -14.5q6 -24 26.5 -37.5t49.5 -13.5t49.5 13.5t26.5 37.5q2 7 10 14.5t15 7.5h12q17 0 25 -9t4 -26q-11 -47 -48.5 -74.5t-93.5 -27.5t-94 27.5t-49 74.5zM84 381q-6 2 -4 9q23 63 76.5 101t120.5 38q45 0 81.5 -10
t62.5 -32.5t40 -57.5t14 -85v-257q0 -11 3.5 -15t20.5 -5q8 0 14.5 -6.5t6.5 -14.5v-12q0 -15 -11 -24.5t-25 -9.5q-36 1 -56 4t-30 12t-12 26t-2 45v20q0 1 -2 -0.5t-3 -2.5q-16 -65 -56.5 -89t-97.5 -24q-97 0 -138 28.5t-41 74.5q0 67 48.5 107.5t129.5 40.5
q36 0 65.5 6.5t50.5 22.5t32.5 43.5t11.5 68.5q0 73 -29.5 104t-77.5 31q-63 0 -113 -36.5t-72 -96.5q-2 -6 -8 -4zM384 287q0 3 -5.5 5t-7.5 -2q-20 -32 -55.5 -44.5t-83.5 -12.5q-43 0 -69 -37t-26 -99q0 -44 21 -70.5t72 -26.5q32 0 59 7.5t47 26.5t32.5 50t15.5 78v125z
" />
    <glyph glyph-name="Aogonek" unicode="&#x104;" horiz-adv-x="748" 
d="M313 700l9 25l5 13q2 4 7.5 8t10.5 4h56q16 0 33.5 -12t23.5 -27l275 -702q2 -3 0.5 -7.5t-3.5 -6.5q-7 -7 -16 -17.5t-16.5 -22.5t-12.5 -26t-5 -26q0 -44 20.5 -70t55.5 -26q21 0 40.5 8t31.5 21q3 3 4 -1q0 -4 -3 -7q-13 -14 -33 -22t-41 -8q-57 0 -91.5 26t-34.5 70
q0 9 8 21t20 25t26.5 25.5t28.5 22.5q3 3 2 7.5t-6 4.5h-66q-5 0 -10.5 4t-7.5 9l-5 12l-6 17l-66 167q-6 15 -23.5 27t-33.5 12h-295q-16 0 -33.5 -12t-23.5 -27l-66 -167l-6 -17l-7 -18q-3 -7 -11 -7t-5 7zM190 344q-13 -33 4.5 -58.5t52.5 -25.5h190q35 0 52.5 25.5
t4.5 58.5l-95 245q-8 20 -24 30.5t-33 10.5t-33 -10.5t-24 -30.5z" />
    <glyph glyph-name="aogonek" unicode="&#x105;" 
d="M84 381q-6 2 -4 9q23 63 76.5 101t120.5 38q45 0 81.5 -10t62.5 -32.5t40 -57.5t14 -85v-257q0 -11 3.5 -15t20.5 -5q8 0 14.5 -6.5t6.5 -14.5v-36q0 -3 -2.5 -8.5t-4.5 -6.5q-7 -7 -16 -17t-16.5 -22.5t-12.5 -26t-5 -25.5q0 -44 20.5 -70.5t55.5 -26.5q21 0 40.5 8
t31.5 21q3 3 4 -1q0 -4 -3 -7q-13 -14 -33 -22t-41 -8q-57 0 -91.5 26.5t-34.5 70.5q0 9 8 20.5t20 24.5t26.5 25.5t28.5 22.5q3 2 3.5 7t-4.5 5q-39 0 -61.5 3t-33 11.5t-13 26t-2.5 46.5v20q0 1 -2 -0.5t-3 -2.5q-16 -65 -56.5 -89t-97.5 -24q-97 0 -138 28.5t-41 74.5
q0 67 48.5 107.5t129.5 40.5q36 0 65.5 6.5t50.5 22.5t32.5 43.5t11.5 68.5q0 73 -29.5 104t-77.5 31q-63 0 -113 -36.5t-72 -96.5q-2 -6 -8 -4zM384 287q0 3 -5.5 5t-7.5 -2q-20 -32 -55.5 -44.5t-83.5 -12.5q-43 0 -69 -37t-26 -99q0 -44 21 -70.5t72 -26.5q32 0 59 7.5
t47 26.5t32.5 50t15.5 78v125z" />
    <glyph glyph-name="Cacute" unicode="&#x106;" horiz-adv-x="701" 
d="M370 830q-16 0 -24.5 12t-2.5 27l27 71q6 16 23.5 28t33.5 12h18q21 0 30.5 -16.5t-2.5 -34.5l-43 -70q-6 -10 -23 -19.5t-29 -9.5h-8zM666 172q2 3 4.5 4t5.5 0q2 -2 2.5 -6t-1.5 -7q-18 -39 -46 -70.5t-61.5 -54t-72 -35t-78.5 -12.5q-81 0 -147.5 31t-113.5 83.5
t-73 122t-26 147.5t26 147.5t73 122t113.5 83.5t147.5 31q35 0 70.5 -12.5t69.5 -35t64 -54t53 -70.5q2 -3 2 -7t-2 -5q-3 -2 -6 -1t-5 4q-23 38 -52 69t-61.5 53.5t-66 34.5t-66.5 12q-57 0 -103 -30t-79 -81t-51 -118.5t-18 -142.5t18 -142.5t51 -118.5t79 -81t103 -30
q38 0 74.5 12t69 34.5t59 53.5t44.5 69z" />
    <glyph glyph-name="cacute" unicode="&#x107;" horiz-adv-x="537" 
d="M325 600q-16 0 -24.5 12t-2.5 27l27 71q6 16 23.5 28t33.5 12h18q21 0 30.5 -16.5t-2.5 -34.5l-43 -70q-6 -10 -23 -19.5t-29 -9.5h-8zM493 134q2 6 8 3q6 -4 4 -10q-25 -62 -74 -99t-106 -37q-60 0 -110 16t-85 49t-54.5 83.5t-19.5 120.5t19.5 120.5t54.5 83.5t85 49
t110 16q56 0 100.5 -43t78.5 -110q3 -7 -3 -9q-6 -3 -9 4q-34 66 -75.5 106.5t-91.5 40.5q-76 0 -123 -62t-47 -196q0 -133 47 -195.5t123 -62.5q53 0 98.5 36t69.5 96z" />
    <glyph glyph-name="Ccircumflex" unicode="&#x108;" horiz-adv-x="701" 
d="M381 906q-8 4 -11 2t-10 -8l-59 -54q-5 -5 -20 -10.5t-22 -5.5h-17q-14 0 -19 11t3 21l80 96q5 7 21.5 14.5t25.5 7.5h34q9 0 25.5 -7.5t21.5 -14.5l80 -96q8 -10 3 -21t-18 -11h-12h-30q-14 17 -27 32q-12 14 -25 26t-24 18zM666 172q2 3 4.5 4t5.5 0q2 -2 2.5 -6
t-1.5 -7q-18 -39 -46 -70.5t-61.5 -54t-72 -35t-78.5 -12.5q-81 0 -147.5 31t-113.5 83.5t-73 122t-26 147.5t26 147.5t73 122t113.5 83.5t147.5 31q35 0 70.5 -12.5t69.5 -35t64 -54t53 -70.5q2 -3 2 -7t-2 -5q-3 -2 -6 -1t-5 4q-23 38 -52 69t-61.5 53.5t-66 34.5
t-66.5 12q-57 0 -103 -30t-79 -81t-51 -118.5t-18 -142.5t18 -142.5t51 -118.5t79 -81t103 -30q38 0 74.5 12t69 34.5t59 53.5t44.5 69z" />
    <glyph glyph-name="Cdot" unicode="&#x10a;" horiz-adv-x="701" 
d="M370 830q-21 0 -35.5 14.5t-14.5 35.5q0 20 14.5 34.5t35.5 14.5h1q20 0 34.5 -14.5t14.5 -34.5q0 -21 -14.5 -35.5t-34.5 -14.5h-1zM666 172q2 3 4.5 4t5.5 0q2 -2 2.5 -6t-1.5 -7q-18 -39 -46 -70.5t-61.5 -54t-72 -35t-78.5 -12.5q-81 0 -147.5 31t-113.5 83.5
t-73 122t-26 147.5t26 147.5t73 122t113.5 83.5t147.5 31q35 0 70.5 -12.5t69.5 -35t64 -54t53 -70.5q2 -3 2 -7t-2 -5q-3 -2 -6 -1t-5 4q-23 38 -52 69t-61.5 53.5t-66 34.5t-66.5 12q-57 0 -103 -30t-79 -81t-51 -118.5t-18 -142.5t18 -142.5t51 -118.5t79 -81t103 -30
q38 0 74.5 12t69 34.5t59 53.5t44.5 69z" />
    <glyph glyph-name="cdot" unicode="&#x10b;" horiz-adv-x="537" 
d="M325 600q-21 0 -35.5 14.5t-14.5 35.5q0 20 14.5 34.5t35.5 14.5h1q20 0 34.5 -14.5t14.5 -34.5q0 -21 -14.5 -35.5t-34.5 -14.5h-1zM493 134q2 6 8 3q6 -4 4 -10q-25 -62 -74 -99t-106 -37q-60 0 -110 16t-85 49t-54.5 83.5t-19.5 120.5t19.5 120.5t54.5 83.5t85 49
t110 16q56 0 100.5 -43t78.5 -110q3 -7 -3 -9q-6 -3 -9 4q-34 66 -75.5 106.5t-91.5 40.5q-76 0 -123 -62t-47 -196q0 -133 47 -195.5t123 -62.5q53 0 98.5 36t69.5 96z" />
    <glyph glyph-name="Ccaron" unicode="&#x10c;" horiz-adv-x="701" 
d="M360 910q7 -6 10 -8t11 2q11 6 23.5 18t24 24.5t19.5 22.5t9 11q6 8 13 4t17 -4h12q13 0 18 -11t-3 -21l-80 -96q-5 -7 -21.5 -14.5t-25.5 -7.5h-34q-9 0 -25.5 7.5t-21.5 14.5l-80 96q-8 10 -3 21t19 11h17q7 0 22 -5.5t20 -10.5zM666 172q2 3 4.5 4t5.5 0q2 -2 2.5 -6
t-1.5 -7q-18 -39 -46 -70.5t-61.5 -54t-72 -35t-78.5 -12.5q-81 0 -147.5 31t-113.5 83.5t-73 122t-26 147.5t26 147.5t73 122t113.5 83.5t147.5 31q35 0 70.5 -12.5t69.5 -35t64 -54t53 -70.5q2 -3 2 -7t-2 -5q-3 -2 -6 -1t-5 4q-23 38 -52 69t-61.5 53.5t-66 34.5
t-66.5 12q-57 0 -103 -30t-79 -81t-51 -118.5t-18 -142.5t18 -142.5t51 -118.5t79 -81t103 -30q38 0 74.5 12t69 34.5t59 53.5t44.5 69z" />
    <glyph glyph-name="ccaron" unicode="&#x10d;" horiz-adv-x="537" 
d="M315 680q7 -6 10 -8t11 2q11 6 23.5 18t24 24.5t19.5 22.5t9 11q6 8 13 4t17 -4h12q13 0 18 -11t-3 -21l-80 -96q-5 -7 -21.5 -14.5t-25.5 -7.5h-34q-9 0 -25.5 7.5t-21.5 14.5l-80 96q-8 10 -3 21t19 11h17q7 0 22 -5.5t20 -10.5zM493 134q2 6 8 3q6 -4 4 -10
q-25 -62 -74 -99t-106 -37q-60 0 -110 16t-85 49t-54.5 83.5t-19.5 120.5t19.5 120.5t54.5 83.5t85 49t110 16q56 0 100.5 -43t78.5 -110q3 -7 -3 -9q-6 -3 -9 4q-34 66 -75.5 106.5t-91.5 40.5q-76 0 -123 -62t-47 -196q0 -133 47 -195.5t123 -62.5q53 0 98.5 36t69.5 96z
" />
    <glyph glyph-name="Dcaron" unicode="&#x10e;" horiz-adv-x="765" 
d="M338 910q7 -6 10 -8t11 2q11 6 23.5 18t23.5 24.5t19 22.5t9 11q6 8 13 4t17 -4h12q13 0 18.5 -11t-3.5 -21l-79 -96q-5 -7 -21.5 -14.5t-25.5 -7.5h-35q-9 0 -25 7.5t-22 14.5l-79 96q-8 10 -3 21t19 11h17q7 0 22 -5.5t20 -10.5zM350 0h-195q-25 0 -43 18t-18 43v628
q0 25 18 43t43 18h165q194 0 292 -94t98 -281q0 -192 -88 -283.5t-272 -91.5zM195 73q0 -25 18 -43t43 -18h93q129 0 190.5 88.5t61.5 274.5q0 181 -70 272t-210 91h-65q-25 0 -43 -18t-18 -43v-604z" />
    <glyph glyph-name="dcaron" unicode="&#x10f;" horiz-adv-x="616" 
d="M595 710q0 20 15 34.5t36 14.5q20 0 31 -14.5t6 -33.5l-16 -69q-3 -14 -15.5 -23.5t-25.5 -9.5q-14 0 -23.5 10t-9.5 23zM155 260q0 -58 7.5 -105.5t22 -81.5t34.5 -52.5t44 -18.5q43 0 78.5 18.5t60.5 52.5t39 81.5t14 105.5t-14 105.5t-39 81.5t-60.5 52.5t-78.5 18.5
q-24 0 -44 -18.5t-34.5 -52.5t-22 -81.5t-7.5 -105.5zM56 260q0 60 14.5 110t41 85t64 54.5t82.5 19.5q64 0 111 -37.5t70 -104.5q1 -3 8 -2.5t7 4.5v316q0 18 13.5 31.5t32.5 13.5q18 0 31.5 -13.5t13.5 -31.5v-659q0 -19 -13.5 -32.5t-31.5 -13.5q-19 0 -32.5 13.5
t-13.5 32.5v85q0 4 -7 4.5t-8 -2.5q-23 -67 -70 -104.5t-111 -37.5q-45 0 -82.5 19.5t-64 54.5t-41 85t-14.5 110z" />
    <glyph glyph-name="Dcroat" unicode="&#x110;" horiz-adv-x="765" 
d="M19 370q-5 0 -5 5t5 5h35q17 0 28.5 11.5t11.5 28.5v269q0 25 18 43t43 18h165q194 0 292 -94t98 -281q0 -192 -88 -283.5t-272 -91.5h-195q-25 0 -43 18t-18 43v269q0 17 -11.5 28.5t-28.5 11.5h-35zM195 73q0 -25 18 -43t43 -18h93q129 0 190.5 88.5t61.5 274.5
q0 181 -70 272t-210 91h-65q-25 0 -43 -18t-18 -43v-236q0 -25 18 -43t43 -18h87q5 0 5 -5t-5 -5h-87q-25 0 -43 -18t-18 -43v-236z" />
    <glyph glyph-name="dcroat" unicode="&#x111;" horiz-adv-x="616" 
d="M263 635q-5 0 -5 5q0 4 5 4h139q22 0 37.5 15.5t15.5 37.5v8q0 18 13.5 31.5t32.5 13.5q18 0 31.5 -13.5t13.5 -31.5v-11q0 -21 14.5 -35.5t35.5 -14.5h46q4 0 4 -4q0 -5 -4 -5h-46q-21 0 -35.5 -14.5t-14.5 -35.5v-539q0 -19 -13.5 -32.5t-31.5 -13.5q-19 0 -32.5 13.5
t-13.5 32.5v85q0 4 -7 4.5t-8 -2.5q-23 -67 -70 -104.5t-111 -37.5q-45 0 -82.5 19.5t-64 54.5t-41 85t-14.5 110t14.5 110t41 85t64 54.5t82.5 19.5q64 0 111 -37.5t70 -104.5q1 -3 8 -2.5t7 4.5v185q0 25 -18 43t-43 18h-131zM155 260q0 -58 7.5 -105.5t22 -81.5
t34.5 -52.5t44 -18.5q43 0 78.5 18.5t60.5 52.5t39 81.5t14 105.5t-14 105.5t-39 81.5t-60.5 52.5t-78.5 18.5q-24 0 -44 -18.5t-34.5 -52.5t-22 -81.5t-7.5 -105.5z" />
    <glyph glyph-name="Emacron" unicode="&#x112;" horiz-adv-x="620" 
d="M217 830q-13 0 -22.5 9.5t-9.5 22.5t9.5 22.5t22.5 9.5h216q13 0 22.5 -9.5t9.5 -22.5t-9.5 -22.5t-22.5 -9.5h-216zM564 12q6 0 6 -6t-6 -6h-409q-25 0 -43 18t-18 43v628q0 25 18 43t43 18h394q6 0 6 -6t-6 -6h-293q-25 0 -43 -18t-18 -43v-223q0 -25 18 -43t43 -18
h273q6 0 6 -6t-6 -6h-273q-25 0 -43 -18t-18 -43v-247q0 -25 18 -43t43 -18h308z" />
    <glyph glyph-name="emacron" unicode="&#x113;" horiz-adv-x="543" 
d="M183 600q-13 0 -22.5 9.5t-9.5 22.5t9.5 22.5t22.5 9.5h216q13 0 22.5 -9.5t9.5 -22.5t-9.5 -22.5t-22.5 -9.5h-216zM498 133q2 6 9 4q6 -3 4 -9q-9 -31 -30 -56.5t-50.5 -43t-66.5 -27.5t-79 -10q-51 0 -93.5 16t-72.5 49t-46.5 83.5t-16.5 120.5t17 120.5t47.5 83.5
t74 49t96.5 16q55 0 96.5 -15.5t69.5 -44t44 -69t22 -90.5q3 -28 -13.5 -44t-44.5 -16h-248q-28 0 -45 -16t-14 -44q9 -97 42.5 -142.5t84.5 -45.5q79 0 137 36t76 95zM373 260q28 0 44.5 19t13.5 47q-8 89 -41.5 140.5t-98.5 51.5q-54 0 -89.5 -47t-44.5 -149
q-2 -27 15 -44.5t44 -17.5h157z" />
    <glyph glyph-name="Ebreve" unicode="&#x114;" horiz-adv-x="620" 
d="M182 923q-4 17 4 26t26 9h11q7 0 15 -7.5t10 -14.5q7 -24 27 -37.5t50 -13.5q29 0 49.5 13.5t26.5 37.5q2 7 10 14.5t15 7.5h12q17 0 25 -9t4 -26q-11 -47 -48.5 -74.5t-93.5 -27.5t-94 27.5t-49 74.5zM564 12q6 0 6 -6t-6 -6h-409q-25 0 -43 18t-18 43v628q0 25 18 43
t43 18h394q6 0 6 -6t-6 -6h-293q-25 0 -43 -18t-18 -43v-223q0 -25 18 -43t43 -18h273q6 0 6 -6t-6 -6h-273q-25 0 -43 -18t-18 -43v-247q0 -25 18 -43t43 -18h308z" />
    <glyph glyph-name="ebreve" unicode="&#x115;" horiz-adv-x="543" 
d="M148 693q-4 17 4.5 26t25.5 9h12q7 0 15 -7.5t10 -14.5q6 -24 26.5 -37.5t49.5 -13.5t49.5 13.5t26.5 37.5q2 7 10 14.5t15 7.5h12q17 0 25 -9t4 -26q-11 -47 -48.5 -74.5t-93.5 -27.5t-94 27.5t-49 74.5zM498 133q2 6 9 4q6 -3 4 -9q-9 -31 -30 -56.5t-50.5 -43
t-66.5 -27.5t-79 -10q-51 0 -93.5 16t-72.5 49t-46.5 83.5t-16.5 120.5t17 120.5t47.5 83.5t74 49t96.5 16q55 0 96.5 -15.5t69.5 -44t44 -69t22 -90.5q3 -28 -13.5 -44t-44.5 -16h-248q-28 0 -45 -16t-14 -44q9 -97 42.5 -142.5t84.5 -45.5q79 0 137 36t76 95zM373 260
q28 0 44.5 19t13.5 47q-8 89 -41.5 140.5t-98.5 51.5q-54 0 -89.5 -47t-44.5 -149q-2 -27 15 -44.5t44 -17.5h157z" />
    <glyph glyph-name="Edot" unicode="&#x116;" horiz-adv-x="620" 
d="M325 830q-21 0 -35.5 14.5t-14.5 35.5q0 20 14.5 34.5t35.5 14.5q20 0 34.5 -14.5t14.5 -34.5q0 -21 -14.5 -35.5t-34.5 -14.5zM564 12q6 0 6 -6t-6 -6h-409q-25 0 -43 18t-18 43v628q0 25 18 43t43 18h394q6 0 6 -6t-6 -6h-293q-25 0 -43 -18t-18 -43v-223q0 -25 18 -43
t43 -18h273q6 0 6 -6t-6 -6h-273q-25 0 -43 -18t-18 -43v-247q0 -25 18 -43t43 -18h308z" />
    <glyph glyph-name="edot" unicode="&#x117;" horiz-adv-x="543" 
d="M291 600q-21 0 -35.5 14.5t-14.5 35.5q0 20 14.5 34.5t35.5 14.5h1q20 0 34.5 -14.5t14.5 -34.5q0 -21 -14.5 -35.5t-34.5 -14.5h-1zM498 133q2 6 9 4q6 -3 4 -9q-9 -31 -30 -56.5t-50.5 -43t-66.5 -27.5t-79 -10q-51 0 -93.5 16t-72.5 49t-46.5 83.5t-16.5 120.5
t17 120.5t47.5 83.5t74 49t96.5 16q55 0 96.5 -15.5t69.5 -44t44 -69t22 -90.5q3 -28 -13.5 -44t-44.5 -16h-248q-28 0 -45 -16t-14 -44q9 -97 42.5 -142.5t84.5 -45.5q79 0 137 36t76 95zM373 260q28 0 44.5 19t13.5 47q-8 89 -41.5 140.5t-98.5 51.5q-54 0 -89.5 -47
t-44.5 -149q-2 -27 15 -44.5t44 -17.5h157z" />
    <glyph glyph-name="Eogonek" unicode="&#x118;" horiz-adv-x="620" 
d="M564 12q6 0 6 -6t-6 -6h-209q-4 0 -9.5 -1.5t-7.5 -3.5q-7 -7 -16 -17t-16.5 -22.5t-12.5 -26t-5 -25.5q0 -44 20.5 -70.5t55.5 -26.5q21 0 40.5 8t31.5 21q3 3 4 -1q0 -4 -3 -7q-13 -14 -33 -22t-41 -8q-57 0 -91.5 26.5t-34.5 70.5q0 9 8 20.5t20 24.5t26.5 25.5
t28.5 22.5q3 3 2 7.5t-6 4.5h-161q-25 0 -43 18t-18 43v628q0 25 18 43t43 18h394q6 0 6 -6t-6 -6h-293q-25 0 -43 -18t-18 -43v-223q0 -25 18 -43t43 -18h273q6 0 6 -6t-6 -6h-273q-25 0 -43 -18t-18 -43v-247q0 -25 18 -43t43 -18h308z" />
    <glyph glyph-name="eogonek" unicode="&#x119;" horiz-adv-x="543" 
d="M498 133q2 6 8 3t4 -9q-16 -55 -66 -90q-7 -6 -16 -18t-17 -27t-13.5 -32.5t-5.5 -34.5q0 -54 20.5 -86t55.5 -32q21 0 40.5 8t31.5 21q3 3 4 -1q0 -4 -3 -7q-13 -14 -33 -22t-41 -8q-57 0 -91.5 32t-34.5 86q0 19 17.5 43t40.5 46q1 1 -1 3.5t-4 1.5q-50 -19 -109 -19
q-51 0 -93.5 16t-72.5 49t-46.5 83.5t-16.5 120.5t17 120.5t47.5 83.5t74 49t96.5 16q55 0 96.5 -15.5t69.5 -44t44 -69t22 -90.5q3 -28 -13.5 -44t-44.5 -16h-248q-28 0 -45 -16t-14 -44q9 -97 42.5 -142.5t84.5 -45.5q79 0 137 36t76 95zM372 259q28 0 44.5 19t13.5 47
q-8 89 -41.5 140.5t-98.5 51.5q-54 0 -89.5 -47t-44.5 -149q-2 -27 15 -44.5t44 -17.5h157z" />
    <glyph glyph-name="Ecaron" unicode="&#x11a;" horiz-adv-x="620" 
d="M315 910q7 -6 10 -8t11 2q11 6 23.5 18t23.5 24.5t19 22.5t9 11q6 8 13 4t17 -4h12q13 0 18.5 -11t-3.5 -21l-79 -96q-5 -7 -21.5 -14.5t-25.5 -7.5h-35q-9 0 -25 7.5t-22 14.5l-79 96q-8 10 -3 21t19 11h17q7 0 22 -5.5t20 -10.5zM564 12q6 0 6 -6t-6 -6h-409
q-25 0 -43 18t-18 43v628q0 25 18 43t43 18h394q6 0 6 -6t-6 -6h-293q-25 0 -43 -18t-18 -43v-223q0 -25 18 -43t43 -18h273q6 0 6 -6t-6 -6h-273q-25 0 -43 -18t-18 -43v-247q0 -25 18 -43t43 -18h308z" />
    <glyph glyph-name="ecaron" unicode="&#x11b;" horiz-adv-x="543" 
d="M281 680q7 -6 10 -8t11 2q11 6 23.5 18t24 24.5t19.5 22.5t9 11q6 8 13 4t17 -4h12q13 0 18 -11t-3 -21l-80 -96q-5 -7 -21.5 -14.5t-25.5 -7.5h-34q-9 0 -25.5 7.5t-21.5 14.5l-80 96q-8 10 -3 21t19 11h17q7 0 22 -5.5t20 -10.5zM498 133q2 6 9 4q6 -3 4 -9
q-9 -31 -30 -56.5t-50.5 -43t-66.5 -27.5t-79 -10q-51 0 -93.5 16t-72.5 49t-46.5 83.5t-16.5 120.5t17 120.5t47.5 83.5t74 49t96.5 16q55 0 96.5 -15.5t69.5 -44t44 -69t22 -90.5q3 -28 -13.5 -44t-44.5 -16h-248q-28 0 -45 -16t-14 -44q9 -97 42.5 -142.5t84.5 -45.5
q79 0 137 36t76 95zM373 260q28 0 44.5 19t13.5 47q-8 89 -41.5 140.5t-98.5 51.5q-54 0 -89.5 -47t-44.5 -149q-2 -27 15 -44.5t44 -17.5h157z" />
    <glyph glyph-name="Gcircumflex" unicode="&#x11c;" horiz-adv-x="752" 
d="M455 906q-8 4 -11 2t-10 -8l-59 -54q-5 -5 -20 -10.5t-22 -5.5h-17q-14 0 -19 11t3 21l80 96q5 7 21.5 14.5t25.5 7.5h34q9 0 25.5 -7.5t21.5 -14.5l80 -96q8 -10 3 -21t-18 -11h-12h-30q-14 17 -27 32q-12 14 -25 26t-24 18zM468 398q-6 0 -6 6q-1 6 5 6h178
q25 0 43 -18t18 -43v-216q0 -11 -8.5 -27t-16.5 -22q-57 -43 -118.5 -68t-119.5 -25q-87 0 -158 27.5t-121.5 78t-78 121.5t-27.5 157t27.5 157t78 121.5t121.5 78t158 27.5q49 0 91 -26.5t73 -58.5q37 -38 67 -86l3 -4q3 -5 -1 -8l-1 -1q-3 -2 -6 -1t-5 4q-22 38 -49.5 69
t-56 53.5t-58 34.5t-56.5 12q-62 0 -113 -27t-87 -75.5t-56 -117t-20 -152.5t20 -152.5t56 -117t87 -75.5t113 -27q53 0 111.5 24.5t112.5 65.5q8 6 16 22t8 26v196q0 25 -18 43t-43 18h-163z" />
    <glyph glyph-name="Gbreve" unicode="&#x11e;" horiz-adv-x="752" 
d="M301 923q-4 17 4.5 26t25.5 9h12q7 0 15 -7.5t10 -14.5q6 -24 26.5 -37.5t49.5 -13.5t49.5 13.5t26.5 37.5q2 7 10 14.5t15 7.5h12q17 0 25 -9t4 -26q-11 -47 -48.5 -74.5t-93.5 -27.5t-94 27.5t-49 74.5zM468 398q-6 0 -6 6q-1 6 5 6h178q25 0 43 -18t18 -43v-216
q0 -11 -8.5 -27t-16.5 -22q-57 -43 -118.5 -68t-119.5 -25q-87 0 -158 27.5t-121.5 78t-78 121.5t-27.5 157t27.5 157t78 121.5t121.5 78t158 27.5q49 0 91 -26.5t73 -58.5q37 -38 67 -86l3 -4q3 -5 -1 -8l-1 -1q-3 -2 -6 -1t-5 4q-22 38 -49.5 69t-56 53.5t-58 34.5
t-56.5 12q-62 0 -113 -27t-87 -75.5t-56 -117t-20 -152.5t20 -152.5t56 -117t87 -75.5t113 -27q53 0 111.5 24.5t112.5 65.5q8 6 16 22t8 26v196q0 25 -18 43t-43 18h-163z" />
    <glyph glyph-name="gbreve" unicode="&#x11f;" horiz-adv-x="606" 
d="M153 693q-4 17 4.5 26t25.5 9h12q7 0 15 -7.5t10 -14.5q6 -24 26.5 -37.5t49.5 -13.5t49.5 13.5t26.5 37.5q2 7 10 14.5t15 7.5h12q17 0 25 -9t4 -26q-11 -47 -48.5 -74.5t-93.5 -27.5t-94 27.5t-49 74.5zM78 -97q-2 8 7 8q6 0 8 -6q6 -29 62.5 -41.5t147.5 -12.5
q77 0 109.5 41t32.5 108v135q0 4 -6.5 4.5t-8.5 -2.5q-23 -64 -68.5 -100.5t-108.5 -36.5q-44 0 -80.5 14.5t-62.5 45.5t-40 80.5t-14 119.5q0 73 14 124t40 83.5t62.5 47t80.5 14.5q63 0 108.5 -37.5t68.5 -104.5q2 -3 8.5 -2.5t6.5 4.5v86q0 18 13.5 31.5t32.5 13.5
q18 0 31.5 -13.5t13.5 -31.5v-436q0 -45 -12.5 -82t-40.5 -63t-72 -40.5t-106 -14.5q-98 0 -159.5 14.5t-67.5 49.5zM155 260q0 -134 28.5 -191.5t74.5 -57.5q42 0 76.5 18t59 50.5t38 78.5t13.5 102q0 58 -13.5 105.5t-38 81.5t-59 52.5t-76.5 18.5q-23 0 -42 -14
t-32.5 -45t-21 -80t-7.5 -119z" />
    <glyph glyph-name="Gdot" unicode="&#x120;" horiz-adv-x="752" 
d="M444 830q-21 0 -35.5 14.5t-14.5 35.5q0 20 14.5 34.5t35.5 14.5h1q20 0 34.5 -14.5t14.5 -34.5q0 -21 -14.5 -35.5t-34.5 -14.5h-1zM468 398q-6 0 -6 6q-1 6 5 6h178q25 0 43 -18t18 -43v-216q0 -11 -8.5 -27t-16.5 -22q-57 -43 -118.5 -68t-119.5 -25q-87 0 -158 27.5
t-121.5 78t-78 121.5t-27.5 157t27.5 157t78 121.5t121.5 78t158 27.5q49 0 91 -26.5t73 -58.5q37 -38 67 -86l3 -4q3 -5 -1 -8l-1 -1q-3 -2 -6 -1t-5 4q-22 38 -49.5 69t-56 53.5t-58 34.5t-56.5 12q-62 0 -113 -27t-87 -75.5t-56 -117t-20 -152.5t20 -152.5t56 -117
t87 -75.5t113 -27q53 0 111.5 24.5t112.5 65.5q8 6 16 22t8 26v196q0 25 -18 43t-43 18h-163z" />
    <glyph glyph-name="gdot" unicode="&#x121;" horiz-adv-x="606" 
d="M296 600q-21 0 -35.5 14.5t-14.5 35.5q0 20 14.5 34.5t35.5 14.5h1q20 0 34.5 -14.5t14.5 -34.5q0 -21 -14.5 -35.5t-34.5 -14.5h-1zM78 -97q-2 8 7 8q6 0 8 -6q6 -29 62.5 -41.5t147.5 -12.5q77 0 109.5 41t32.5 108v135q0 4 -6.5 4.5t-8.5 -2.5q-23 -64 -68.5 -100.5
t-108.5 -36.5q-44 0 -80.5 14.5t-62.5 45.5t-40 80.5t-14 119.5q0 73 14 124t40 83.5t62.5 47t80.5 14.5q63 0 108.5 -37.5t68.5 -104.5q2 -3 8.5 -2.5t6.5 4.5v86q0 18 13.5 31.5t32.5 13.5q18 0 31.5 -13.5t13.5 -31.5v-436q0 -45 -12.5 -82t-40.5 -63t-72 -40.5
t-106 -14.5q-98 0 -159.5 14.5t-67.5 49.5zM155 260q0 -134 28.5 -191.5t74.5 -57.5q42 0 76.5 18t59 50.5t38 78.5t13.5 102q0 58 -13.5 105.5t-38 81.5t-59 52.5t-76.5 18.5q-23 0 -42 -14t-32.5 -45t-21 -80t-7.5 -119z" />
    <glyph glyph-name="Hcircumflex" unicode="&#x124;" horiz-adv-x="751" 
d="M391 906q-8 4 -11 2t-10 -8l-59 -54q-5 -5 -20 -10.5t-22 -5.5h-17q-14 0 -19 11t3 21l80 96q5 7 21.5 14.5t25.5 7.5h34q9 0 25.5 -7.5t21.5 -14.5l80 -96q8 -10 3 -21t-18 -11h-12h-30q-14 17 -27 32q-12 14 -25 26t-24 18zM666 50q0 -21 -14.5 -35.5t-35.5 -14.5
q-22 0 -36.5 14.5t-14.5 36.5v277q0 25 -18 43t-43 18h-248q-25 0 -43 -18t-18 -43v-277q0 -22 -14.5 -36.5t-35.5 -14.5q-22 0 -36.5 14.5t-14.5 36.5v649q0 21 14.5 35.5t36.5 14.5q21 0 35.5 -14.5t14.5 -35.5v-238q0 -25 18 -43t43 -18h248q25 0 43 18t18 43v238
q0 21 14.5 35.5t36.5 14.5q21 0 35.5 -14.5t14.5 -35.5v-650z" />
    <glyph glyph-name="Itilde" unicode="&#x128;" horiz-adv-x="274" 
d="M59 851q-1 -8 -7 -14.5t-14 -6.5h-13q-16 0 -25 10t-7 25q5 41 21.5 67t41.5 33q18 6 20 -15v-9l1 -1q-1 12 -1.5 20t-1.5 8q15 0 35 -11.5t38.5 -25t32 -26t15.5 -13.5q4 -4 3 -2.5t3 4.5q13 8 16 44q1 8 7 14.5t14 6.5h14q15 0 24 -10t7 -25q-5 -38 -19.5 -63.5
t-36.5 -34.5q-14 -6 -20 -0.5t-7 20.5l-2 11l-3 35q1 -20 3 -35q1 -15 2 -25.5t2 -10.5q-15 0 -31 12t-32 26t-31 26t-27 12q-9 0 -14.5 -12.5t-7.5 -33.5zM189 51q0 -21 -15 -36t-36 -15t-36 15t-15 36v648q0 21 15 36t36 15t36 -15t15 -36v-648z" />
    <glyph glyph-name="itilde" unicode="&#x129;" horiz-adv-x="283" 
d="M88 621q-1 -8 -7 -14.5t-14 -6.5h-13q-16 0 -25 10t-7 25q5 41 21.5 67t41.5 33q18 6 20 -15v-9l1 -1q-1 12 -1.5 20t-1.5 8q15 0 35 -11.5t38.5 -25t32 -26t15.5 -13.5q4 -4 3 -2.5t3 4.5q13 8 16 44q1 8 7 14.5t14 6.5h14q15 0 24 -10t7 -25q-5 -38 -19.5 -63.5
t-36.5 -34.5q-14 -6 -20 -0.5t-7 20.5l-2 11l-3 35q1 -20 3 -35q1 -15 2 -25.5t2 -10.5q-15 0 -31 12t-32 26t-31 26t-27 12q-9 0 -14.5 -12.5t-7.5 -33.5zM167 0q-19 0 -32.5 13.5t-13.5 32.5v428q0 19 13.5 32.5t32.5 13.5t32.5 -13.5t13.5 -32.5v-428q0 -19 -13.5 -32.5
t-32.5 -13.5z" />
    <glyph glyph-name="Imacron" unicode="&#x12a;" horiz-adv-x="274" 
d="M30 830q-13 0 -22.5 9.5t-9.5 22.5t9.5 22.5t22.5 9.5h216q13 0 22.5 -9.5t9.5 -22.5t-9.5 -22.5t-22.5 -9.5h-216zM189 51q0 -21 -15 -36t-36 -15t-36 15t-15 36v648q0 21 15 36t36 15t36 -15t15 -36v-648z" />
    <glyph glyph-name="imacron" unicode="&#x12b;" horiz-adv-x="283" 
d="M59 600q-13 0 -22.5 9.5t-9.5 22.5t9.5 22.5t22.5 9.5h216q13 0 22.5 -9.5t9.5 -22.5t-9.5 -22.5t-22.5 -9.5h-216zM167 0q-19 0 -32.5 13.5t-13.5 32.5v428q0 19 13.5 32.5t32.5 13.5t32.5 -13.5t13.5 -32.5v-428q0 -19 -13.5 -32.5t-32.5 -13.5z" />
    <glyph glyph-name="Ibreve" unicode="&#x12c;" horiz-adv-x="274" 
d="M-5 923q-4 17 4.5 26t25.5 9h12q7 0 15 -7.5t10 -14.5q6 -24 26.5 -37.5t49.5 -13.5t49.5 13.5t26.5 37.5q2 7 10 14.5t15 7.5h12q17 0 25 -9t4 -26q-11 -47 -48.5 -74.5t-93.5 -27.5t-94 27.5t-49 74.5zM189 51q0 -21 -15 -36t-36 -15t-36 15t-15 36v648q0 21 15 36
t36 15t36 -15t15 -36v-648z" />
    <glyph glyph-name="ibreve" unicode="&#x12d;" horiz-adv-x="283" 
d="M24 693q-4 17 4.5 26t25.5 9h12q7 0 15 -7.5t10 -14.5q6 -24 26.5 -37.5t49.5 -13.5t49.5 13.5t26.5 37.5q2 7 10 14.5t15 7.5h12q17 0 25 -9t4 -26q-11 -47 -48.5 -74.5t-93.5 -27.5t-94 27.5t-49 74.5zM167 0q-19 0 -32.5 13.5t-13.5 32.5v428q0 19 13.5 32.5
t32.5 13.5t32.5 -13.5t13.5 -32.5v-428q0 -19 -13.5 -32.5t-32.5 -13.5z" />
    <glyph glyph-name="Idotaccent" unicode="&#x130;" horiz-adv-x="274" 
d="M138 830q-21 0 -35.5 14.5t-14.5 35.5q0 20 14.5 34.5t35.5 14.5h1q20 0 34.5 -14.5t14.5 -34.5q0 -21 -14.5 -35.5t-34.5 -14.5h-1zM189 51q0 -21 -15 -36t-36 -15t-36 15t-15 36v648q0 21 15 36t36 15t36 -15t15 -36v-648z" />
    <glyph glyph-name="dotlessi" unicode="&#x131;" horiz-adv-x="283" 
d="M167 0q-19 0 -32.5 13.5t-13.5 32.5v428q0 19 13.5 32.5t32.5 13.5t32.5 -13.5t13.5 -32.5v-428q0 -19 -13.5 -32.5t-32.5 -13.5z" />
    <glyph glyph-name="Jcircumflex" unicode="&#x134;" horiz-adv-x="538" 
d="M414 906q-8 4 -11 2t-10 -8l-59 -54q-5 -5 -20 -10.5t-22 -5.5h-17q-14 0 -19 11t3 21l79 96q6 7 22 14.5t25 7.5h35q9 0 25.5 -7.5t21.5 -14.5l79 -96q9 -10 3.5 -21t-18.5 -11h-12h-30q-13 17 -27 32q-12 14 -24.5 26t-23.5 18zM56 250q0 12 9 23t22 13l45 8
q10 2 17.5 -4.5t7.5 -16.5v-26q0 -126 23.5 -184t74.5 -58q48 0 72.5 59t24.5 156v480q0 21 14.5 35.5t36.5 14.5q21 0 35.5 -14.5t14.5 -35.5v-480q0 -51 -12.5 -93.5t-37.5 -72.5t-62 -46.5t-86 -16.5q-103 0 -151 54.5t-48 172.5v32z" />
    <glyph glyph-name="Lacute" unicode="&#x139;" horiz-adv-x="544" 
d="M138 830q-16 0 -24.5 12t-2.5 27l27 71q6 16 23.5 28t33.5 12h18q21 0 30.5 -16.5t-2.5 -34.5l-43 -70q-6 -10 -23 -19.5t-29 -9.5h-8zM508 12q6 0 6 -6t-6 -6h-360q-25 0 -43 18t-18 43v638q0 21 15 36t36 15t36 -15t15 -36v-626q0 -25 18 -43t43 -18h258z" />
    <glyph glyph-name="lacute" unicode="&#x13a;" horiz-adv-x="243" 
d="M104 790q-16 0 -24.5 12t-2.5 27l27 71q6 16 23.5 28t33.5 12h18q21 0 30.5 -16.5t-2.5 -34.5l-43 -70q-6 -10 -23 -19.5t-29 -9.5h-8zM173 46q0 -19 -13.5 -32.5t-32.5 -13.5t-32.5 13.5t-13.5 32.5v658q0 19 13.5 32.5t32.5 13.5t32.5 -13.5t13.5 -32.5v-658z" />
    <glyph glyph-name="Lcaron" unicode="&#x13d;" horiz-adv-x="544" 
d="M301 710q0 20 15 34.5t36 14.5q20 0 31 -14.5t6 -33.5l-16 -69q-3 -14 -15.5 -23.5t-25.5 -9.5q-14 0 -23.5 10t-9.5 23zM508 12q6 0 6 -6t-6 -6h-360q-25 0 -43 18t-18 43v638q0 21 15 36t36 15t36 -15t15 -36v-626q0 -25 18 -43t43 -18h258z" />
    <glyph glyph-name="lcaron" unicode="&#x13e;" horiz-adv-x="243" 
d="M222 710q0 20 15 34.5t36 14.5q20 0 31 -14.5t6 -33.5l-16 -69q-3 -14 -15.5 -23.5t-25.5 -9.5q-14 0 -23.5 10t-9.5 23zM173 46q0 -19 -13.5 -32.5t-32.5 -13.5t-32.5 13.5t-13.5 32.5v658q0 19 13.5 32.5t32.5 13.5t32.5 -13.5t13.5 -32.5v-658z" />
    <glyph glyph-name="Lslash" unicode="&#x141;" horiz-adv-x="544" 
d="M508 12q6 0 6 -6t-6 -6h-360q-25 0 -43 18t-18 43v240q0 17 -12 26t-28 5l-35 -11q-5 -1 -5 4t5 6l35 11q16 4 28 20t12 33v304q0 21 15 36t36 15t36 -15t15 -36v-234q0 -33 23.5 -50.5t54.5 -8.5l80 23q5 1 5 -4t-5 -6l-114 -33q-17 -5 -30.5 -23t-13.5 -36v-254
q0 -25 18 -43t43 -18h258z" />
    <glyph glyph-name="lslash" unicode="&#x142;" horiz-adv-x="243" 
d="M6 322q-5 -2 -5 3t5 7l36 15q15 6 27 23.5t12 33.5v300q0 19 13.5 32.5t32.5 13.5t32.5 -13.5t13.5 -32.5v-263q0 -17 12.5 -25t27.5 -2l35 14q5 2 5 -3t-5 -7l-36 -15q-15 -6 -27 -23.5t-12 -33.5v-300q0 -19 -13.5 -32.5t-32.5 -13.5t-32.5 13.5t-13.5 32.5v263
q0 17 -12.5 25t-27.5 2z" />
    <glyph glyph-name="Nacute" unicode="&#x143;" horiz-adv-x="663" 
d="M247 830q-17 0 -25 12t-2 27l27 71q6 16 23.5 28t33.5 12h18q21 0 30 -16.5t-2 -34.5l-44 -70q-6 -10 -23 -19.5t-29 -9.5h-7zM130 8q0 -8 -7 -8q-8 0 -8 8v686q0 23 16.5 39.5t40.5 16.5h16q15 0 32.5 -11t23.5 -25l202 -442q10 -22 29.5 -29.5t39 -3.5t34 19.5
t14.5 39.5v445q0 7 8 7q7 0 7 -7v-682q0 -26 -17.5 -43.5t-42.5 -17.5h-21q-15 0 -32.5 11t-23.5 25l-194 424q-10 22 -29.5 30t-39 3.5t-34 -19.5t-14.5 -40v-426z" />
    <glyph glyph-name="nacute" unicode="&#x144;" horiz-adv-x="544" 
d="M278 600q-17 0 -25 12t-2 27l27 71q6 16 23.5 28t33.5 12h18q21 0 30 -16.5t-2 -34.5l-44 -70q-6 -10 -23 -19.5t-29 -9.5h-7zM479 46q0 -19 -13.5 -32.5t-32.5 -14.5q-19 0 -32.5 13.5t-13.5 32.5v269q0 98 -15.5 147.5t-41.5 49.5q-37 0 -67 -13t-51.5 -37t-33.5 -57.5
t-12 -74.5v-284q0 -19 -13.5 -32.5t-31.5 -13.5q-19 0 -32.5 13.5t-13.5 32.5v429q0 18 13.5 31.5t32.5 13.5q18 0 31.5 -13.5t13.5 -31.5v-48q0 -4 6 -4.5t8 2.5q20 47 60.5 74t95.5 27q65 0 104 -52.5t39 -157.5v-269z" />
    <glyph glyph-name="Ncaron" unicode="&#x147;" horiz-adv-x="663" 
d="M337 910q7 -6 10 -8t11 2q11 6 23.5 18t23.5 24.5t19 22.5t9 11q6 8 13 4t17 -4h12q13 0 18.5 -11t-3.5 -21l-79 -96q-5 -7 -21.5 -14.5t-25.5 -7.5h-35q-9 0 -25 7.5t-22 14.5l-79 96q-8 10 -3 21t19 11h17q7 0 22 -5.5t20 -10.5zM130 8q0 -8 -7 -8q-8 0 -8 8v686
q0 23 16.5 39.5t40.5 16.5h16q15 0 32.5 -11t23.5 -25l202 -442q10 -22 29.5 -29.5t39 -3.5t34 19.5t14.5 39.5v445q0 7 8 7q7 0 7 -7v-682q0 -26 -17.5 -43.5t-42.5 -17.5h-21q-15 0 -32.5 11t-23.5 25l-194 424q-10 22 -29.5 30t-39 3.5t-34 -19.5t-14.5 -40v-426z" />
    <glyph glyph-name="ncaron" unicode="&#x148;" horiz-adv-x="544" 
d="M268 680q7 -6 10 -8t11 2q11 6 23.5 18t23.5 24.5t19 22.5t9 11q6 8 13 4t17 -4h12q13 0 18.5 -11t-3.5 -21l-79 -96q-5 -7 -21.5 -14.5t-25.5 -7.5h-35q-9 0 -25 7.5t-22 14.5l-79 96q-8 10 -3 21t19 11h17q7 0 22 -5.5t20 -10.5zM479 46q0 -19 -13.5 -32.5t-32.5 -14.5
q-19 0 -32.5 13.5t-13.5 32.5v269q0 98 -15.5 147.5t-41.5 49.5q-37 0 -67 -13t-51.5 -37t-33.5 -57.5t-12 -74.5v-284q0 -19 -13.5 -32.5t-31.5 -13.5q-19 0 -32.5 13.5t-13.5 32.5v429q0 18 13.5 31.5t32.5 13.5q18 0 31.5 -13.5t13.5 -31.5v-48q0 -4 6 -4.5t8 2.5
q20 47 60.5 74t95.5 27q65 0 104 -52.5t39 -157.5v-269z" />
    <glyph glyph-name="Omacron" unicode="&#x14c;" horiz-adv-x="814" 
d="M304 830q-13 0 -22.5 9.5t-9.5 22.5t9.5 22.5t22.5 9.5h216q13 0 22.5 -9.5t9.5 -22.5t-9.5 -22.5t-22.5 -9.5h-216zM173 375q0 -84 17 -152.5t48.5 -117t75.5 -75.5t98 -27t97.5 27t75 75.5t48.5 117t17 152.5q0 80 -18 148t-50 117.5t-75.5 78t-94.5 28.5t-94.5 -28.5
t-76 -78t-50.5 -117.5t-18 -148zM64 375q0 82 26.5 152.5t73 122t110.5 80.5t138 29t137.5 -29t110 -80.5t73 -122t26.5 -152.5q0 -86 -25 -157t-70.5 -121.5t-109.5 -78t-142 -27.5t-142.5 27.5t-110 78t-70.5 121.5t-25 157z" />
    <glyph glyph-name="omacron" unicode="&#x14d;" horiz-adv-x="590" 
d="M190 600q-13 0 -22.5 9.5t-9.5 22.5t9.5 22.5t22.5 9.5h216q13 0 22.5 -9.5t9.5 -22.5t-9.5 -22.5t-22.5 -9.5h-216zM155 260q0 -58 8.5 -106t26 -82t44.5 -52.5t64 -18.5q65 0 104 62.5t39 196.5q0 58 -8.5 106t-26 82t-44.5 52.5t-64 18.5q-64 0 -103.5 -62.5
t-39.5 -196.5zM56 260q0 70 17.5 120.5t49 83.5t76.5 49t99 16q63 0 108.5 -19.5t75 -54.5t44 -85t14.5 -110q0 -70 -17.5 -120.5t-49 -83.5t-76.5 -49t-99 -16q-63 0 -108.5 19.5t-75 54.5t-44 85t-14.5 110z" />
    <glyph glyph-name="Obreve" unicode="&#x14e;" horiz-adv-x="814" 
d="M269 923q-4 17 4.5 26t25.5 9h12q7 0 15 -7.5t10 -14.5q6 -24 26.5 -37.5t49.5 -13.5t49.5 13.5t26.5 37.5q2 7 10 14.5t15 7.5h12q17 0 25 -9t4 -26q-11 -47 -48.5 -74.5t-93.5 -27.5t-94 27.5t-49 74.5zM173 375q0 -84 17 -152.5t48.5 -117t75.5 -75.5t98 -27t97.5 27
t75 75.5t48.5 117t17 152.5q0 80 -18 148t-50 117.5t-75.5 78t-94.5 28.5t-94.5 -28.5t-76 -78t-50.5 -117.5t-18 -148zM64 375q0 82 26.5 152.5t73 122t110.5 80.5t138 29t137.5 -29t110 -80.5t73 -122t26.5 -152.5q0 -86 -25 -157t-70.5 -121.5t-109.5 -78t-142 -27.5
t-142.5 27.5t-110 78t-70.5 121.5t-25 157z" />
    <glyph glyph-name="obreve" unicode="&#x14f;" horiz-adv-x="590" 
d="M155 693q-4 17 4.5 26t25.5 9h12q7 0 15 -7.5t10 -14.5q6 -24 26.5 -37.5t49.5 -13.5t49.5 13.5t26.5 37.5q2 7 10 14.5t15 7.5h12q17 0 25 -9t4 -26q-11 -47 -48.5 -74.5t-93.5 -27.5t-94 27.5t-49 74.5zM155 260q0 -58 8.5 -106t26 -82t44.5 -52.5t64 -18.5
q65 0 104 62.5t39 196.5q0 58 -8.5 106t-26 82t-44.5 52.5t-64 18.5q-64 0 -103.5 -62.5t-39.5 -196.5zM56 260q0 70 17.5 120.5t49 83.5t76.5 49t99 16q63 0 108.5 -19.5t75 -54.5t44 -85t14.5 -110q0 -70 -17.5 -120.5t-49 -83.5t-76.5 -49t-99 -16q-63 0 -108.5 19.5
t-75 54.5t-44 85t-14.5 110z" />
    <glyph glyph-name="Racute" unicode="&#x154;" horiz-adv-x="624" 
d="M342 830q-17 0 -25 12t-2 27l27 71q6 16 23.5 28t33.5 12h18q21 0 30 -16.5t-2 -34.5l-44 -70q-6 -10 -23 -19.5t-29 -9.5h-7zM532 0q-14 0 -31 10.5t-23 22.5l-137 255q-10 19 0 35.5t32 16.5h21q14 0 31 -10.5t23 -22.5l142 -265q1 -3 4.5 -9.5t7.5 -13.5t7 -12.5
t3 -6.5q3 -6 -4.5 -3t-15.5 3h-60zM195 51q0 -22 -14.5 -36.5t-35.5 -14.5q-22 0 -36.5 14.5t-14.5 36.5v638q0 25 18 43t43 18h198q236 0 236 -225q0 -182 -236 -182h-97q-25 0 -43 -18t-18 -43v-231zM195 416q0 -25 18 -43t43 -18h97q135 0 135 170q0 213 -136 213h-96
q-25 0 -43 -18t-18 -43v-261z" />
    <glyph glyph-name="racute" unicode="&#x155;" horiz-adv-x="370" 
d="M213 600q-16 0 -24.5 12t-2.5 27l27 71q6 16 23.5 28t33.5 12h18q21 0 30.5 -16.5t-2.5 -34.5l-43 -70q-6 -10 -23 -19.5t-29 -9.5h-8zM350 511q0 -6 -5 -6h-6q-46 0 -79 -19t-53.5 -54t-30 -83.5t-9.5 -108.5v-194q0 -19 -13.5 -32.5t-31.5 -13.5q-19 0 -32.5 13.5
t-13.5 32.5v429q0 18 13.5 31.5t32.5 13.5q18 0 31.5 -13.5t13.5 -31.5v-90q0 -3 5.5 -3.5t5.5 2.5q18 64 57.5 100t104.5 36h5q5 0 5 -5v-4z" />
    <glyph glyph-name="Rcaron" unicode="&#x158;" horiz-adv-x="624" 
d="M332 910q7 -6 10 -8t11 2q11 6 23.5 18t23.5 24.5t19 22.5t9 11q6 8 13 4t17 -4h12q13 0 18.5 -11t-3.5 -21l-79 -96q-5 -7 -21.5 -14.5t-25.5 -7.5h-35q-9 0 -25 7.5t-22 14.5l-79 96q-8 10 -3 21t19 11h17q7 0 22 -5.5t20 -10.5zM532 0q-14 0 -31 10.5t-23 22.5
l-137 255q-10 19 0 35.5t32 16.5h21q14 0 31 -10.5t23 -22.5l142 -265q1 -3 4.5 -9.5t7.5 -13.5t7 -12.5t3 -6.5q3 -6 -4.5 -3t-15.5 3h-60zM195 51q0 -22 -14.5 -36.5t-35.5 -14.5q-22 0 -36.5 14.5t-14.5 36.5v638q0 25 18 43t43 18h198q236 0 236 -225q0 -182 -236 -182
h-97q-25 0 -43 -18t-18 -43v-231zM195 416q0 -25 18 -43t43 -18h97q135 0 135 170q0 213 -136 213h-96q-25 0 -43 -18t-18 -43v-261z" />
    <glyph glyph-name="rcaron" unicode="&#x159;" horiz-adv-x="370" 
d="M203 680q7 -6 10 -8t11 2q11 6 23.5 18t24 24.5t19.5 22.5t9 11q6 8 13 4t17 -4h12q13 0 18 -11t-3 -21l-80 -96q-5 -7 -21.5 -14.5t-25.5 -7.5h-34q-9 0 -25.5 7.5t-21.5 14.5l-80 96q-8 10 -3 21t19 11h17q7 0 22 -5.5t20 -10.5zM350 511q0 -6 -5 -6h-6q-46 0 -79 -19
t-53.5 -54t-30 -83.5t-9.5 -108.5v-194q0 -19 -13.5 -32.5t-31.5 -13.5q-19 0 -32.5 13.5t-13.5 32.5v429q0 18 13.5 31.5t32.5 13.5q18 0 31.5 -13.5t13.5 -31.5v-90q0 -3 5.5 -3.5t5.5 2.5q18 64 57.5 100t104.5 36h5q5 0 5 -5v-4z" />
    <glyph glyph-name="Sacute" unicode="&#x15a;" horiz-adv-x="598" 
d="M290 830q-16 0 -24.5 12t-2.5 27l27 71q6 16 23.5 28t33.5 12h18q21 0 30.5 -16.5t-2.5 -34.5l-43 -70q-6 -10 -23 -19.5t-29 -9.5h-8zM512 617q2 -2 3 -6t-1 -5q-3 -2 -6.5 -1t-5.5 3q-64 68 -126 102.5t-113 34.5t-82.5 -51.5t-31.5 -136.5q0 -91 165 -120
q124 -22 186.5 -79t62.5 -148q0 -49 -14.5 -89.5t-44 -69t-72.5 -44.5t-100 -16q-81 0 -151.5 45t-115.5 133q0 2 -1 6t1 6l3 2l3 2q1 1 1.5 2t1.5 0q42 -91 111 -137t147 -46q65 0 97.5 55.5t32.5 146.5q0 99 -176 129q-242 42 -242 211q0 48 16 87.5t44.5 67t69 43
t89.5 15.5q54 0 119 -35.5t130 -106.5z" />
    <glyph glyph-name="sacute" unicode="&#x15b;" horiz-adv-x="519" 
d="M262 600q-16 0 -24.5 12t-2.5 27l27 71q6 16 23.5 28t33.5 12h18q21 0 30.5 -16.5t-2.5 -34.5l-43 -70q-6 -10 -23 -19.5t-29 -9.5h-8zM54 128q0 2 -2.5 5.5t-3.5 5.5l3 2l3 1l3 1l3 1q12 -31 33.5 -56.5t50 -43.5t62 -28t70.5 -10q54 0 87 35t33 93q0 32 -34.5 55
t-103.5 30q-97 10 -146.5 53t-49.5 106q0 33 14 60t40 46.5t62.5 30t81.5 10.5q57 0 109.5 -37t83.5 -99l3 -6q3 -5 -2 -7q-6 -3 -9 3q-29 62 -79 98.5t-104 36.5q-51 0 -81 -35t-30 -93q0 -32 32.5 -55t97.5 -30q103 -11 155.5 -53.5t52.5 -105.5q0 -33 -15 -60t-43 -46
t-66.5 -29.5t-86.5 -10.5q-75 0 -135 35.5t-88 95.5z" />
    <glyph glyph-name="Scircumflex" unicode="&#x15c;" horiz-adv-x="598" 
d="M301 906q-8 4 -11 2t-10 -8l-59 -54q-5 -5 -20 -10.5t-22 -5.5h-17q-14 0 -19 11t3 21l80 96q5 7 21.5 14.5t25.5 7.5h34q9 0 25.5 -7.5t21.5 -14.5l80 -96q8 -10 3 -21t-18 -11h-12h-30q-14 17 -27 32q-12 14 -25 26t-24 18zM512 617q2 -2 3 -6t-1 -5q-3 -2 -6.5 -1
t-5.5 3q-64 68 -126 102.5t-113 34.5t-82.5 -51.5t-31.5 -136.5q0 -91 165 -120q124 -22 186.5 -79t62.5 -148q0 -49 -14.5 -89.5t-44 -69t-72.5 -44.5t-100 -16q-81 0 -151.5 45t-115.5 133q0 2 -1 6t1 6l3 2l3 2q1 1 1.5 2t1.5 0q42 -91 111 -137t147 -46q65 0 97.5 55.5
t32.5 146.5q0 99 -176 129q-242 42 -242 211q0 48 16 87.5t44.5 67t69 43t89.5 15.5q54 0 119 -35.5t130 -106.5z" />
    <glyph glyph-name="Scedilla" unicode="&#x15e;" horiz-adv-x="598" 
d="M290 -106l-1 -1v0zM292 -103q-1 -2 -1 -1q11 18 37 18q40 0 64.5 -16.5t24.5 -42.5q0 -44 -24.5 -70t-65.5 -26q-26 0 -38 17.5t-8 47.5q1 3 4 5t3 -2q-1 -11 9.5 -17.5t27.5 -6.5q18 0 29 14.5t11 37.5t-10.5 37.5t-27.5 14.5q-24 0 -35 -10zM290 -108l-4 3l21 47
q7 17 -1.5 33.5t-25.5 19.5q-65 13 -121 56t-93 117q0 2 -1 6t1 6l3 2l3 2q1 1 1.5 2t1.5 0q42 -91 111 -137t147 -46q65 0 97.5 55.5t32.5 146.5q0 99 -176 129q-242 42 -242 211q0 48 16 87.5t44.5 67t69 43t89.5 15.5q54 0 119 -35.5t130 -106.5q2 -2 3 -6t-1 -5
q-3 -2 -6.5 -1t-5.5 3q-64 68 -126 102.5t-113 34.5t-82.5 -51.5t-31.5 -136.5q0 -91 165 -120q124 -22 186.5 -79t62.5 -148q0 -90 -47.5 -147.5t-141.5 -68.5q-7 -1 -16 -5t-18 -10t-16 -12.5t-10 -12.5l-26 -61h1z" />
    <glyph glyph-name="scedilla" unicode="&#x15f;" horiz-adv-x="519" 
d="M236 -106l-1 -1v0zM238 -103v0.5v0.5q5 7 13.5 11.5t22.5 4.5q40 0 64.5 -16.5t24.5 -42.5q0 -44 -24.5 -70t-65.5 -26q-26 0 -38 17.5t-8 47.5q1 3 4 5t3 -2q-1 -11 9.5 -17.5t27.5 -6.5q18 0 29 14.5t11 37.5t-10.5 37.5t-27.5 14.5q-24 0 -35 -10zM235 -104
q-1 -3 -4 -1t-2 5l22 52q7 15 -4 31t-27 19q-57 12 -101.5 44.5t-66.5 81.5q0 2 -2 5.5t-3 5.5l3 2l3 1l3 1l3 1q12 -31 33.5 -56.5t50 -43.5t62 -28t70.5 -10q54 0 87 35t33 93q0 32 -34.5 55t-103.5 30q-97 10 -146.5 53t-49.5 106q0 33 14 60t40 46.5t62.5 30t81.5 10.5
q57 0 109.5 -37t83.5 -99l3 -6q3 -5 -2 -7q-6 -3 -9 3q-29 62 -79 98.5t-104 36.5q-51 0 -81 -35t-30 -93q0 -32 32.5 -55t97.5 -30q103 -11 155.5 -53.5t52.5 -105.5q0 -60 -47 -98.5t-127 -45.5q-14 -2 -31 -14.5t-22 -25.5z" />
    <glyph glyph-name="Scaron" unicode="&#x160;" horiz-adv-x="598" 
d="M280 910q7 -6 10 -8t11 2q11 6 23.5 18t24 24.5t19.5 22.5t9 11q6 8 13 4t17 -4h12q13 0 18 -11t-3 -21l-80 -96q-5 -7 -21.5 -14.5t-25.5 -7.5h-34q-9 0 -25.5 7.5t-21.5 14.5l-80 96q-8 10 -3 21t19 11h17q7 0 22 -5.5t20 -10.5zM512 617q2 -2 3 -6t-1 -5
q-3 -2 -6.5 -1t-5.5 3q-64 68 -126 102.5t-113 34.5t-82.5 -51.5t-31.5 -136.5q0 -91 165 -120q124 -22 186.5 -79t62.5 -148q0 -49 -14.5 -89.5t-44 -69t-72.5 -44.5t-100 -16q-81 0 -151.5 45t-115.5 133q0 2 -1 6t1 6l3 2l3 2q1 1 1.5 2t1.5 0q42 -91 111 -137t147 -46
q65 0 97.5 55.5t32.5 146.5q0 99 -176 129q-242 42 -242 211q0 48 16 87.5t44.5 67t69 43t89.5 15.5q54 0 119 -35.5t130 -106.5z" />
    <glyph glyph-name="scaron" unicode="&#x161;" horiz-adv-x="519" 
d="M252 680q7 -6 10 -8t11 2q11 6 23.5 18t24 24.5t19.5 22.5t9 11q6 8 13 4t17 -4h12q13 0 18 -11t-3 -21l-80 -96q-5 -7 -21.5 -14.5t-25.5 -7.5h-34q-9 0 -25.5 7.5t-21.5 14.5l-80 96q-8 10 -3 21t19 11h17q7 0 22 -5.5t20 -10.5zM54 128q0 2 -2.5 5.5t-3.5 5.5l3 2l3 1
l3 1l3 1q12 -31 33.5 -56.5t50 -43.5t62 -28t70.5 -10q54 0 87 35t33 93q0 32 -34.5 55t-103.5 30q-97 10 -146.5 53t-49.5 106q0 33 14 60t40 46.5t62.5 30t81.5 10.5q57 0 109.5 -37t83.5 -99l3 -6q3 -5 -2 -7q-6 -3 -9 3q-29 62 -79 98.5t-104 36.5q-51 0 -81 -35
t-30 -93q0 -32 32.5 -55t97.5 -30q103 -11 155.5 -53.5t52.5 -105.5q0 -33 -15 -60t-43 -46t-66.5 -29.5t-86.5 -10.5q-75 0 -135 35.5t-88 95.5z" />
    <glyph glyph-name="Tcaron" unicode="&#x164;" horiz-adv-x="595" 
d="M288 910q7 -6 10 -8t11 2q11 6 23.5 18t24 24.5t19.5 22.5t9 11q6 8 13 4t17 -4h12q13 0 18 -11t-3 -21l-80 -96q-5 -7 -21.5 -14.5t-25.5 -7.5h-34q-9 0 -25.5 7.5t-21.5 14.5l-80 96q-8 10 -3 21t19 11h17q7 0 22 -5.5t20 -10.5zM579 750q6 0 6 -6t-6 -6h-170
q-25 0 -43 -18t-18 -43v-626q0 -22 -14.5 -36.5t-35.5 -14.5q-22 0 -36.5 14.5t-14.5 36.5v626q0 25 -18 43t-43 18h-170q-6 0 -6 6t6 6h563z" />
    <glyph glyph-name="tcaron" unicode="&#x165;" horiz-adv-x="345" 
d="M242 710q0 20 15 34.5t36 14.5q20 0 31 -14.5t6 -33.5l-16 -69q-3 -14 -15.5 -23.5t-25.5 -9.5q-14 0 -23.5 10t-9.5 23zM310 520q5 0 5 -5q0 -6 -5 -6h-56q-25 0 -43 -18t-18 -43v-306q0 -73 3 -102t18 -29h96q5 0 5 -5q0 -6 -5 -6h-101q-39 0 -60.5 7.5t-32 24
t-12.5 43.5t-2 67v321q0 19 -13.5 32.5t-32.5 13.5h-40q-6 0 -6 6q0 5 6 5h40q19 0 32.5 13.5t13.5 32.5v61q0 9 7.5 25t14.5 21l24 21q14 12 29.5 4.5t15.5 -26.5v-91q0 -25 18 -43t43 -18h56z" />
    <glyph glyph-name="Utilde" unicode="&#x168;" horiz-adv-x="683" 
d="M266 842q-1 -8 -7 -14.5t-14 -6.5h-13q-16 0 -25 10t-7 25q5 41 21.5 67t41.5 33q18 6 20 -15v-9l1 -1q-1 12 -1.5 20t-1.5 8q15 0 35 -11.5t38.5 -25t32 -26t15.5 -13.5q4 -4 3 -2.5t3 4.5q13 8 16 44q1 8 7 14.5t14 6.5h14q15 0 24 -10t7 -25q-5 -38 -19.5 -63.5
t-36.5 -34.5q-14 -6 -20 -0.5t-7 20.5l-2 11l-3 35q1 -20 3 -35q1 -15 2 -25.5t2 -10.5q-15 0 -31 12t-32 26t-31 26t-27 12q-9 0 -14.5 -12.5t-7.5 -33.5zM588 743q0 7 8 7q7 0 7 -7v-449q0 -151 -65 -227t-193 -76t-193 75.5t-65 224.5v409q0 21 14.5 35.5t36.5 14.5
q21 0 35.5 -14.5t14.5 -35.5v-392q0 -151 39.5 -227t117.5 -76q121 0 182 73t61 219v446z" />
    <glyph glyph-name="utilde" unicode="&#x169;" horiz-adv-x="538" 
d="M191 621q-1 -8 -7 -14.5t-14 -6.5h-14q-16 0 -25 9.5t-7 25.5q6 41 22.5 67t41.5 33q18 6 20 -15v-9l1 -1q-1 12 -1.5 20t-1.5 8q15 0 35 -11.5t38.5 -25t32 -26t15.5 -13.5q4 -4 3 -2.5t3 4.5q13 8 16 44q1 8 7 14.5t14 6.5h14q15 0 24 -10t7 -25q-5 -38 -19.5 -63.5
t-36.5 -34.5q-14 -6 -20 -0.5t-7 20.5l-2 11l-3 35q1 -20 3 -35q1 -15 2 -25.5t2 -10.5q-15 0 -31.5 12t-32.5 26t-31 26t-27 12q-8 0 -13.5 -12.5t-7.5 -33.5zM468 45q0 -19 -13 -32t-32 -13t-32 13t-13 32v26q0 3 -5 3.5t-6 -2.5q-18 -38 -51.5 -59.5t-79.5 -21.5
q-48 0 -80 12.5t-51 37.5t-26.5 62.5t-7.5 86.5v285q0 18 13.5 31.5t32.5 13.5q18 0 31.5 -13.5t13.5 -31.5v-285q0 -93 16 -140t63 -47q62 0 99 39.5t37 105.5v327q0 18 13.5 31.5t32.5 13.5q18 0 31.5 -13.5t13.5 -31.5v-430z" />
    <glyph glyph-name="Umacron" unicode="&#x16a;" horiz-adv-x="683" 
d="M237 821q-13 0 -22.5 9.5t-9.5 22.5t9.5 22.5t22.5 9.5h216q13 0 22.5 -9.5t9.5 -22.5t-9.5 -22.5t-22.5 -9.5h-216zM588 743q0 7 8 7q7 0 7 -7v-449q0 -151 -65 -227t-193 -76t-193 75.5t-65 224.5v409q0 21 14.5 35.5t36.5 14.5q21 0 35.5 -14.5t14.5 -35.5v-392
q0 -151 39.5 -227t117.5 -76q121 0 182 73t61 219v446z" />
    <glyph glyph-name="umacron" unicode="&#x16b;" horiz-adv-x="538" 
d="M162 600q-13 0 -22.5 9.5t-9.5 22.5t9.5 22.5t22.5 9.5h216q13 0 22.5 -9.5t9.5 -22.5t-9.5 -22.5t-22.5 -9.5h-216zM468 45q0 -19 -13 -32t-32 -13t-32 13t-13 32v26q0 3 -5 3.5t-6 -2.5q-18 -38 -51.5 -59.5t-79.5 -21.5q-48 0 -80 12.5t-51 37.5t-26.5 62.5t-7.5 86.5
v285q0 18 13.5 31.5t32.5 13.5q18 0 31.5 -13.5t13.5 -31.5v-285q0 -93 16 -140t63 -47q62 0 99 39.5t37 105.5v327q0 18 13.5 31.5t32.5 13.5q18 0 31.5 -13.5t13.5 -31.5v-430z" />
    <glyph glyph-name="Ubreve" unicode="&#x16c;" horiz-adv-x="683" 
d="M202 914q-4 17 4.5 26t25.5 9h12q7 0 15 -7.5t10 -14.5q6 -24 26.5 -37.5t49.5 -13.5t49.5 13.5t26.5 37.5q2 7 10 14.5t15 7.5h12q17 0 25 -9t4 -26q-11 -47 -48.5 -74.5t-93.5 -27.5t-94 27.5t-49 74.5zM588 743q0 7 8 7q7 0 7 -7v-449q0 -151 -65 -227t-193 -76
t-193 75.5t-65 224.5v409q0 21 14.5 35.5t36.5 14.5q21 0 35.5 -14.5t14.5 -35.5v-392q0 -151 39.5 -227t117.5 -76q121 0 182 73t61 219v446z" />
    <glyph glyph-name="ubreve" unicode="&#x16d;" horiz-adv-x="538" 
d="M127 693q-4 17 4 26t26 9h11q7 0 15 -7.5t10 -14.5q7 -24 27 -37.5t50 -13.5q29 0 49.5 13.5t26.5 37.5q2 7 10 14.5t15 7.5h12q17 0 25 -9t4 -26q-11 -47 -48.5 -74.5t-93.5 -27.5t-94 27.5t-49 74.5zM468 45q0 -19 -13 -32t-32 -13t-32 13t-13 32v26q0 3 -5 3.5
t-6 -2.5q-18 -38 -51.5 -59.5t-79.5 -21.5q-48 0 -80 12.5t-51 37.5t-26.5 62.5t-7.5 86.5v285q0 18 13.5 31.5t32.5 13.5q18 0 31.5 -13.5t13.5 -31.5v-285q0 -93 16 -140t63 -47q62 0 99 39.5t37 105.5v327q0 18 13.5 31.5t32.5 13.5q18 0 31.5 -13.5t13.5 -31.5v-430z
" />
    <glyph glyph-name="Uring" unicode="&#x16e;" horiz-adv-x="683" 
d="M307 906q0 -43 38 -43t38 43q0 20 -10 31t-28 11t-28 -11t-10 -31zM261 906q0 40 22 62t62 22t62 -22t22 -62q0 -85 -84 -85t-84 85zM588 743q0 7 8 7q7 0 7 -7v-449q0 -151 -65 -227t-193 -76t-193 75.5t-65 224.5v409q0 21 14.5 35.5t36.5 14.5q21 0 35.5 -14.5
t14.5 -35.5v-392q0 -151 39.5 -227t117.5 -76q121 0 182 73t61 219v446z" />
    <glyph glyph-name="uring" unicode="&#x16f;" horiz-adv-x="538" 
d="M231 685q0 -43 39 -43q38 0 38 43q0 20 -10 31t-28 11q-19 0 -29 -11t-10 -31zM186 685q0 40 22 62t62 22q39 0 61 -22t22 -62q0 -85 -83 -85q-84 0 -84 85zM468 45q0 -19 -13 -32t-32 -13t-32 13t-13 32v26q0 3 -5 3.5t-6 -2.5q-18 -38 -51.5 -59.5t-79.5 -21.5
q-48 0 -80 12.5t-51 37.5t-26.5 62.5t-7.5 86.5v285q0 18 13.5 31.5t32.5 13.5q18 0 31.5 -13.5t13.5 -31.5v-285q0 -93 16 -140t63 -47q62 0 99 39.5t37 105.5v327q0 18 13.5 31.5t32.5 13.5q18 0 31.5 -13.5t13.5 -31.5v-430z" />
    <glyph glyph-name="Wcircumflex" unicode="&#x174;" horiz-adv-x="771" 
d="M401 906q-8 4 -11 2t-10 -8l-59 -54q-5 -5 -20 -10.5t-22 -5.5h-17q-14 0 -19 11t3 21l80 96q5 7 21.5 14.5t25.5 7.5h34q9 0 25.5 -7.5t21.5 -14.5l80 -96q8 -10 3 -21t-18 -11h-12h-30q-14 17 -27 32q-12 14 -25 26t-24 18zM753 700q-31 -163 -60.5 -324t-59.5 -324
q-4 -19 -21.5 -35.5t-37.5 -16.5t-37 14t-21 34l-65 345q-4 24 -22 36t-38.5 12t-38 -12t-22.5 -36l-65 -345q-4 -20 -21 -34t-37 -14t-37 14t-21 34l-120 654l-4 24q-2 10 4 17t16 7h32q21 0 39 -15t22 -36l54 -322q4 -24 21.5 -36.5t38 -12.5t38.5 11.5t23 36.5l62 326
q4 20 21 34t37 14t37 -14t21 -34l64 -338q4 -24 22 -36t38.5 -12t38 12t21.5 36l62 338l3 23l3 17q2 8 10 8t7 -8l-8 -40z" />
    <glyph glyph-name="Ycircumflex" unicode="&#x176;" horiz-adv-x="599" 
d="M317 906q-8 4 -11 2t-10 -8l-59 -54q-5 -5 -20 -10.5t-22 -5.5h-17q-14 0 -19 11t3 21l80 96q5 7 21.5 14.5t25.5 7.5h34q9 0 25.5 -7.5t21.5 -14.5l80 -96q8 -10 3 -21t-18 -11h-12h-30q-14 17 -27 32q-12 14 -25 26t-24 18zM569 743q4 7 12 7l2 -1h6q-2 -3 -4 -7
q-2 -3 -4.5 -7.5t-5.5 -10.5q-49 -86 -98 -171.5t-98 -171.5q-1 -1 -3 -6t-3.5 -10.5l-3 -11t-1.5 -6.5v-297q0 -21 -15 -36t-36 -15t-36 15t-15 36v263q0 3 -2 13.5t-4 13.5q-54 92 -106.5 183.5t-105.5 184.5q-10 16 -1 29t28 13h22q11 0 24.5 -8t19.5 -17l14 -25
l185 -324q3 -6 10 -6t10 6z" />
    <glyph glyph-name="Ydieresis" unicode="&#x178;" horiz-adv-x="599" 
d="M382 830q-21 0 -35.5 14.5t-14.5 35.5q0 20 14.5 34.5t35.5 14.5h1q20 0 34.5 -14.5t14.5 -34.5q0 -21 -14.5 -35.5t-34.5 -14.5h-1zM230 830q-21 0 -35.5 14.5t-14.5 35.5q0 20 14.5 34.5t35.5 14.5h1q20 0 34.5 -14.5t14.5 -34.5q0 -21 -14.5 -35.5t-34.5 -14.5h-1z
M569 743q4 7 12 7l2 -1h6q-2 -3 -4 -7q-2 -3 -4.5 -7.5t-5.5 -10.5q-49 -86 -98 -171.5t-98 -171.5q-1 -1 -3 -6t-3.5 -10.5l-3 -11t-1.5 -6.5v-297q0 -21 -15 -36t-36 -15t-36 15t-15 36v263q0 3 -2 13.5t-4 13.5q-54 92 -106.5 183.5t-105.5 184.5q-10 16 -1 29t28 13h22
q11 0 24.5 -8t19.5 -17l14 -25l185 -324q3 -6 10 -6t10 6z" />
    <glyph glyph-name="Zacute" unicode="&#x179;" horiz-adv-x="655" 
d="M335 830q-16 0 -24.5 12t-2.5 27l27 71q6 16 23.5 28t33.5 12h18q21 0 30.5 -16.5t-2.5 -34.5l-43 -70q-6 -10 -23 -19.5t-29 -9.5h-8zM604 12q6 0 6 -6t-6 -6h-553q-6 0 -6 6q0 1 1 5.5t2 5.5l391 627q10 17 10.5 33.5t-7 30t-22 22t-34.5 8.5h-320q-6 0 -6 6t6 6h538
q6 0 6 -6q0 -1 -1 -5.5t-2 -5.5l-391 -627q-10 -17 -10.5 -33.5t7 -30t22 -22t34.5 -8.5h335z" />
    <glyph glyph-name="zacute" unicode="&#x17a;" horiz-adv-x="460" 
d="M243 600q-17 0 -25 12t-2 27l27 71q6 16 23.5 28t33.5 12h18q21 0 30 -16.5t-2 -34.5l-44 -70q-6 -10 -23 -19.5t-29 -9.5h-7zM390 129q0 3 3 3h44q3 0 3 -3t-3 -3h-44q-3 0 -3 3zM51 509q-6 0 -6 6q0 5 6 5h369q4 0 4 -4q0 -2 -2.5 -3t-4.5 -1q-66 -2 -134.5 -2.5
t-137.5 -0.5h-94zM30 4q0 4 2 7l266 466q6 10 22.5 20t27.5 11l22 1q18 1 27 -13.5t0 -30.5l-249 -428q-3 -7 -14.5 -14.5t-18.5 -8.5q-2 -1 0 -2t3 -1q78 1 156 0.5t157 -0.5q3 0 6 -1.5t3 -3.5q0 -6 -5 -6h-401q-4 0 -4 4z" />
    <glyph glyph-name="Zdot" unicode="&#x17b;" horiz-adv-x="655" 
d="M335 830q-21 0 -35.5 14.5t-14.5 35.5q0 20 14.5 34.5t35.5 14.5h1q20 0 34.5 -14.5t14.5 -34.5q0 -21 -14.5 -35.5t-34.5 -14.5h-1zM604 12q6 0 6 -6t-6 -6h-553q-6 0 -6 6q0 1 1 5.5t2 5.5l391 627q10 17 10.5 33.5t-7 30t-22 22t-34.5 8.5h-320q-6 0 -6 6t6 6h538
q6 0 6 -6q0 -1 -1 -5.5t-2 -5.5l-391 -627q-10 -17 -10.5 -33.5t7 -30t22 -22t34.5 -8.5h335z" />
    <glyph glyph-name="zdot" unicode="&#x17c;" horiz-adv-x="460" 
d="M243 600q-21 0 -35.5 14.5t-14.5 35.5q0 20 14.5 34.5t35.5 14.5q20 0 34.5 -14.5t14.5 -34.5q0 -21 -14.5 -35.5t-34.5 -14.5zM390 129q0 3 3 3h44q3 0 3 -3t-3 -3h-44q-3 0 -3 3zM51 509q-6 0 -6 6q0 5 6 5h369q4 0 4 -4q0 -2 -2.5 -3t-4.5 -1q-66 -2 -134.5 -2.5
t-137.5 -0.5h-94zM30 4q0 4 2 7l266 466q6 10 22.5 20t27.5 11l22 1q18 1 27 -13.5t0 -30.5l-249 -428q-3 -7 -14.5 -14.5t-18.5 -8.5q-2 -1 0 -2t3 -1q78 1 156 0.5t157 -0.5q3 0 6 -1.5t3 -3.5q0 -6 -5 -6h-401q-4 0 -4 4z" />
    <glyph glyph-name="Zcaron" unicode="&#x17d;" horiz-adv-x="655" 
d="M325 910q7 -6 10 -8t11 2q11 6 23.5 18t24 24.5t19.5 22.5t9 11q6 8 13 4t17 -4h12q13 0 18 -11t-3 -21l-80 -96q-5 -7 -21.5 -14.5t-25.5 -7.5h-34q-9 0 -25.5 7.5t-21.5 14.5l-80 96q-8 10 -3 21t19 11h17q7 0 22 -5.5t20 -10.5zM604 12q6 0 6 -6t-6 -6h-553q-6 0 -6 6
q0 1 1 5.5t2 5.5l391 627q10 17 10.5 33.5t-7 30t-22 22t-34.5 8.5h-320q-6 0 -6 6t6 6h538q6 0 6 -6q0 -1 -1 -5.5t-2 -5.5l-391 -627q-10 -17 -10.5 -33.5t7 -30t22 -22t34.5 -8.5h335z" />
    <glyph glyph-name="zcaron" unicode="&#x17e;" horiz-adv-x="460" 
d="M233 680q7 -6 10 -8t11 2q11 6 23.5 18t23.5 24.5t19 22.5t9 11q6 8 13 4t17 -4h12q13 0 18.5 -11t-3.5 -21l-79 -96q-5 -7 -21.5 -14.5t-25.5 -7.5h-35q-9 0 -25 7.5t-22 14.5l-79 96q-8 10 -3 21t19 11h17q7 0 22 -5.5t20 -10.5zM390 129q0 3 3 3h44q3 0 3 -3t-3 -3
h-44q-3 0 -3 3zM51 509q-6 0 -6 6q0 5 6 5h369q4 0 4 -4q0 -2 -2.5 -3t-4.5 -1q-66 -2 -134.5 -2.5t-137.5 -0.5h-94zM30 4q0 4 2 7l266 466q6 10 22.5 20t27.5 11l22 1q18 1 27 -13.5t0 -30.5l-249 -428q-3 -7 -14.5 -14.5t-18.5 -8.5q-2 -1 0 -2t3 -1q78 1 156 0.5
t157 -0.5q3 0 6 -1.5t3 -3.5q0 -6 -5 -6h-401q-4 0 -4 4z" />
    <glyph glyph-name="oogonek" unicode="&#x1eb;" horiz-adv-x="754" 
d="M165 299q0 -67 15.5 -121.5t44 -93.5t69 -60t89.5 -21q38 0 71 13q5 2 5.5 6t-3.5 8q-22 22 -46 47q-3 3 1 7t8 0q22 -22 55 -42q6 -4 15 -3t14 5q46 37 71.5 102t25.5 152q0 63 -16.5 117.5t-45.5 94t-68.5 62t-86.5 22.5q-46 0 -86 -22.5t-69.5 -62t-46 -94
t-16.5 -117.5v1zM66 299q0 66 24 122t66.5 97t100.5 64.5t126 23.5t125.5 -23.5t100 -64.5t66.5 -97.5t24 -122.5q0 -92 -39 -161t-109 -107q-10 -5 -9 -16t11 -16q39 -17 67 -26.5t30 -10.5q6 -2 4.5 -4t-6.5 -5t-11.5 -6.5t-11.5 -7.5l-8 -8l-22 -20q-12 9 -28 22
q-13 11 -30.5 25.5t-38.5 33.5q-4 4 -15 7t-16 2q-39 -8 -84 -8q-71 0 -129.5 22t-100 62.5t-64.5 97t-23 125.5z" />
    <glyph glyph-name="Adotabove" unicode="&#x226;" horiz-adv-x="748" 
d="M391 830q-21 0 -35.5 14.5t-14.5 35.5q0 20 14.5 34.5t35.5 14.5h1q20 0 34.5 -14.5t14.5 -34.5q0 -21 -14.5 -35.5t-34.5 -14.5h-1zM314 700l9 25l5 13q2 4 7.5 8t10.5 4h56q16 0 33.5 -12t23.5 -27l259 -660q8 -20 -2.5 -35.5t-31.5 -15.5h-42q-5 0 -10.5 4t-7.5 9
l-5 12l-6 17l-66 167q-6 15 -23.5 27t-33.5 12h-295q-16 0 -33.5 -12t-23.5 -27l-66 -167l-6 -17l-7 -18q-3 -7 -11 -7t-5 7l270 693h1zM191 344q-13 -33 4.5 -58.5t52.5 -25.5h190q35 0 52.5 25.5t4.5 58.5l-95 245q-8 20 -24 30.5t-33 10.5t-33 -10.5t-24 -30.5z" />
    <glyph glyph-name="G_sc" unicode="&#x262;" horiz-adv-x="693" 
d="M441 332q-6 0 -6 6q-1 5 5 5h146q25 0 43 -18t18 -43v-149q0 -10 -8.5 -26.5t-16.5 -22.5q-55 -43 -111 -68t-103 -25q-78 0 -142.5 22t-110 62.5t-70.5 97t-25 125.5t25 126t70.5 97.5t110 62.5t142.5 22q40 0 77.5 -26.5t66.5 -58.5q34 -38 64 -86l3 -4q3 -5 -1 -9h-1
q-2 -2 -5 -0.5t-5 3.5q-22 38 -48 69t-52 53.5t-51 34.5t-47 12q-56 0 -102 -21t-78.5 -60t-50.5 -93.5t-18 -121.5t18 -121.5t50.5 -93.5t78.5 -60t102 -21q43 0 96 24.5t106 65.5q8 6 16 22t8 26v131q0 25 -18 43t-43 18h-133z" />
    <glyph glyph-name="I_sc" unicode="&#x26a;" horiz-adv-x="269" 
d="M184 46q0 -19 -13.5 -32.5t-32.5 -13.5t-32.5 13.5t-13.5 32.5v505q0 19 13.5 32.5t32.5 13.5t32.5 -13.5t13.5 -32.5v-505z" />
    <glyph glyph-name="N_sc" unicode="&#x274;" horiz-adv-x="581" 
d="M129 7q0 -7 -6 -7q-7 0 -7 7v542q0 20 14 34t34 14h9q15 0 32 -11t24 -25l136 -293q10 -22 29.5 -30t39 -3.5t34 19.5t14.5 39v297q0 7 7 7t7 -7v-539q0 -21 -15 -36t-36 -15h-12q-15 0 -32 11t-24 25l-131 281q-10 22 -29.5 30t-39 3.5t-34 -19.5t-14.5 -39v-285z" />
    <glyph glyph-name="R_sc" unicode="&#x280;" horiz-adv-x="564" 
d="M478 0q-11 0 -28 9t-23 19l-132 204q-10 15 -2.5 29.5t26.5 14.5h19q11 0 28 -9t23 -19l137 -210l6 -9t7.5 -12.5t6.5 -11t4 -5.5q3 -5 -4 -2.5t-13 2.5h-55zM188 47q0 -19 -13.5 -32.5t-32.5 -13.5t-32.5 13.5t-13.5 32.5v490q0 25 18 43t43 18h145q227 0 227 -179
q0 -140 -227 -140h-57q-24 0 -40.5 -16.5t-16.5 -40.5v-175zM188 347q0 -24 16.5 -40.5t40.5 -16.5h57q135 0 135 129q0 168 -136 168h-56q-24 0 -40.5 -16.5t-16.5 -39.5v-184z" />
    <glyph glyph-name="Y_sc" unicode="&#x28f;" horiz-adv-x="539" 
d="M514 597q2 2 3.5 1t4.5 -1l7 -1q-11 -13 -21 -24q-8 -10 -14.5 -17.5l-6.5 -7.5l-138 -161q-4 -4 -9.5 -19t-5.5 -21v-300q0 -19 -13.5 -32.5t-32.5 -13.5t-32.5 13.5t-13.5 32.5v262q0 6 -5 20t-9 19l-167 206l-17 19l-10 13q-3 4 -1 8t7 4h56q9 0 25 -7.5t22 -15.5
l155 -190q2 -3 7.5 -5.5t8.5 -2.5t9 3t8 5l143 167q1 2 7.5 9t13.5 15t12.5 14.5t6.5 7.5z" />
    <glyph glyph-name="B_sc" unicode="&#x299;" horiz-adv-x="632" 
d="M444 342q-3 0 -2 -6.5t4 -7.5q70 -13 110.5 -54t40.5 -101q0 -47 -13.5 -80t-43 -53.5t-76 -30t-112.5 -9.5h-195q-25 0 -43 18t-18 43v475q0 25 18 43t43 18h158q66 0 112.5 -8.5t76 -27.5t43 -49t13.5 -73q0 -34 -30.5 -59t-85.5 -38zM188 398q0 -25 18 -43t43 -18
l81 -1q61 0 98 26.5t37 70.5q0 83 -34 118t-115 35h-67q-25 0 -43 -18t-18 -43v-127zM188 72q0 -25 18 -43t43 -18h99q81 0 115.5 39.5t34.5 132.5q0 65 -34 104.5t-91 39.5h-124q-25 0 -43 -18t-18 -43v-194z" />
    <glyph glyph-name="H_sc" unicode="&#x29c;" horiz-adv-x="668" 
d="M583 46q0 -19 -13.5 -32.5t-31.5 -13.5q-19 0 -32.5 13.5t-13.5 32.5v190q0 25 -18 43t-43 18h-182q-25 0 -43 -18t-18 -43v-190q0 -19 -13.5 -32.5t-32.5 -13.5t-32.5 13.5t-13.5 32.5v505q0 19 13.5 32.5t32.5 13.5t32.5 -13.5t13.5 -32.5v-181q0 -25 18 -43t43 -18
h182q25 0 43 18t18 43v182q0 18 13.5 31.5t32.5 13.5q18 0 31.5 -13.5t13.5 -31.5v-506z" />
    <glyph glyph-name="L_sc" unicode="&#x29f;" horiz-adv-x="479" 
d="M444 11q5 0 5 -5q0 -6 -5 -6h-291q-25 0 -43 18t-18 43v490q0 19 13.5 32.5t32.5 13.5t32.5 -13.5t13.5 -32.5v-479q0 -25 18 -43t43 -18h199z" />
    <glyph glyph-name="circumflex" unicode="&#x2c6;" horiz-adv-x="340" 
d="M181 676q-8 4 -11 2t-10 -8l-59 -54q-5 -5 -20 -10.5t-22 -5.5h-17q-14 0 -19 11t3 21l80 96q5 7 21.5 14.5t25.5 7.5h34q9 0 25.5 -7.5t21.5 -14.5l80 -96q8 -10 3 -21t-18 -11h-12h-30q-14 17 -27 32q-12 14 -25 26t-24 18z" />
    <glyph glyph-name="caron" unicode="&#x2c7;" horiz-adv-x="340" 
d="M160 680q7 -6 10 -8t11 2q11 6 23.5 18t24 24.5t19.5 22.5t9 11q6 8 13 4t17 -4h12q13 0 18 -11t-3 -21l-80 -96q-5 -7 -21.5 -14.5t-25.5 -7.5h-34q-9 0 -25.5 7.5t-21.5 14.5l-80 96q-8 10 -3 21t19 11h17q7 0 22 -5.5t20 -10.5z" />
    <glyph glyph-name="firsttonechinese" unicode="&#x2c9;" horiz-adv-x="340" 
d="M62 600q-13 0 -22.5 9.5t-9.5 22.5t9.5 22.5t22.5 9.5h216q13 0 22.5 -9.5t9.5 -22.5t-9.5 -22.5t-22.5 -9.5h-216z" />
    <glyph glyph-name="breve" unicode="&#x2d8;" horiz-adv-x="340" 
d="M27 693q-4 17 4.5 26t25.5 9h12q7 0 15 -7.5t10 -14.5q6 -24 26.5 -37.5t49.5 -13.5t49.5 13.5t26.5 37.5q2 7 10 14.5t15 7.5h12q17 0 25 -9t4 -26q-11 -47 -48.5 -74.5t-93.5 -27.5t-94 27.5t-49 74.5z" />
    <glyph glyph-name="dotaccent" unicode="&#x2d9;" horiz-adv-x="340" 
d="M170 600q-21 0 -35.5 14.5t-14.5 35.5q0 20 14.5 34.5t35.5 14.5h1q20 0 34.5 -14.5t14.5 -34.5q0 -21 -14.5 -35.5t-34.5 -14.5h-1z" />
    <glyph glyph-name="ring" unicode="&#x2da;" horiz-adv-x="340" 
d="M132 685q0 -43 38 -43t38 43q0 20 -10 31t-28 11t-28 -11t-10 -31zM86 685q0 40 22 62t62 22t62 -22t22 -62q0 -85 -84 -85t-84 85z" />
    <glyph glyph-name="A_sc" unicode="&#x1d00;" horiz-adv-x="685" 
d="M43 0q-3 0 -2 2q3 7 10.5 24t10.5 24q57 127 113 252.5t113 252.5q6 14 25 28t34 14h18q15 0 32.5 -11t23.5 -25l236 -522q1 -3 4 -9t6 -12.5t5.5 -11.5t2.5 -6q3 -6 -4 -3t-13 3h-38q-15 0 -32.5 11.5t-23.5 24.5l-56 125q-6 13 -23.5 24.5t-32.5 11.5h-269
q-15 0 -32.5 -11.5t-23.5 -24.5l-69 -154q-3 -7 -10 -7h-5zM185 293q-7 -16 -6 -31.5t9 -27.5t22 -19.5t32 -7.5h149q18 0 32 7.5t21.5 19.5t9 27.5t-6.5 32.5l-75 167q-8 20 -23.5 29.5t-32.5 9.5t-32 -9.5t-24 -29.5z" />
    <glyph glyph-name="C_sc" unicode="&#x1d04;" horiz-adv-x="643" 
d="M608 171q1 2 4 4t5 0t2 -6t-1 -6q-18 -39 -44 -70.5t-56.5 -54t-64.5 -35t-68 -12.5q-73 0 -133 24.5t-102.5 66.5t-66 98t-23.5 118t23.5 118t66 98t102.5 67t133 25q49 0 91.5 -26.5t73.5 -58.5q37 -38 67 -86l3 -4q3 -5 -1 -8l-1 -1q-3 -2 -6 -1t-5 4q-22 38 -49.5 69
t-56.5 53.5t-58.5 34.5t-56.5 12q-51 0 -92.5 -23.5t-71.5 -64t-46 -94.5t-16 -114t16 -113.5t46 -94t71.5 -64.5t92.5 -24q32 0 64 12t61.5 34.5t54 53.5t42.5 69z" />
    <glyph glyph-name="D_sc" unicode="&#x1d05;" horiz-adv-x="705" 
d="M320 0h-163q-25 0 -43 18t-18 43v475q0 25 18 43t43 18h133q180 0 270 -75t90 -224q0 -152 -80.5 -225t-249.5 -73zM188 72q0 -25 18 -43t43 -18h70q118 0 175 70t57 217q0 143 -65 215.5t-195 72.5h-51q-22 0 -37 -15t-15 -36v-463z" />
    <glyph glyph-name="E_sc" unicode="&#x1d07;" horiz-adv-x="553" 
d="M498 11q5 0 5 -5q0 -6 -5 -6h-341q-25 0 -43 18t-18 43v475q0 25 18 43t43 18h325q6 0 6 -6t-6 -6h-19h-25q-52 0 -108 0.5t-107 0.5q-16 0 -25.5 -11t-9.5 -26v-175q0 -25 18 -43t43 -18h214q5 0 5 -5t-5 -5h-214q-25 0 -43 -18t-18 -43v-170q0 -25 18 -43t43 -18h249z
" />
    <glyph glyph-name="J_sc" unicode="&#x1d0a;" horiz-adv-x="469" 
d="M58 250q0 12 9 23t22 13l35 7q11 1 18.5 -5t7.5 -17v-26q0 -125 17 -183t54 -58q35 0 53 46.5t18 124.5v376q0 19 13.5 32.5t32.5 13.5t32.5 -13.5t13.5 -32.5v-376q0 -83 -41 -133.5t-122 -50.5q-85 0 -124 54.5t-39 172.5v32z" />
    <glyph glyph-name="K_sc" unicode="&#x1d0b;" horiz-adv-x="584" 
d="M496 592q1 1 5.5 3.5t6.5 2.5h1q2 0 3 -1.5t0 -3.5l-6 -7l-158 -173q-13 -15 -15 -37.5t10 -38.5l196 -286q6 -9 12 -17q5 -7 9.5 -13.5t6.5 -9.5l4 -5q3 -5 -3 -5h-67q-10 0 -26.5 8.5t-22.5 16.5l-177 242q-10 15 -27 15.5t-29 -12.5l-15 -15q-4 -5 -10 -20t-6 -22
v-167q0 -19 -13.5 -32.5t-32.5 -13.5t-32.5 13.5t-13.5 32.5v505q0 19 13.5 32.5t32.5 13.5t32.5 -13.5t13.5 -32.5v-139q0 -22 11 -37.5t27.5 -22t35 -2.5t33.5 20l166 183q6 7 16.5 18t18.5 20z" />
    <glyph glyph-name="M_sc" unicode="&#x1d0d;" horiz-adv-x="752" 
d="M129 7q0 -7 -6 -7q-7 0 -7 7v544q0 19 13.5 32.5t33.5 13.5h1q18 0 35.5 -13t22.5 -30l109 -348q7 -22 23.5 -33t35 -11t35 11t23.5 33l109 348q6 17 23.5 30t35.5 13h3q20 0 34 -14t14 -34v-505q0 -18 -13 -31t-31 -13t-31 13t-13 31v248q0 18 -11.5 29t-27 13.5
t-29.5 -4.5t-20 -25l-84 -266q-5 -15 -21 -27t-32 -12t-32 12t-21 27l-84 265q-6 17 -20.5 24t-29.5 4.5t-26.5 -13t-11.5 -28.5v-284z" />
    <glyph glyph-name="O_sc" unicode="&#x1d0f;" horiz-adv-x="754" 
d="M165 298q0 -67 15.5 -121.5t44 -93.5t69 -60t89.5 -21t89 21t68.5 60t44 93.5t15.5 121.5q0 63 -16.5 117.5t-45.5 94t-68.5 62t-86.5 22.5q-46 0 -86 -22.5t-69.5 -62t-46 -94t-16.5 -117.5zM66 298q0 66 24 122.5t66.5 97.5t100.5 64.5t126 23.5t125.5 -23.5t100 -64.5
t66.5 -97.5t24 -122.5q0 -69 -22.5 -125.5t-64 -97t-100 -62.5t-129.5 -22t-129.5 22t-100 62.5t-64.5 97t-23 125.5z" />
    <glyph glyph-name="P_sc" unicode="&#x1d18;" horiz-adv-x="564" 
d="M188 46q0 -19 -13.5 -32.5t-32.5 -13.5t-32.5 13.5t-13.5 32.5v490q0 25 18 43t43 18h145q227 0 227 -179q0 -156 -227 -156h-57q-24 0 -40.5 -16.5t-16.5 -40.5v-159zM188 331q0 -24 17 -41t41 -17h57q134 0 134 145q0 168 -136 168h-56q-24 0 -40.5 -16.5t-16.5 -39.5
v-199z" />
    <glyph glyph-name="T_sc" unicode="&#x1d1b;" horiz-adv-x="535" 
d="M519 597q6 0 6 -6t-6 -6h-145q-25 0 -43 -18t-18 -43v-478q0 -19 -13.5 -32.5t-31.5 -13.5q-19 0 -32.5 13.5t-13.5 32.5v478q0 25 -18 43t-43 18h-145q-6 0 -6 6t6 6h503z" />
    <glyph glyph-name="U_sc" unicode="&#x1d1c;" horiz-adv-x="615" 
d="M522 591q0 6 7 6q6 0 6 -6v-357q0 -121 -56 -182t-167 -61t-167 60.5t-56 179.5v320q0 19 13.5 32.5t32.5 13.5t32.5 -13.5t13.5 -32.5v-304q0 -121 33 -182t98 -61q210 0 210 233v354z" />
    <glyph glyph-name="V_sc" unicode="&#x1d20;" horiz-adv-x="513" 
d="M486 590q2 7 10 7h7q-3 -10 -6 -18q-2 -7 -4.5 -13.5t-3.5 -9.5l-171 -516q-5 -16 -22 -28t-33 -12q-17 0 -34 12t-22 28l-172 514l-7 22q-3 8 2 14.5t14 6.5h71q5 0 6 -5q3 -8 7 -20t6 -19l107 -349q7 -22 23.5 -33.5t35 -11.5t35 11t23.5 33z" />
    <glyph glyph-name="W_sc" unicode="&#x1d21;" horiz-adv-x="703" 
d="M684 554l-110 -510q-3 -18 -19 -31t-34 -13q-19 0 -35 13t-19 31l-52 241q-5 24 -22.5 36t-37.5 12t-37.5 -12t-22.5 -36l-53 -242q-3 -18 -19 -30.5t-34 -12.5t-33.5 13t-19.5 30l-108 511l-3 17l-2 13q-3 12 10 12h61q10 0 19 -7.5t11 -17.5l5 -25q20 -107 40.5 -213
t41.5 -214q1 -7 6 -11t11 -5t11.5 2t6.5 10l94 438q4 17 19.5 30t33.5 13t34 -12.5t19 -30.5l53 -242q5 -24 22.5 -35.5t37.5 -11.5t37.5 12t22.5 35l56 278q2 7 10 7q7 0 6 -7l-4 -18z" />
    <glyph glyph-name="Z_sc" unicode="&#x1d22;" horiz-adv-x="595" 
d="M545 11q5 0 5 -5q0 -6 -5 -6h-494q-6 0 -6 6q0 1 1 4.5t2 4.5l336 473q12 16 13 33.5t-6.5 31.5t-22 23t-34.5 9h-268q-6 0 -6 6t6 6h478q6 0 6 -6q0 -1 -1.5 -5.5t-1.5 -5.5l-336 -472q-12 -16 -13 -33.5t6.5 -31.5t22 -23t34.5 -9h284z" />
    <glyph glyph-name="Wgrave" unicode="&#x1e80;" horiz-adv-x="771" 
d="M382 830q-12 0 -29 9.5t-23 19.5l-43 70q-12 18 -2.5 34.5t30.5 16.5h18q16 0 33.5 -12t23.5 -28l27 -71q6 -15 -2.5 -27t-24.5 -12h-8zM753 700q-31 -163 -60.5 -324t-59.5 -324q-4 -19 -21.5 -35.5t-37.5 -16.5t-37 14t-21 34l-65 345q-4 24 -22 36t-38.5 12t-38 -12
t-22.5 -36l-65 -345q-4 -20 -21 -34t-37 -14t-37 14t-21 34l-120 654l-4 24q-2 10 4 17t16 7h32q21 0 39 -15t22 -36l54 -322q4 -24 21.5 -36.5t38 -12.5t38.5 11.5t23 36.5l62 326q4 20 21 34t37 14t37 -14t21 -34l64 -338q4 -24 22 -36t38.5 -12t38 12t21.5 36l62 338
l3 23l3 17q2 8 10 8t7 -8l-8 -40z" />
    <glyph glyph-name="Wacute" unicode="&#x1e82;" horiz-adv-x="771" 
d="M390 830q-16 0 -24.5 12t-2.5 27l27 71q6 16 23.5 28t33.5 12h18q21 0 30.5 -16.5t-2.5 -34.5l-43 -70q-6 -10 -23 -19.5t-29 -9.5h-8zM753 700q-31 -163 -60.5 -324t-59.5 -324q-4 -19 -21.5 -35.5t-37.5 -16.5t-37 14t-21 34l-65 345q-4 24 -22 36t-38.5 12t-38 -12
t-22.5 -36l-65 -345q-4 -20 -21 -34t-37 -14t-37 14t-21 34l-120 654l-4 24q-2 10 4 17t16 7h32q21 0 39 -15t22 -36l54 -322q4 -24 21.5 -36.5t38 -12.5t38.5 11.5t23 36.5l62 326q4 20 21 34t37 14t37 -14t21 -34l64 -338q4 -24 22 -36t38.5 -12t38 12t21.5 36l62 338
l3 23l3 17q2 8 10 8t7 -8l-8 -40z" />
    <glyph glyph-name="Wdieresis" unicode="&#x1e84;" horiz-adv-x="771" 
d="M466 830q-21 0 -35.5 14.5t-14.5 35.5q0 20 14.5 34.5t35.5 14.5h1q20 0 34.5 -14.5t14.5 -34.5q0 -21 -14.5 -35.5t-34.5 -14.5h-1zM314 830q-21 0 -35.5 14.5t-14.5 35.5q0 20 14.5 34.5t35.5 14.5h1q20 0 34.5 -14.5t14.5 -34.5q0 -21 -14.5 -35.5t-34.5 -14.5h-1z
M753 700q-31 -163 -60.5 -324t-59.5 -324q-4 -19 -21.5 -35.5t-37.5 -16.5t-37 14t-21 34l-65 345q-4 24 -22 36t-38.5 12t-38 -12t-22.5 -36l-65 -345q-4 -20 -21 -34t-37 -14t-37 14t-21 34l-120 654l-4 24q-2 10 4 17t16 7h32q21 0 39 -15t22 -36l54 -322
q4 -24 21.5 -36.5t38 -12.5t38.5 11.5t23 36.5l62 326q4 20 21 34t37 14t37 -14t21 -34l64 -338q4 -24 22 -36t38.5 -12t38 12t21.5 36l62 338l3 23l3 17q2 8 10 8t7 -8l-8 -40z" />
    <glyph glyph-name="Etilde" unicode="&#x1ebc;" horiz-adv-x="620" 
d="M246 851q-1 -8 -7 -14.5t-14 -6.5h-14q-16 0 -25 9.5t-7 25.5q6 41 22.5 67t41.5 33q18 6 20 -15v-9l1 -1q-1 12 -1.5 20t-1.5 8q15 0 35 -11.5t38.5 -25t32 -26t15.5 -13.5q4 -4 3 -2.5t3 4.5q13 8 16 44q1 8 7 14.5t14 6.5h14q15 0 24 -10t7 -25q-5 -38 -19.5 -63.5
t-36.5 -34.5q-14 -6 -20 -0.5t-7 20.5l-2 11l-3 35q1 -20 3 -35q1 -15 2 -25.5t2 -10.5q-15 0 -31.5 12t-32.5 26t-31 26t-27 12q-8 0 -13.5 -12.5t-7.5 -33.5zM564 12q6 0 6 -6t-6 -6h-409q-25 0 -43 18t-18 43v628q0 25 18 43t43 18h394q6 0 6 -6t-6 -6h-293
q-25 0 -43 -18t-18 -43v-223q0 -25 18 -43t43 -18h273q6 0 6 -6t-6 -6h-273q-25 0 -43 -18t-18 -43v-247q0 -25 18 -43t43 -18h308z" />
    <glyph glyph-name="Ygrave" unicode="&#x1ef2;" horiz-adv-x="599" 
d="M298 830q-12 0 -29 9.5t-23 19.5l-43 70q-12 18 -2.5 34.5t30.5 16.5h18q16 0 33.5 -12t23.5 -28l27 -71q6 -15 -2.5 -27t-24.5 -12h-8zM569 743q4 7 12 7l2 -1h6q-2 -3 -4 -7q-2 -3 -4.5 -7.5t-5.5 -10.5q-49 -86 -98 -171.5t-98 -171.5q-1 -1 -3 -6t-3.5 -10.5l-3 -11
t-1.5 -6.5v-297q0 -21 -15 -36t-36 -15t-36 15t-15 36v263q0 3 -2 13.5t-4 13.5q-54 92 -106.5 183.5t-105.5 184.5q-10 16 -1 29t28 13h22q11 0 24.5 -8t19.5 -17l14 -25l185 -324q3 -6 10 -6t10 6z" />
    <glyph glyph-name="endash" unicode="&#x2013;" horiz-adv-x="410" 
d="M43 225q-16 0 -27 11t-11 27t11 27t27 11h324q16 0 27 -11t11 -27t-11 -27t-27 -11h-324z" />
    <glyph glyph-name="emdash" unicode="&#x2014;" horiz-adv-x="700" 
d="M88 225q-16 0 -27 11t-11 27t11 27t27 11h524q16 0 27 -11t11 -27t-11 -27t-27 -11h-524z" />
    <glyph glyph-name="quoteleft" unicode="&#x2018;" horiz-adv-x="199" 
d="M124 757q12 2 18.5 -4t6.5 -18v-10q0 -4 -5 -9.5t-8 -6.5q-21 -8 -25 -40q-2 -18 17 -18h2q8 0 13.5 -5.5t5.5 -13.5v-30q0 -21 -14.5 -35.5t-34.5 -14.5q-21 0 -35.5 14.5t-14.5 35.5v49q0 43 17 71t57 35z" />
    <glyph glyph-name="quoteright" unicode="&#x2019;" horiz-adv-x="199" 
d="M100 710q0 20 14.5 34.5t35.5 14.5q20 0 34.5 -14.5t14.5 -34.5v-50q0 -52 -17 -76.5t-57 -30.5q-12 -1 -18.5 5.5t-6.5 17.5v10q0 4 4.5 9t8.5 7q21 5 25 38q2 20 -18 20q-9 0 -14.5 5.5t-5.5 14.5v30z" />
    <glyph glyph-name="quotedblleft" unicode="&#x201c;" horiz-adv-x="397" 
d="M323 757q12 2 18.5 -4t6.5 -18v-10q0 -4 -5 -9.5t-8 -6.5q-21 -8 -25 -40q-2 -18 17 -18h2q8 0 13.5 -5.5t5.5 -13.5v-30q0 -21 -14.5 -35.5t-34.5 -14.5q-21 0 -35.5 14.5t-14.5 35.5v49q0 43 17 71t57 35zM174 757q12 2 18.5 -4t6.5 -18v-10q0 -4 -5 -9.5t-8 -6.5
q-21 -8 -25 -40q-2 -18 17 -18h2q8 0 13.5 -5.5t5.5 -13.5v-30q0 -21 -14.5 -35.5t-34.5 -14.5q-21 0 -35.5 14.5t-14.5 35.5v49q0 43 17 71t57 35z" />
    <glyph glyph-name="quotedblright" unicode="&#x201d;" horiz-adv-x="397" 
d="M249 710q0 20 14.5 34.5t35.5 14.5q20 0 34.5 -14.5t14.5 -34.5v-50q0 -52 -17 -76.5t-57 -30.5q-12 -1 -18.5 5.5t-6.5 17.5v10q0 4 4.5 9t8.5 7q21 5 25 38q2 20 -18 20q-9 0 -14.5 5.5t-5.5 14.5v30zM100 710q0 20 14.5 34.5t35.5 14.5q20 0 34.5 -14.5t14.5 -34.5
v-50q0 -52 -17 -76.5t-57 -30.5q-12 -1 -18.5 5.5t-6.5 17.5v10q0 4 4.5 9t8.5 7q21 5 25 38q2 20 -18 20q-9 0 -14.5 5.5t-5.5 14.5v30z" />
    <glyph glyph-name="dagger" unicode="&#x2020;" horiz-adv-x="551" 
d="M452 580q16 0 27.5 -11.5t11.5 -27.5q0 -17 -11.5 -28.5t-27.5 -11.5h-70q-25 0 -43 -18t-18 -43v-445q0 -18 -13.5 -31.5t-31.5 -13.5q-19 0 -32.5 13.5t-13.5 31.5v445q0 25 -18 43t-43 18h-69q-17 0 -28.5 11.5t-11.5 28.5q0 16 11.5 27.5t28.5 11.5h69q25 0 43 18
t18 43v64q0 18 13.5 31.5t32.5 13.5q18 0 31.5 -13.5t13.5 -31.5v-64q0 -25 18 -43t43 -18h70z" />
    <glyph glyph-name="daggerdbl" unicode="&#x2021;" horiz-adv-x="551" 
d="M100 120q-17 0 -28.5 11.5t-11.5 28.5q0 16 11.5 27.5t28.5 11.5h69q25 0 43 18t18 43v180q0 25 -18 43t-43 18h-69q-17 0 -28.5 11.5t-11.5 28.5q0 16 11.5 27.5t28.5 11.5h69q25 0 43 18t18 43v64q0 18 13.5 31.5t32.5 13.5q18 0 31.5 -13.5t13.5 -31.5v-64
q0 -25 18 -43t43 -18h70q16 0 27.5 -11.5t11.5 -27.5q0 -17 -11.5 -28.5t-27.5 -11.5h-70q-25 0 -43 -18t-18 -43v-180q0 -25 18 -43t43 -18h70q16 0 27.5 -11.5t11.5 -27.5q0 -17 -11.5 -28.5t-27.5 -11.5h-70q-25 0 -43 -18t-18 -43v-64q0 -18 -13.5 -31.5t-31.5 -13.5
q-19 0 -32.5 13.5t-13.5 32.5v63q0 25 -18 43t-43 18h-69z" />
    <glyph glyph-name="bullet" unicode="&#x2022;" horiz-adv-x="199" 
d="M100 210q-21 0 -35.5 14.5t-14.5 35.5v1q0 20 14.5 34.5t35.5 14.5q20 0 34.5 -14.5t14.5 -34.5v-1q0 -21 -14.5 -35.5t-34.5 -14.5z" />
    <glyph glyph-name="ellipsis" unicode="&#x2026;" horiz-adv-x="547" 
d="M449 0q-21 0 -35.5 14.5t-14.5 35.5q0 20 14.5 34.5t35.5 14.5q20 0 34.5 -14.5t14.5 -34.5q0 -21 -14.5 -35.5t-34.5 -14.5zM274 0q-21 0 -35.5 14.5t-14.5 35.5q0 20 14.5 34.5t35.5 14.5h1q20 0 34.5 -14.5t14.5 -34.5q0 -21 -14.5 -35.5t-34.5 -14.5h-1zM100 0
q-21 0 -35.5 14.5t-14.5 35.5q0 20 14.5 34.5t35.5 14.5q20 0 34.5 -14.5t14.5 -34.5q0 -21 -14.5 -35.5t-34.5 -14.5z" />
    <glyph glyph-name="perthousand" unicode="&#x2030;" horiz-adv-x="764" 
d="M855 -2q36 0 54 39t18 104t-18 104t-54 39q-35 0 -53 -39t-18 -104t18 -104t53 -39zM855 -9q-61 0 -92 41t-31 109t31 109t92 41t92 -41t31 -109t-31 -109t-92 -41zM584 -2q35 0 53 39t18 104t-18 104t-53 39q-36 0 -54 -39t-18 -104t18 -104t54 -39zM584 -9
q-61 0 -92 41t-31 109t31 109t92 41t92 -41t31 -109t-31 -109t-92 -41zM180 466q36 0 54 39t18 104t-18 104t-54 39q-35 0 -53 -39t-18 -104t18 -104t53 -39zM180 459q-61 0 -92 41t-31 109t31 109t92 41t92 -41t31 -109t-31 -109t-92 -41zM176 0q-6 0 -8.5 4.5t0.5 9.5
l396 722q3 5 10.5 9.5t13.5 4.5t8.5 -4.5t-0.5 -9.5l-396 -722q-3 -5 -10.5 -9.5t-13.5 -4.5z" />
    <glyph glyph-name="guilsinglleft" unicode="&#x2039;" horiz-adv-x="265" 
d="M177 443q6 9 22.5 18t28.5 9h7q14 0 20 -11t-2 -22l-95 -143q-9 -13 -9 -34t9 -34l95 -143q8 -11 2 -22t-20 -11h-7q-12 0 -28.5 9t-22.5 18l-99 149q-9 13 -9 34t9 34z" />
    <glyph glyph-name="guilsinglright" unicode="&#x203a;" horiz-adv-x="265" 
d="M87 437q-8 11 -2 22t20 11h7q12 0 28.5 -9t22.5 -18l99 -149q9 -13 9 -34t-9 -34l-99 -149q-6 -9 -22.5 -18t-28.5 -9h-7q-14 0 -20 11t2 22l95 143q9 13 9 34t-9 34z" />
    <glyph glyph-name="fraction" unicode="&#x2044;" horiz-adv-x="564" 
d="M76 0q-6 0 -8.5 4.5t0.5 9.5l396 722q3 5 10.5 9.5t13.5 4.5t8.5 -4.5t-0.5 -9.5l-396 -722q-3 -5 -10.5 -9.5t-13.5 -4.5z" />
    <glyph glyph-name="Euro" unicode="&#x20ac;" horiz-adv-x="701" 
d="M28 294q-11 0 -17.5 7.5t-4.5 18.5v0q1 10 9.5 17.5t19.5 7.5h15q10 0 10 9q-1 21 0 42q0 9 -10 9h-15q-11 0 -17.5 7.5t-5.5 17.5l1 1q1 10 9.5 17.5t19.5 7.5q9 0 18.5 8t12.5 17q15 59 46 110t75.5 88.5t101 58.5t123.5 21q35 0 70.5 -12.5t69.5 -35t64 -54t53 -70.5
q2 -3 2 -7t-2 -5q-3 -2 -6 -1t-5 4q-23 38 -52 69t-61.5 53.5t-66 34.5t-66.5 12q-41 0 -77 -16.5t-65.5 -45.5t-51.5 -69.5t-36 -88.5q-9 -31 7 -51t49 -20h205q11 0 17.5 -7.5t5.5 -17.5q-2 -11 -10.5 -18.5t-19.5 -7.5h-264q-10 0 -10 -9q-1 -21 0 -42q0 -9 10 -9h264
q11 0 17.5 -7.5t5.5 -17.5q-2 -11 -10.5 -18.5t-19.5 -7.5h-191q-33 0 -49 -20t-7 -51q14 -48 36 -88.5t51.5 -69.5t65.5 -45.5t77 -16.5q38 0 74.5 12t69 34.5t59 53.5t44.5 69q2 3 4.5 4t5.5 0q2 -2 2.5 -6t-1.5 -7q-18 -39 -46 -70.5t-61.5 -54t-72 -35t-78.5 -12.5
q-65 0 -120.5 20t-99.5 55.5t-75.5 84.5t-47.5 105q-3 12 -16.5 25t-24.5 13h-7z" />
    <glyph glyph-name="minus" unicode="&#x2212;" horiz-adv-x="615" 
d="M78 235q-12 0 -20 8t-8 20t8 20t20 8h459q12 0 20 -8t8 -20t-8 -20t-20 -8h-459z" />
    <glyph glyph-name="divisionslash" unicode="&#x2215;" horiz-adv-x="444" 
d="M16 0q-6 0 -8.5 4.5t0.5 9.5l396 722q3 5 10.5 9.5t13.5 4.5t8.5 -4.5t-0.5 -9.5l-396 -722q-3 -5 -10.5 -9.5t-13.5 -4.5z" />
    <glyph glyph-name="bulletoperator" unicode="&#x2219;" horiz-adv-x="199" 
d="M100 210q-21 0 -35.5 14.5t-14.5 35.5v1q0 20 14.5 34.5t35.5 14.5q20 0 34.5 -14.5t14.5 -34.5v-1q0 -21 -14.5 -35.5t-34.5 -14.5z" />
    <glyph glyph-name="F_sc" unicode="&#xa730;" horiz-adv-x="518" 
d="M453 313q5 0 5 -5t-5 -5h-204q-25 0 -43 -18t-18 -43v-196q0 -19 -13.5 -32.5t-32.5 -13.5t-32.5 13.5t-13.5 32.5v490q0 25 18 43t43 18h325q6 0 6 -6t-6 -6h-19h-25q-52 0 -108 0.5t-107 0.5q-16 0 -25.5 -11t-9.5 -26v-175q0 -25 18 -43t43 -18h204z" />
    <glyph glyph-name="S_sc" unicode="&#xa731;" horiz-adv-x="528" 
d="M441 464q2 -2 3 -6t0 -5q-2 -2 -6 -1t-5 3q-63 69 -115.5 103.5t-86.5 34.5q-41 0 -65.5 -40.5t-24.5 -107.5q0 -72 137 -92q215 -32 215 -186q0 -80 -50 -128t-149 -48q-64 0 -124.5 45t-104.5 133q-1 3 -1 7t3 6q2 2 5.5 0t4.5 -5q42 -87 99.5 -130.5t117.5 -43.5
q54 0 80.5 44t26.5 117q0 76 -148 97q-207 30 -207 174q0 39 13.5 70.5t37.5 54t58 34.5t76 12q37 0 91 -35.5t119 -106.5z" />
    <glyph glyph-name="X_sc" unicode="&#xf078;" horiz-adv-x="572" 
d="M69 6q-2 -2 -6 -4l-6 -3q-3 0 -4 2t1 4l13 15l190 227q11 13 12.5 35t-7.5 37l-142 227l-4 6l-13 22q-5 7 -1.5 14t12.5 7h66h6q2 -3 5 -7l5 -7.5t6 -10.5q29 -47 57.5 -92.5t57.5 -91.5q9 -15 25 -17t27 11l138 165q-2 0 7 9.5t17 19.5l13 15q1 2 5.5 4t7.5 2t3.5 -2
t-0.5 -4l-13 -15l-170 -204q-12 -13 -13.5 -35t7.5 -37l156 -250l4 -6l14 -21q4 -8 0.5 -15t-12.5 -7h-66h-6q-2 3 -5 7l-5 7.5t-6 10.5q-32 52 -63.5 102.5t-63.5 101.5q-10 16 -28 18.5t-30 -12.5l-154 -184q2 0 -7 -9.5t-17 -19.5z" />
  </font>
</defs>
</svg>
